<?xml version="1.0" standalone="no"?>
<!DOCTYPE svg PUBLIC "-//W3C//DTD SVG 1.1//EN" "http://www.w3.org/Graphics/SVG/1.1/DTD/svg11.dtd" >
<svg xmlns="http://www.w3.org/2000/svg" xmlns:xlink="http://www.w3.org/1999/xlink" version="1.1">
<metadata>
Created by FontForge 20170731 at Mon Feb 25 18:47:58 2002
 By Aleksey,,,
(c) 1996, 2001 Adobe Systems Incorporated. All Rights Reserved.
</metadata>
<defs>
<font id="CronosPro-Lt" horiz-adv-x="278" >
  <font-face 
    font-family="Cronos Pro Light"
    font-weight="300"
    font-stretch="normal"
    units-per-em="1000"
    panose-1="2 12 4 2 3 4 3 2 3 4"
    ascent="780"
    descent="-220"
    x-height="440"
    cap-height="628"
    bbox="-175 -255.1 1124.05 886.161"
    underline-thickness="50"
    underline-position="-200"
    unicode-range="U+0020-FB06"
  />
<missing-glyph horiz-adv-x="500" 
d="M0 0v700h500v-700h-500zM250 395l170 255h-340zM280 350l170 -255v510zM80 50h340l-170 255zM50 605v-510l170 255z" />
    <glyph glyph-name="T_h" unicode="Th" horiz-adv-x="991" 
d="M615 614v-244q28 30 71 53t86 23q145 0 145 -187v-142q0 -102 2 -115q-24 -8 -46 -8q-8 0 -8 13q1 49 1 247q1 78 -30.5 112t-80.5 34q-47 0 -85 -24t-55 -48v-309q0 -20 -16 -23q-13 -2 -38 -2q3 30 3 187v171.5v110.5v62v58h-258v-459q0 -62 3 -122q-27 -8 -47 -8
q-11 0 -11 18v571h-216q-22 0 -14 15q11 19 25 31q16 -5 156 -5h361q-1 29 -3 46q38 10 44 10q11 0 11 -66z" />
    <glyph glyph-name="T_hbar" unicode="T&#x127;" horiz-adv-x="990" 
d="M615 624h180q-1 -24 -14 -32.5t-41 -8.5h-125v-215q31 33 75.5 55.5t85.5 22.5q142 0 142 -188v-142q0 -101 2 -114q-24 -8 -46 -8q-8 0 -8 13v47t0.5 102.5t0.5 96.5q0 149 -109 149q-48 0 -86 -25.5t-57 -51.5v-306q0 -20 -16 -23q-13 -2 -38 -2q3 30 3 186v172v111v62
v58h-258v-459q0 -62 3 -122q-27 -8 -47 -8q-11 0 -11 18v571h-216q-22 0 -14 15q8 14 25 31q16 -5 156 -5h361q-1 29 -3 46q38 10 44 10q11 0 11 -56z" />
    <glyph glyph-name="T_hcircumflex" unicode="T&#x125;" horiz-adv-x="991" 
d="M615 614v-244q28 30 71 53t86 23q145 0 145 -187v-142q0 -102 2 -115q-24 -8 -46 -8q-8 0 -8 13q1 49 1 247q1 78 -30.5 112t-80.5 34q-47 0 -85 -24t-55 -48v-309q0 -20 -16 -23q-13 -2 -38 -2q3 30 3 187v171.5v110.5v62v58h-258v-459q0 -62 3 -122q-27 -8 -47 -8
q-11 0 -11 18v571h-216q-22 0 -14 15q11 19 25 31q16 -5 156 -5h361q-1 29 -3 46q38 10 44 10q11 0 11 -66zM503 680h-1q-12 0 -30 14q51 43 95 96q5 6 13 10q8 3 15 3q51 -57 112 -104q-3 -8 -12.5 -13.5t-16.5 -5.5q-13 0 -20 6q-20 14 -70 63q-29 -33 -65 -62
q-12 -7 -20 -7z" />
    <glyph glyph-name="Tbar_h" unicode="&#x166;h" horiz-adv-x="989" 
d="M615 614v-247q32 34 75.5 56.5t84.5 22.5q45 0 75 -17t43.5 -47t18.5 -58.5t5 -64.5v-142q0 -102 2 -115q-24 -8 -46 -8q-8 0 -8 13q0 3 0.5 47t0.5 103v97q0 149 -107 149q-48 0 -86.5 -26.5t-57.5 -53.5v-304q0 -20 -16 -23q-13 -2 -38 -2q3 30 3 187v402h-258v-240
h112q-1 -23 -13.5 -30t-41.5 -7h-57v-182q0 -62 3 -122q-27 -8 -47 -8q-11 0 -11 18v294h-103q4 37 42 37h61v240h-216q-22 0 -14 15q8 14 25 31q16 -5 156 -5h361q-1 29 -3 46q38 10 44 10q11 0 11 -66z" />
    <glyph glyph-name="Tcaron_h" unicode="&#x164;h" horiz-adv-x="991" 
d="M615 614v-244q28 30 71 53t86 23q145 0 145 -187v-142q0 -102 2 -115q-24 -8 -46 -8q-8 0 -8 13q1 49 1 247q1 78 -30.5 112t-80.5 34q-47 0 -85 -24t-55 -48v-309q0 -20 -16 -23q-13 -2 -38 -2q3 30 3 187v171.5v110.5v62v58h-258v-459q0 -62 3 -122q-27 -8 -47 -8
q-11 0 -11 18v571h-216q-22 0 -14 15q11 19 25 31q16 -5 156 -5h361q-1 29 -3 46q38 10 44 10q11 0 11 -66zM367 779h1q12 0 28 -14q-50 -40 -92 -90q-6 -5 -13 -10q-7 -3 -15 -3q-52 59 -104 99q3 7 12 12.5t16 5.5q11 0 18 -5q22 -18 67 -60q28 31 63 59q12 6 19 6z" />
    <glyph glyph-name="Tcommaaccent_h" unicode="&#x162;h" horiz-adv-x="991" 
d="M615 614v-244q28 30 71 53t86 23q145 0 145 -187v-142q0 -102 2 -115q-24 -8 -46 -8q-8 0 -8 13q1 49 1 247q1 78 -30.5 112t-80.5 34q-47 0 -85 -24t-55 -48v-309q0 -20 -16 -23q-13 -2 -38 -2q3 30 3 187v171.5v110.5v62v58h-258v-459q0 -62 3 -122q-27 -8 -47 -8
q-11 0 -11 18v571h-216q-22 0 -14 15q11 19 25 31q16 -5 156 -5h361q-1 29 -3 46q38 10 44 10q11 0 11 -66zM293 -40h1q12 0 20.5 -18t8.5 -37q0 -38 -22.5 -75.5t-50.5 -56.5q-16 -9 -44 -8q57 69 57 133q0 19 -12 43q23 19 42 19z" />
    <glyph glyph-name="f_f_j" unicode="ffj" horiz-adv-x="737" 
d="M613 50l-1 350q-33 -6 -216 -6v-392q-8 -8 -40 -8q-7 0 -9.5 3t-2.5 14q1 52 1 383h-217v-134v-164.5v-93.5q-8 -8 -40 -8q-7 0 -9.5 3t-2.5 14q1 105 1 383q-32 0 -41 2t-9 11q15 15 50 27q8 118 69 179q51 53 129 53q73 0 120 -44q55 64 135 64q59 0 82 -27
q1 -12 -7.5 -22.5t-18.5 -5.5q-30 15 -63 15q-55 0 -91.5 -48.5t-35.5 -163.5q181 0 203 1q13 1 32.5 5t20.5 4q11 0 11 -64v-342q0 -116 -32 -177q-18 -35 -43.5 -58t-38.5 -23q-16 0 -28 19v4q92 49 92 247zM128 434h217q0 105 28 151q-30 41 -103 41q-65 0 -103.5 -51.5
t-38.5 -140.5z" />
    <glyph glyph-name="f_j" unicode="fj" horiz-adv-x="469" 
d="M345 50v347q-82 -3 -216 -3v-141.5t0.5 -150t0.5 -100.5q-10 -8 -40 -8q-7 0 -9.5 3t-2.5 14v383q-50 0 -50 13q15 15 50 27q0 148 77 213q47 39 112 39q54 0 79 -27q1 -11 -8.5 -22.5t-19.5 -5.5q-28 15 -61 15q-57 0 -93 -49.5t-35 -162.5q173 0 203 1q13 1 33 5t21 4
q10 0 10 -65v-341q0 -115 -31 -177q-18 -35 -44 -58t-39 -23q-17 0 -28 18v5q46 24 68.5 81t22.5 166z" />
    <glyph glyph-name="ff" unicode="ff" horiz-adv-x="513" 
d="M346 394h-217v-141.5t0.5 -150t0.5 -100.5q-10 -8 -41 -8q-12 0 -12 17q1 35 1 383q-32 0 -41 2t-9 10q17 17 50 28q8 119 68 180q51 52 132 52q72 0 116 -44q46 64 120 64q43 0 63 -20q2 -13 -7.5 -23t-20.5 -6q-16 7 -44 7q-47 0 -78.5 -49t-29.5 -161q131 0 138 2
q-4 -24 -23 -34q-13 -8 -115 -8v-143t0.5 -150t0.5 -99q-8 -8 -40 -8q-7 0 -9.5 3t-2.5 12v385zM129 434h217q-1 38 6 82.5t20 67.5q-27 43 -105 43q-63 0 -99 -49.5t-39 -143.5z" />
    <glyph glyph-name="fi" unicode="fi" horiz-adv-x="469" 
d="M396 379v-355q0 -23 -13 -26q-17 -3 -41 -4q3 120 3 156v249q-23 -3 -216 -6v-141t0.5 -149.5t0.5 -100.5q-10 -8 -40 -8q-8 0 -10.5 3.5t-2.5 13.5q1 35 1 382q-50 0 -50 13q17 17 50 28q0 149 78 214q47 38 112 38q52 0 78 -26q1 -13 -8 -25q-10 -10 -20 -5
q-28 15 -62 15q-56 0 -92 -50.5t-35 -160.5q159 0 203 3q13 1 32 4t21 3q11 0 11 -65z" />
    <glyph glyph-name="fl" unicode="fl" horiz-adv-x="469" 
d="M345 5v394q-88 -8 -216 -6v-141.5t0.5 -149.5t0.5 -100q-10 -8 -39 -8q-8 0 -10.5 3.5t-2.5 13.5v98v142.5v141.5q-50 0 -50 12q18 19 50 29q5 139 72 206q49 46 120 46q43 0 78 -21q32 21 38 21q10 0 10 -45v-509q0 -45 3 -132q-18 -8 -42 -8q-12 0 -12 13zM345 435v165
q0 15 -7 22q-26 27 -79 27q-54 0 -91.5 -52t-38.5 -163q210 0 216 1z" />
    <glyph glyph-name="ffi" unicode="ffi" horiz-adv-x="736" 
d="M345 393h-216v-133.5v-164v-93.5q-10 -8 -40 -8q-8 0 -10.5 3.5t-2.5 13.5q2 71 2 382q-32 0 -41 2t-9 11q15 16 50 27q8 119 68 180q51 53 129 53q73 0 120 -44q53 64 135 64q59 0 84 -27q1 -13 -7.5 -23.5t-19.5 -4.5q-30 15 -63 15q-128 0 -128 -213q181 0 203 1
q10 0 21.5 2.5t21 5t10.5 2.5q11 0 11 -64v-356q0 -15 -2.5 -19.5t-10.5 -6.5q-30 -6 -41 -6q3 126 3 158v248q-23 -5 -216 -5v-141t0.5 -149.5t0.5 -100.5q-10 -8 -41 -8q-7 0 -9.5 3t-2.5 14q1 52 1 382zM129 433h216q0 105 28 151q-31 42 -103 42q-63 0 -101.5 -51
t-39.5 -142z" />
    <glyph glyph-name="ffl" unicode="ffl" horiz-adv-x="737" 
d="M345 394h-216q-1 -70 0.5 -228t1.5 -164q-10 -8 -40 -8q-8 0 -10.5 3.5t-2.5 13.5v383q-50 -1 -50 13q15 17 50 27q8 118 68 179q51 53 133 53q73 0 117 -46q51 66 140 66q47 0 83 -19q21 19 35 19q4 0 6 -3.5t3 -18t1 -43.5v-489q0 -74 4 -132q-26 -8 -43 -8
q-12 0 -12 13v395q-88 -8 -217 -6v-141.5t0.5 -150t0.5 -100.5q-8 -8 -40 -8q-7 0 -9.5 3t-2.5 14v104v141v138zM613 435v165q0 16 -5 21q-27 28 -78 28q-131 0 -134 -215q211 0 217 1zM129 434h216q-1 37 8 82t20 67q-32 44 -105 44q-63 0 -100.5 -52t-38.5 -141z" />
    <glyph glyph-name=".notdef" horiz-adv-x="500" 
d="M0 0v700h500v-700h-500zM250 395l170 255h-340zM280 350l170 -255v510zM80 50h340l-170 255zM50 605v-510l170 255z" />
    <glyph glyph-name=".null" horiz-adv-x="0" 
 />
    <glyph glyph-name="nonmarkingreturn" horiz-adv-x="333" 
 />
    <glyph glyph-name="space" unicode=" " horiz-adv-x="215" 
 />
    <glyph glyph-name="exclam" unicode="!" horiz-adv-x="151" 
d="M100 607h1q12 0 12 -23q0 -18 -15 -363q-1 -20 -11 -27q-15 -10 -24 -10q-7 158 -12 399q2 8 20 16t29 8zM79 70h1q15 0 25 -12t10 -27q0 -18 -11.5 -30t-28.5 -12q-14 0 -26 11t-12 29q0 17 11.5 29t30.5 12z" />
    <glyph glyph-name="quotedbl" unicode="&#x22;" horiz-adv-x="255" 
d="M76 668h1q18 0 18 -51q0 -91 -18 -151q-8 -19 -35 -21q7 130 -7 202q26 21 41 21zM201 668h1q18 0 18 -51q0 -91 -18 -151q-3 -7 -13.5 -13.5t-21.5 -7.5q7 128 -6 202q26 21 40 21z" />
    <glyph glyph-name="numbersign" unicode="#" horiz-adv-x="441" 
d="M68 463h87l28 125q9 12 34 12q9 0 5 -15l-27 -122h100l27 125q0 3 13.5 7.5t20.5 4.5q10 0 6 -15l-26 -122h68q15 0 12 -13q-5 -16 -15 -24h-74l-31 -150h77q9 0 11.5 -2t1.5 -7q-6 -23 -15 -28h-83l-30 -154q-13 -13 -35 -13q-8 0 -4 16l30 151h-104l-31 -154
q-3 -13 -14 -13q-4 0 -13 6t-12 12l31 149l-75 1q-8 0 -12 2.5t-2 7.5q5 16 15 26h82l33 150h-80q-17 0 -12 9q6 18 13 28zM288 426h-102l-32 -150h103z" />
    <glyph glyph-name="dollar" unicode="$" horiz-adv-x="441" 
d="M276 657l-10 -82q31 -1 61 -13.5t44 -25.5q-1 -15 -10 -22.5t-20 -3.5q-54 27 -94 27q-43 0 -76 -25.5t-33 -72.5q0 -14 2.5 -26t10.5 -23.5t13.5 -18.5t20 -18t21 -15l26 -16t25.5 -16q3 -2 18.5 -11.5t19.5 -12t17.5 -12t17.5 -14.5t14 -14.5t14 -18t9 -19.5t7 -23.5
t2 -26.5q0 -39 -15 -68.5t-39 -46.5t-47.5 -25.5t-47.5 -10.5l-8 -73q-2 -16 -17 -20q-17 -4 -31 -3l10 93q-39 3 -69 15t-44 25q-8 9 -7 23t7 21l3 1q65 -45 131 -45q55 0 89 27.5t34 80.5q0 36 -27.5 63t-87.5 63q-64 37 -93.5 72t-29.5 87q0 45 26.5 78.5t55.5 46.5
t52 15l8 54q3 20 15 24q16 6 32 6z" />
    <glyph glyph-name="percent" unicode="%" horiz-adv-x="657" 
d="M537 597q-40 -62 -169.5 -274t-217.5 -351q-9 -14 -18 -4q-11 8 -11 25q41 67 182 295t204 333q7 11 20 -3q7 -7 10 -21zM164 602h1q65 0 95 -47.5t30 -117.5q0 -68 -33.5 -117t-96.5 -49q-54 0 -90.5 42t-36.5 120q0 67 34.5 118t96.5 51zM162 568h-1q-39 0 -59 -38
t-20 -96q0 -52 19.5 -91t58.5 -39q40 0 60.5 36.5t20.5 100.5q0 46 -19 86.5t-60 40.5zM503 319h1q44 0 72.5 -27.5t38.5 -63t10 -78.5q0 -67 -34 -114.5t-94 -47.5q-53 0 -91 38t-38 121q0 71 35.5 121.5t99.5 50.5zM498 285h-1q-38 0 -59 -41.5t-21 -95.5q0 -50 19.5 -88
t60.5 -38q38 0 58.5 35t20.5 97q0 21 -3 41.5t-11 42t-24.5 34.5t-39.5 13z" />
    <glyph glyph-name="ampersand" unicode="&#x26;" horiz-adv-x="632" 
d="M586 6v-5q-26 -17 -44 -17q-10 0 -33 22q-2 2 -34 33.5t-67 64.5q-83 -116 -193 -116q-77 0 -124.5 43.5t-47.5 118.5q0 32 10.5 58.5t35 51t39 36.5t46.5 35q-71 66 -71 141q0 65 41 103.5t100 38.5q53 0 90 -31.5t37 -93.5q0 -13 -2 -25t-8.5 -23.5t-10.5 -20
t-15.5 -19.5t-16 -16t-20 -16.5t-18 -13.5t-20.5 -13l-17 -12q29 -29 164 -156q99 173 119 200q27 35 37 35q15 0 32 -24v-5q-53 -49 -157 -231q83 -78 148 -143zM153 476v-1q0 -63 67 -121q51 35 76 66.5t25 69.5q0 40 -24 63t-58 23q-40 0 -63 -28t-23 -72zM222 32h1
q90 0 157 99q-15 14 -181 175q-102 -73 -102 -152q0 -54 37.5 -88t87.5 -34z" />
    <glyph glyph-name="quotesingle" unicode="'" horiz-adv-x="130" 
d="M76 668h1q18 0 18 -51q0 -88 -19 -151q-8 -19 -36 -21q7 133 -5 202q26 21 41 21z" />
    <glyph glyph-name="parenleft" unicode="(" horiz-adv-x="309" 
d="M58 246v1q0 285 184 453q8 -2 15.5 -11.5t6.5 -19.5q-157 -163 -157 -413q0 -268 157 -414q-11 -24 -28 -26q-80 57 -129 173.5t-49 256.5z" />
    <glyph glyph-name="parenright" unicode=")" horiz-adv-x="309" 
d="M255 271v-1q0 -286 -184 -454q-10 3 -16.5 12t-5.5 19q157 161 157 413q0 268 -157 414q14 24 29 26q70 -51 123.5 -165.5t53.5 -263.5z" />
    <glyph glyph-name="asterisk" unicode="*" horiz-adv-x="331" 
d="M160 544l5 120q14 2 26 0q19 -2 16 -18l-19 -100l95 57q12 -8 16 -21q5 -16 -15 -25l-85 -36l91 -53q17 -11 7 -25q-7 -13 -21 -22l-95 78l-6 -119q-9 -1 -31 3q-13 3 -8 30l17 90l-101 -64q-12 9 -14 27q-6 13 7 21l97 37l-86 51q-16 10 -7 22q3 5 20 22z" />
    <glyph glyph-name="plus" unicode="+" horiz-adv-x="561" 
d="M258 229h-197q2 40 31 40h166v110q0 53 -3 80l24 4q14 3 19.5 -4t5.5 -30v-160h196q-2 -40 -32 -40h-164v-188q0 -21 -28 -28l-18 -2v218z" />
    <glyph glyph-name="comma" unicode="," horiz-adv-x="143" 
d="M82 104h1q22 0 22 -51q0 -38 -27 -84.5t-54 -64.5q-10 -8 -37 -7q58 78 58 151q0 15 -4 37q26 19 41 19z" />
    <glyph glyph-name="hyphen" unicode="-" horiz-adv-x="288" 
d="M253 273l2 -2q-6 -23 -18.5 -36.5t-40.5 -20.5q-24 -7 -78 -14.5t-84 -8.5l-2 3q15 47 32 49q129 15 189 30z" />
    <glyph glyph-name="period" unicode="." horiz-adv-x="143" 
d="M74 74h1q16 0 26.5 -12.5t10.5 -28.5q0 -20 -11.5 -32t-30.5 -12q-15 0 -27.5 11t-12.5 31q0 18 12 30.5t32 12.5z" />
    <glyph glyph-name="slash" unicode="/" horiz-adv-x="328" 
d="M297 640l-201 -699q-6 -22 -11 -29t-13 -7h-32l204 706q4 16 10.5 22t24.5 6z" />
    <glyph glyph-name="zero" unicode="0" horiz-adv-x="441" 
d="M223 602h1q185 0 185 -309q0 -156 -49.5 -230.5t-137.5 -74.5q-38 0 -69.5 15t-60 48t-44.5 96t-16 150q0 40 5 78.5t18 80.5t34 73.5t55.5 52t78.5 20.5zM222 563h-1q-23 0 -44 -11.5t-42 -39t-33.5 -83t-12.5 -133.5q0 -138 39.5 -203.5t96.5 -65.5q26 0 45.5 10
t39.5 37t31 85.5t11 144.5q0 39 -4 75t-16 82t-40 74t-70 28z" />
    <glyph glyph-name="one" unicode="1" horiz-adv-x="441" 
d="M295 602l8 -7q0 -32 1 -280.5t1 -290.5q0 -14 -4.5 -18.5t-15.5 -7.5q-20 -4 -36 -4q0 15 0.5 93t0.5 202v251q-73 -32 -171 -63l-2 2l20 41q140 54 198 82z" />
    <glyph glyph-name="two" unicode="2" horiz-adv-x="441" 
d="M38 11l18 33q145 150 200.5 234.5t55.5 148.5q0 66 -31.5 97.5t-80.5 31.5q-68 0 -127 -57q-16 -15 -27 -3q-6 8 -6 22q30 39 76 61.5t91 22.5q78 0 120.5 -47.5t42.5 -125.5q0 -68 -57 -151q-51 -75 -201 -234q162 -8 292 0q-1 -8 -11.5 -19.5t-19.5 -16.5
q-19 -12 -105 -12q-181 0 -228 10z" />
    <glyph glyph-name="three" unicode="3" horiz-adv-x="441" 
d="M47 32l2 2q55 -24 116 -24q93 0 131.5 43t38.5 109q0 59 -41.5 91t-117.5 32q-17 0 -57 -5l-1 2q8 25 22 35q72 12 116 48t44 97q0 41 -27.5 68t-75.5 27q-62 0 -105 -41q-18 -15 -26 -6q-8 8 -6 24q19 26 62.5 47t82.5 21q78 0 115.5 -42.5t37.5 -87.5q0 -101 -112 -151
q149 -31 149 -156q0 -90 -63.5 -142.5t-165.5 -52.5q-32 0 -62.5 8t-40.5 15q-16 21 -16 39z" />
    <glyph glyph-name="four" unicode="4" horiz-adv-x="441" 
d="M376 624l2 -4q-167 -183 -296 -397q102 -12 211 -10l3 194q26 9 45 11l6 -2v-203q39 0 69 5l1 -3q-9 -27 -38 -39q-4 -1 -16 -2.5t-16 -2.5v-147q0 -22 -17 -26t-40 -4q0 15 1 73.5t1 104.5q-180 0 -250 14q-14 8 -19 22q46 78 140.5 208.5t130.5 164.5q40 38 82 43z" />
    <glyph glyph-name="five" unicode="5" horiz-adv-x="441" 
d="M58 329l-3 7q6 41 26 138t29 122q190 5 242 11l2 -4q-5 -18 -15 -29t-40.5 -14.5t-156.5 -8.5q-7 -21 -21.5 -91t-15.5 -91q74 -12 116 -22q172 -43 172 -174q0 -90 -66 -146.5t-165 -56.5q-63 0 -87 18q-14 11 -16 37l2 2q41 -17 99 -17q74 0 124.5 38.5t49.5 116.5
q0 57 -32.5 87.5t-99.5 49.5q-65 17 -144 27z" />
    <glyph glyph-name="six" unicode="6" horiz-adv-x="441" 
d="M401 605v-3q-141 -31 -220 -117q-96 -104 -96 -259q0 -98 40.5 -148.5t103.5 -50.5q52 0 89.5 36.5t37.5 115.5q0 71 -34 102t-83 31q-56 0 -115 -45q-2 8 2.5 23t13.5 23q55 45 121 45q42 0 74 -17t48 -44.5t23.5 -54.5t7.5 -53q0 -79 -50 -140t-143 -61q-36 0 -68 11.5
t-61.5 37.5t-47 76t-17.5 118q0 142 94 253q61 72 132.5 106.5t108.5 34.5q30 0 39 -20z" />
    <glyph glyph-name="seven" unicode="7" horiz-adv-x="441" 
d="M402 590l4 -4q-11 -77 -68 -210.5t-113.5 -237.5t-79.5 -128q-17 -18 -39 -23q-15 -4 -27 -4l-2 5q70 84 159.5 265.5t115.5 291.5h-253q-64 0 -64 11q0 7 11 21.5t22 20.5q13 -8 82 -8h252z" />
    <glyph glyph-name="eight" unicode="8" horiz-adv-x="441" 
d="M226 602h1q66 0 109 -36.5t43 -101.5q0 -51 -28 -85t-85 -75q26 -14 34 -18t28.5 -16t27.5 -18.5t20 -19.5t17.5 -24t8.5 -27t4 -35q0 -64 -52.5 -111t-138.5 -47q-51 0 -88.5 14.5t-56 37.5t-27 45.5t-8.5 44.5q0 54 31.5 89.5t101.5 78.5q-60 31 -84 67t-24 83
q0 64 47 109t119 45zM218 564h-1q-42 0 -74 -28.5t-32 -80.5q0 -44 27.5 -73t91.5 -60q98 64 98 137q0 48 -29.5 76.5t-80.5 28.5zM221 26h1q55 0 92 29.5t37 85.5q0 40 -30.5 67.5t-115.5 69.5q-56 -32 -85.5 -64.5t-29.5 -74.5q0 -54 39 -83.5t92 -29.5z" />
    <glyph glyph-name="nine" unicode="9" horiz-adv-x="441" 
d="M59 -6l1 3q45 8 104 35.5t97 70.5q86 97 86 252q0 92 -35.5 150t-99.5 58q-56 0 -89.5 -42.5t-33.5 -103.5q0 -68 33.5 -102t89.5 -34q39 0 83 22q3 -23 -11 -36q-10 -11 -36 -20t-54 -9q-79 0 -121 50t-42 121q0 75 50.5 134t136.5 59q67 0 111 -38.5t60.5 -92
t16.5 -117.5q0 -170 -112 -282q-51 -51 -110.5 -76.5t-85.5 -25.5q-15 0 -22 4q-12 8 -17 20z" />
    <glyph glyph-name="colon" unicode=":" horiz-adv-x="143" 
d="M71 415h1q17 0 27 -12t10 -30t-11 -30.5t-28 -12.5q-15 0 -27.5 11t-12.5 30t11 31.5t30 12.5zM75 74h1q15 0 26.5 -12t11.5 -30q0 -19 -11.5 -31t-30.5 -12q-15 0 -27.5 11t-12.5 30q0 20 12.5 32t30.5 12z" />
    <glyph glyph-name="semicolon" unicode=";" horiz-adv-x="143" 
d="M73 415h1q17 0 26.5 -12.5t9.5 -29.5q0 -18 -11.5 -30.5t-28.5 -12.5q-15 0 -27.5 11t-12.5 30t11.5 31.5t31.5 12.5zM82 104h1q22 0 22 -51q0 -38 -27 -85t-54 -65q-12 -7 -37 -6q24 32 41 74t17 77q0 15 -4 37q26 19 41 19z" />
    <glyph glyph-name="less" unicode="&#x3c;" horiz-adv-x="561" 
d="M461 426l-301 -192v-3l300 -189q0 -16 -9 -28q-10 -15 -25 -4l-314 201q-13 9 -13 15q0 12 11 23l317 207q14 10 24 -5q9 -16 10 -25z" />
    <glyph glyph-name="equal" unicode="=" horiz-adv-x="561" 
d="M468 323h-408q2 40 32 40h408q-1 -23 -7.5 -31.5t-24.5 -8.5zM468 131h-408q2 40 32 40h408q-1 -22 -7.5 -31t-24.5 -9z" />
    <glyph glyph-name="greater" unicode="&#x3e;" horiz-adv-x="561" 
d="M100 42l300 193v3l-300 188q0 14 10 29t25 4l313 -201q13 -8 13 -14q0 -17 -11 -25l-316 -207q-15 -11 -25 5q-4 9 -9 25z" />
    <glyph glyph-name="question" unicode="?" horiz-adv-x="296" 
d="M157 607h1q52 0 85 -33.5t33 -85.5q0 -25 -11 -51.5t-22.5 -44t-33.5 -45.5q-49 -64 -49 -109q0 -28 10 -47q-10 -11 -26 -11q-5 0 -11.5 5t-13.5 19t-7 34q0 52 49 123q2 2 10 13.5t11.5 17t11 16.5t11 19t8 18t6.5 20t2 19q0 34 -19 55t-54 21q-48 0 -88 -34h-3
q-18 6 -16 30q51 51 116 51zM156 70h1q15 0 25 -12t10 -27q0 -18 -11.5 -30t-28.5 -12q-14 0 -26.5 11t-12.5 29q0 17 11.5 29t31.5 12z" />
    <glyph glyph-name="at" unicode="@" horiz-adv-x="708" 
d="M514 65l3 -1q4 -4 2 -18.5t-13 -21.5q-73 -58 -190 -58q-116 0 -196 80t-80 218q0 161 99.5 264.5t256.5 103.5q121 0 196.5 -73.5t75.5 -190.5q0 -102 -52 -169t-130 -67q-83 0 -65 121q-68 -121 -159 -121q-28 0 -46 27.5t-18 72.5q0 100 59 174.5t153 74.5
q38 0 98 -17q-44 -185 -44 -186q-10 -59 -1 -84t38 -25q48 0 85.5 49t37.5 155q0 100 -67.5 161t-163.5 61q-140 0 -222.5 -91.5t-82.5 -236.5q0 -114 67.5 -187t185.5 -73q96 0 173 58zM281 174h1q35 0 77.5 44.5t67.5 114.5q13 35 29 105q-13 8 -51 8q-77 0 -118.5 -62
t-41.5 -143q0 -32 10 -49.5t26 -17.5z" />
    <glyph glyph-name="A" unicode="A" horiz-adv-x="616" 
d="M439 216h-273q-71 -159 -98 -212q-5 -10 -17 -10q-19 0 -35 11l1 6q41 81 138 292.5t128 281.5l-15 34q20 9 35 9q17 0 23 -15q171 -392 187 -426t34.5 -75.5t30 -65.5t18.5 -37v-5q-27 -10 -43 -10q-8 0 -14 6t-13 22q-19 42 -87 194zM184 258h238q-85 201 -117 274
q-17 -38 -121 -274z" />
    <glyph glyph-name="B" unicode="B" horiz-adv-x="476" 
d="M78 7v477q0 82 -3 135q51 11 134 11q48 0 84 -12t55 -29t30.5 -40t14.5 -39t3 -31q0 -43 -22.5 -80t-60.5 -59q61 -18 94 -60t33 -96q0 -93 -66 -143.5t-166 -50.5q-63 0 -130 17zM133 586v-242q52 9 133 5q26 8 48.5 42.5t22.5 79.5q0 52 -34.5 85.5t-112.5 33.5
q-31 0 -57 -4zM133 306v-268q25 -9 76 -9q75 0 122.5 38t47.5 112q0 66 -47.5 99t-132.5 33q-46 0 -66 -5z" />
    <glyph glyph-name="C" unicode="C" horiz-adv-x="579" 
d="M545 63l2 -3q-2 -29 -27 -44q-17 -12 -58 -21.5t-89 -9.5q-161 0 -246.5 88t-85.5 236q0 147 96.5 239t243.5 92q63 0 113 -16.5t64 -33.5q-2 -17 -12.5 -25t-18.5 -6q-67 36 -151 36q-115 0 -194.5 -74.5t-79.5 -207.5q0 -129 75.5 -206.5t213.5 -77.5q86 0 154 34z" />
    <glyph glyph-name="D" unicode="D" horiz-adv-x="638" 
d="M78 13v482q0 88 -2 120q8 4 63.5 9.5t93.5 5.5q92 0 161.5 -21t108.5 -52t62.5 -74.5t31 -81t7.5 -79.5q0 -157 -100 -244.5t-260 -87.5q-81 0 -166 23zM133 582v-541q37 -12 116 -12q129 0 211.5 71t82.5 218q0 123 -77.5 197t-236.5 74q-57 0 -96 -7z" />
    <glyph glyph-name="E" unicode="E" horiz-adv-x="429" 
d="M78 22v462q0 92 -2 126q24 10 45 14h264q0 -20 -18 -35q-13 -7 -66 -7h-168v-240h246q-6 -28 -18 -35t-40 -7h-188v-255q24 -9 146 -9q99 0 136 5l2 -2q-13 -36 -40 -41q-24 -4 -107 -4q-138 0 -179 11z" />
    <glyph glyph-name="F" unicode="F" horiz-adv-x="421" 
d="M78 9v494q0 87 -3 108q34 11 51 13h272q-4 -20 -14 -32q-10 -10 -63 -10h-188v-261h251q1 -24 -13.5 -33t-40.5 -9h-197q0 -163 3 -277q-21 -8 -43 -8q-15 0 -15 15z" />
    <glyph glyph-name="G" unicode="G" horiz-adv-x="650" 
d="M532 52v97q0 115 -4 136q27 15 48 15q11 0 11 -27v-232q-35 -23 -61 -32q-62 -24 -137 -24q-72 0 -132.5 18t-110 55t-77.5 101t-28 149q0 148 99.5 240t247.5 92q56 0 103.5 -12.5t66.5 -23.5t28 -20q1 -14 -9.5 -24.5t-22.5 -5.5q-71 42 -173 42q-122 0 -200.5 -78.5
t-78.5 -203.5q0 -77 25.5 -134.5t69 -90t94.5 -48t109 -15.5q34 0 74 7.5t58 18.5z" />
    <glyph glyph-name="H" unicode="H" horiz-adv-x="642" 
d="M133 344h377v256q0 13 3.5 17.5t13.5 6.5q16 4 41 4q-3 -57 -3 -180v-323q0 -63 3 -123q-30 -8 -48 -8q-10 0 -10 14v297q-30 -3 -166 -3h-211v-280q0 -13 -4 -17.5t-16 -6.5q-17 -3 -38 -4q3 60 3 183v316q0 99 -3 127q27 8 43 8q9 0 12 -8.5t3 -41.5v-234z" />
    <glyph glyph-name="I" unicode="I" horiz-adv-x="210" 
d="M78 12v482q0 99 -3 126q27 8 46 8q8 0 10 -8.5t2 -41.5v-454q0 -62 3 -122q-22 -8 -46 -8q-12 0 -12 18z" />
    <glyph glyph-name="J" unicode="J" horiz-adv-x="210" 
d="M78 145v349q0 99 -3 126q27 8 47 8q8 0 9.5 -7.5t1.5 -41.5v-427q0 -107 -16 -163.5t-57 -89.5q-35 -29 -62 -29q-8 0 -16.5 8t-11.5 18l1 3q38 12 58.5 31.5t34.5 71.5t14 143z" />
    <glyph glyph-name="K" unicode="K" horiz-adv-x="553" 
d="M78 9v484q0 99 -3 127q37 8 47 8q8 0 9.5 -6.5t1.5 -38.5v-269q52 47 180 169.5t158 151.5q9 0 29 -5q23 -6 -6 -33q-47 -43 -166 -155t-131 -123q68 -70 173.5 -168.5t167.5 -145.5v-2q-18 -11 -48 -11q-20 0 -44 20q-46 41 -165 153.5t-148 143.5v-184q0 -63 3 -123
q-24 -8 -44 -8q-8 0 -11 3t-3 12z" />
    <glyph glyph-name="L" unicode="L" horiz-adv-x="417" 
d="M78 22v471q0 99 -3 127q37 8 47 8q11 0 11 -51v-532q24 -9 127 -9q107 0 146 5l1 -2q-4 -34 -37 -41q-24 -4 -107 -4q-123 0 -172 11z" />
    <glyph glyph-name="M" unicode="M" horiz-adv-x="839" 
d="M626 598l-3 21q16 9 38 9q10 0 14 -23l71 -375q28 -147 48 -227q-23 -9 -42 -9q-13 0 -17 17q-14 65 -34 176l-60 346q-174 -421 -208 -506q-7 -18 -17 -22q-10 -5 -25 -5q-16 50 -47.5 134.5t-85.5 225t-66 171.5q-17 -94 -57 -294.5t-45 -227.5q-5 -15 -16 -15
q-19 0 -34 9q9 42 53.5 255t70.5 333l-9 28q29 9 48 9q7 -17 59 -146l152 -384q111 266 212 500z" />
    <glyph glyph-name="N" unicode="N" horiz-adv-x="660" 
d="M89 575l-32 41v4q21 8 43 8q11 0 22 -17q15 -17 55 -69t105 -137t117 -151q106 -135 136 -184q-5 122 -5 248v277q0 26 18 29q28 4 31 4q-3 -65 -3 -184v-444q-13 -13 -31 -13q-1 0 -4 1t-4 1q-262 344 -308 402q-79 105 -100 136q5 -170 5 -242v-254q0 -19 -4 -24.5
t-15 -8.5q-17 -4 -29 -4q3 60 3 182v399z" />
    <glyph glyph-name="O" unicode="O" horiz-adv-x="712" 
d="M355 640h1q138 0 226.5 -92t88.5 -230q0 -65 -19.5 -123.5t-56.5 -106t-98.5 -75.5t-138.5 -28q-67 0 -122 21t-90.5 54t-59.5 75.5t-34.5 84.5t-10.5 83q0 146 85.5 241.5t228.5 95.5zM351 601h-1q-111 0 -179.5 -79t-68.5 -213q0 -130 79 -207.5t181 -77.5
q110 0 179 74.5t69 217.5q0 124 -73.5 204.5t-185.5 80.5z" />
    <glyph glyph-name="P" unicode="P" horiz-adv-x="469" 
d="M78 12v473q0 89 -4 135q75 10 132 10q103 0 164.5 -46.5t61.5 -140.5q0 -89 -58 -139.5t-133 -50.5q-41 0 -57 13q-6 4 -10 14.5t-3 19.5q26 -9 64 -9q30 0 58.5 11t53 46t24.5 90q0 151 -171 151q-38 0 -67 -4v-461q0 -62 3 -122q-21 -8 -44 -8q-14 0 -14 18z" />
    <glyph glyph-name="Q" unicode="Q" horiz-adv-x="712" 
d="M357 640h1q139 0 226 -93t87 -229q0 -118 -57 -204.5t-169 -119.5q31 -14 83 -49q121 -78 192 -89v-4q-16 -24 -53 -24q-10 0 -20.5 1.5t-22.5 5.5t-21 7.5t-24 11.5t-23.5 12.5t-26.5 16t-26.5 17t-30 20t-31.5 20.5q-56 37 -116 43q-131 18 -207.5 105.5t-76.5 213.5
q0 148 86 243t230 95zM350 601h-1q-110 0 -178.5 -79.5t-68.5 -212.5q0 -89 40.5 -156t98.5 -98t122 -31q112 0 179.5 73.5t67.5 218.5q0 124 -73 204.5t-187 80.5z" />
    <glyph glyph-name="R" unicode="R" horiz-adv-x="508" 
d="M133 272v-251q0 -21 -15 -24q-26 -3 -43 -3q3 60 3 182v334q0 73 -2 107q65 13 130 13q204 0 204 -174q0 -68 -41.5 -110t-88.5 -60q43 -28 103 -124q82 -130 120 -158l-1 -5q-11 -7 -38 -7q-33 0 -70 57q-68 105 -85 129q-40 58 -64 76t-76 18h-36zM133 585v-275
q97 -4 120 4q43 14 70.5 49t27.5 90q0 73 -42 105t-103 32q-50 0 -73 -5z" />
    <glyph glyph-name="S" unicode="S" horiz-adv-x="412" 
d="M234 640h1q30 0 64 -10.5t51 -27.5q1 -10 -6 -20.5t-16 -11.5q-50 27 -101 27q-48 0 -84.5 -26.5t-36.5 -82.5q0 -49 27 -78.5t96 -67.5q88 -49 119 -88t31 -101q0 -76 -55.5 -122t-140.5 -46q-43 0 -79 12t-53 26q-12 10 -12 21q2 18 8 32q26 -22 65.5 -34.5t73.5 -12.5
q62 0 99 31t37 84t-31 84.5t-111 75.5q-80 45 -105 87t-25 93q0 24 9 48.5t28 50t57 41.5t90 16z" />
    <glyph glyph-name="T" unicode="T" horiz-adv-x="521" 
d="M236 12v571h-201q-21 0 -14 15q10 17 24 31q13 -5 152 -5h319q1 -7 -6.5 -21.5t-15.5 -19.5h-203v-459q0 -62 3 -122q-27 -8 -47 -8q-11 0 -11 18z" />
    <glyph glyph-name="U" unicode="U" horiz-adv-x="653" 
d="M130 577v-287q0 -262 198 -262q33 0 58 5t53.5 21.5t46.5 45.5t30 81.5t12 124.5v294q0 20 17 24q12 1 16.5 2t6.5 1.5t11 0.5q-3 -57 -3 -180v-140q0 -84 -17.5 -146t-42.5 -95t-62.5 -52.5t-67 -24.5t-66.5 -5q-53 0 -94.5 14t-77 46.5t-54.5 95t-19 152.5v200
q0 99 -3 127q27 8 43 8q10 0 12.5 -8t2.5 -43z" />
    <glyph glyph-name="V" unicode="V" horiz-adv-x="581" 
d="M28 609q3 6 17.5 12.5t25.5 6.5q9 0 16 -14t33 -81q139 -357 182 -465q12 30 95.5 240.5t124.5 319.5q21 -5 27 -7q19 -9 9 -35q-34 -86 -230 -563q-8 -18 -17 -25q-16 -10 -32 -10q-20 50 -59 150.5t-64 163.5t-61 149.5t-67 157.5z" />
    <glyph glyph-name="W" unicode="W" horiz-adv-x="885" 
d="M453 628h1q8 0 15 -16q82 -258 162 -537q185 534 191 553q18 0 36 -8q9 -5 -2 -36q-8 -23 -197 -546q-11 -29 -21 -39q-11 -11 -30 -11q-14 49 -164 546q-22 -75 -82 -265t-72 -232q-10 -32 -23 -40q-16 -9 -28 -9q-124 396 -210 624q28 16 45 16q7 0 12.5 -11t19.5 -54
q13 -43 70 -220t84 -270q86 291 163 524q-4 22 -4 23q14 8 34 8z" />
    <glyph glyph-name="X" unicode="X" horiz-adv-x="552" 
d="M33 615v1q29 12 48 12q8 0 32 -36q28 -39 78.5 -108.5t89.5 -124.5q110 145 182 245q17 24 28 24q16 0 34 -11v-2q-15 -21 -91.5 -121.5t-126.5 -168.5q179 -252 233 -320v-3q-27 -9 -45 -9q-16 0 -30 19q-15 20 -75 106t-116 164q-39 -55 -114 -156t-88 -120
q-7 -12 -22 -12q-17 0 -36 8v3q26 35 108 143t127 168q-28 42 -71.5 102t-89.5 122t-55 75z" />
    <glyph glyph-name="Y" unicode="Y" horiz-adv-x="544" 
d="M244 12v255q0 31 -7 41q-37 56 -109.5 158t-108.5 148v3q24 11 46 11q10 0 40 -42q33 -49 174 -248q26 35 108.5 150.5t97.5 139.5q11 0 30 -7q17 -6 -3 -34q-13 -17 -103.5 -140.5t-99.5 -134.5q-10 -12 -10 -38v-152q0 -60 3 -120q-14 -8 -46 -8q-12 0 -12 18z" />
    <glyph glyph-name="Z" unicode="Z" horiz-adv-x="552" 
d="M534 38l1 -2q-18 -28 -39 -36q-14 -6 -137 -6q-289 0 -310 8q-15 13 -16 21q102 127 223.5 297t178.5 263h-321q-27 0 -40.5 2t-16 4.5t-2.5 7.5q0 7 9 17.5t17 15.5q19 -6 73 -6h351q-6 -28 -26 -61q-132 -211 -368 -523q86 -4 230.5 -4.5t192.5 2.5z" />
    <glyph glyph-name="bracketleft" unicode="[" horiz-adv-x="304" 
d="M91 212v1q0 257 10 445q6 4 64 10.5t83 6.5q11 -16 11 -28q0 -4 -16 -5q-67 -9 -82 -11q-16 -4 -19 -25q-7 -46 -8 -401q-2 -265 2 -318q2 -18 23 -23q30 -5 80 -10q6 -1 8.5 -3.5t1.5 -4.5q-2 -14 -10 -25q-40 0 -74.5 3.5t-52 7.5t-20.5 7q-3 26 -3 81.5t1 149t1 142.5
z" />
    <glyph glyph-name="backslash" unicode="\" horiz-adv-x="288" 
d="M73 640l177 -699q5 -20 0.5 -27t-19.5 -8l-21 -1l-178 707q-3 10 5 17.5t31 8.5z" />
    <glyph glyph-name="bracketright" unicode="]" horiz-adv-x="304" 
d="M213 284v-1q0 -280 -10 -445q-4 -4 -63 -10.5t-84 -6.5q-11 16 -11 29q0 4 16 5q16 2 32.5 4t31 4t18.5 3q17 4 19 25q7 46 8 400q2 265 -2 318q-3 20 -23 23q-33 6 -78 10q-6 1 -9.5 3.5t-2.5 5.5q2 13 10 24q124 0 147 -18q3 -26 3 -81.5t-1 -149t-1 -142.5z" />
    <glyph glyph-name="asciicircum" unicode="^" horiz-adv-x="561" 
d="M79 233l171 350q5 14 21 17q20 3 31 2l180 -369q-5 -5 -18.5 -10.5t-20.5 -5.5q-9 0 -18 22l-147 310l-146 -317q-10 -15 -18 -15q-19 0 -35 16z" />
    <glyph glyph-name="underscore" unicode="_" horiz-adv-x="500" 
d="M500 -75v-50h-500v50h500z" />
    <glyph glyph-name="grave" unicode="`" horiz-adv-x="400" 
d="M143 680h1q8 -1 38.5 -52t45.5 -86q6 -15 -2 -23q-15 -13 -17 -14q-55 84 -101 136q-10 8 3 20q19 19 32 19z" />
    <glyph glyph-name="a" unicode="a" horiz-adv-x="407" 
d="M381 31l1 -2q2 -21 -11 -31t-34 -10q-30 0 -45.5 21t-14.5 49q-58 -70 -137 -70q-50 0 -79 31.5t-29 71.5q0 18 5 34t15.5 29t21.5 23.5t28 19.5t28.5 15t30.5 12t27 8.5t24 6.5l16 4q36 8 49 10l1 41q0 44 -23.5 75t-70.5 31q-55 0 -110 -45q-10 -6 -19 0.5t-12 22.5
q21 24 63 46t86 22q137 0 137 -165q0 -14 -0.5 -62.5t-1 -81.5t0.5 -72q1 -38 32 -38q10 0 21 4zM88 100v-1q0 -29 21 -47t51 -18q38 0 67 20t44 46q6 10 6 32v84q-30 -6 -50 -10.5t-49 -14.5t-46.5 -21.5t-30.5 -29.5t-13 -40z" />
    <glyph glyph-name="b" unicode="b" horiz-adv-x="492" 
d="M126 615l-1 -221q85 52 151 52q27 0 55.5 -10t58.5 -32t49 -66t19 -103q0 -114 -75 -180.5t-187 -66.5q-34 0 -66.5 8t-44.5 16q-11 8 -11 30v514q0 74 -4 114q36 10 45 10q4 0 6.5 -3.5t3.5 -17.5t1 -44zM125 359v-319q28 -12 77 -12q86 0 142.5 54t56.5 146
q0 82 -43 126t-112 44q-25 0 -60.5 -11.5t-60.5 -27.5z" />
    <glyph glyph-name="c" unicode="c" horiz-adv-x="412" 
d="M379 54l2 -2q-4 -31 -20 -40q-38 -24 -102 -24q-27 0 -52.5 4t-58 18t-56 37.5t-40 66.5t-16.5 100q0 101 67 166.5t167 65.5q44 0 78 -12.5t42 -23.5q0 -15 -8.5 -25t-19.5 -7q-46 24 -101 24q-75 0 -121.5 -53t-46.5 -132q0 -54 18 -92.5t47 -57t57.5 -26.5t57.5 -8
q59 0 106 21z" />
    <glyph glyph-name="d" unicode="d" horiz-adv-x="503" 
d="M374 428v151q0 31 -3 91q32 10 42 10q5 0 7 -3.5t3.5 -18t1.5 -43.5v-522q0 -39 9.5 -53t35.5 -17v-3q-3 -13 -12.5 -22.5t-20.5 -9.5q-26 0 -41 17.5t-17 43.5q-32 -27 -75 -44t-78 -17q-78 0 -134 56t-56 162q0 104 70 172t176 68q18 0 34.5 -2.5t25 -5t20 -6.5
t12.5 -4zM374 82v304q-33 20 -98 20q-73 0 -128 -50.5t-55 -146.5q0 -77 44.5 -125t112.5 -48q71 0 124 46z" />
    <glyph glyph-name="e" unicode="e" horiz-adv-x="419" 
d="M365 60l2 -1q-2 -31 -24 -46q-41 -25 -103 -25q-99 0 -152 58.5t-53 160.5t54 170.5t147 68.5q73 0 113 -46.5t42 -111.5q0 -21 -2 -30q-3 -13 -32 -21.5t-56 -9.5q-79 -5 -212 -1q-2 -87 42 -139.5t122 -52.5q30 0 63 8.5t49 17.5zM225 409h-1q-48 0 -84.5 -38.5
t-45.5 -104.5q34 -1 73.5 -1h66t50 0.5t25.5 0.5q27 2 27 21q2 53 -28 87.5t-83 34.5z" />
    <glyph glyph-name="f" unicode="f" horiz-adv-x="246" 
d="M245 686h1q18 0 35 -6.5t22 -14.5q1 -11 -8 -21t-20 -6q-19 7 -39 7q-46 0 -77 -48t-30 -163q137 0 147 2q-3 -15 -22 -31q-14 -11 -125 -11q-1 -70 0.5 -228t1.5 -164q-10 -8 -41 -8q-12 0 -12 17v383q-50 0 -50 13q12 16 50 27q0 152 71 215q42 37 96 37z" />
    <glyph glyph-name="g" unicode="g" horiz-adv-x="436" 
d="M206 446h1q37 0 70 -9q53 -14 81 -14q38 0 62 7q2 -8 2 -11q0 -34 -52 -37q-8 -1 -35 -1q24 -42 24 -87q0 -75 -45.5 -116.5t-108.5 -41.5q-31 0 -49 6q-37 -31 -37 -39q0 -32 69 -35q19 -1 46.5 -2t47 -2t34.5 -3q51 -7 77.5 -36.5t26.5 -74.5q0 -74 -64.5 -122
t-151.5 -48q-88 0 -134 39t-46 92q0 29 28.5 60.5t71.5 55.5q-58 22 -62 71q0 6 7 10q30 20 54 46q-76 39 -76 131q0 68 45.5 114.5t113.5 46.5zM205 410h-1q-43 0 -73.5 -32.5t-30.5 -91.5q0 -49 29 -81.5t75 -32.5q51 0 76.5 35t25.5 84q0 51 -25.5 85t-75.5 34zM77 -81
v-1q0 -44 43.5 -69.5t98.5 -25.5q69 0 111 32t42 82q0 67 -78 77q-51 6 -99 4q-30 0 -46 -9q-29 -15 -50.5 -39.5t-21.5 -50.5z" />
    <glyph glyph-name="h" unicode="h" horiz-adv-x="501" 
d="M125 615v-244q81 75 157 75q145 0 145 -190v-139q0 -102 2 -115q-24 -8 -46 -8q-8 0 -8 13q0 3 0.5 46t0.5 101v96q0 150 -112 150q-44 0 -82 -23.5t-57 -47.5v-310q0 -20 -16 -23q-13 -2 -38 -2q3 30 3 187v375q0 74 -4 114q37 10 44 10q11 0 11 -65z" />
    <glyph glyph-name="i" unicode="i" horiz-adv-x="198" 
d="M99 644h1q14 0 23 -10t9 -25q0 -14 -9 -25t-24 -11q-34 0 -34 35q0 16 10.5 26t23.5 10zM125 379v-355q0 -22 -13 -25q-17 -4 -41 -5q3 120 3 156v168q0 69 -4 113q20 9 44 9q11 0 11 -61z" />
    <glyph glyph-name="j" unicode="j" horiz-adv-x="198" 
d="M99 643h1q14 0 23 -10.5t9 -25.5t-9 -26t-24 -11q-16 0 -25 10.5t-9 24.5q0 17 10.5 27.5t23.5 10.5zM-18 -201l1 4q46 25 68.5 80t22.5 167v268q0 69 -4 113q20 9 44 9q11 0 11 -61v-326q0 -128 -32 -192q-18 -35 -44 -58t-38 -23q-17 0 -29 19z" />
    <glyph glyph-name="k" unicode="k" horiz-adv-x="433" 
d="M125 615v-383q62 51 232 214q20 0 35 -5q5 -2 6.5 -4t-0.5 -6t-8 -10.5t-19 -19.5q-6 -5 -184 -167q41 -48 123.5 -129.5t113.5 -101.5l-1 -3q-14 -8 -39 -8q-22 0 -47 21q-30 25 -105 101t-107 112v-202q0 -15 -4 -20t-15 -7q-19 -3 -35 -3q3 60 3 182v380q0 67 -4 111
q20 13 44 13q11 0 11 -65z" />
    <glyph glyph-name="l" unicode="l" horiz-adv-x="198" 
d="M74 7v549q0 74 -4 114q26 10 45 10q4 0 6 -3.5t3 -18t1 -43.5v-483q0 -49 3 -130q-24 -8 -41 -8q-13 0 -13 13z" />
    <glyph glyph-name="m" unicode="m" horiz-adv-x="773" 
d="M128 322v-306q0 -18 -17 -20q-13 -2 -37 -2q3 30 3 187v173q0 60 -15 70v2q5 5 18 12t19 7q25 0 27 -81q78 82 154 82q90 0 122 -83q77 83 159 83q139 0 139 -177v-158q0 -77 4 -109q-38 -8 -47 -8q-8 0 -8 13v253q0 139 -105 139q-65 0 -131 -71l1 -305q0 -16 -3 -20.5
t-14 -6.5q-17 -2 -37 -2q3 30 3 187v80q0 138 -102 138q-68 0 -133 -77z" />
    <glyph glyph-name="n" unicode="n" horiz-adv-x="500" 
d="M374 5l1 257q1 138 -108 138q-43 0 -80 -25t-59 -56v-298q0 -15 -4 -19.5t-15 -5.5q-6 -1 -19 -1.5t-16 -0.5q3 30 3 187v173q0 56 -15 69v3q5 5 17.5 12t18.5 7q28 0 28 -81q31 35 73 58.5t84 23.5q143 0 143 -180v-154q0 -78 4 -110q-40 -8 -46 -8q-10 0 -10 11z" />
    <glyph glyph-name="o" unicode="o" horiz-adv-x="495" 
d="M252 446h1q99 0 153 -63t54 -163q0 -98 -58 -165t-154 -67q-58 0 -101.5 21t-66.5 55.5t-34 71.5t-11 76q0 98 60.5 166t156.5 68zM246 408h-1q-60 0 -106.5 -48.5t-46.5 -138.5q0 -92 46.5 -143.5t115.5 -51.5q24 0 48 9t48 29t38.5 59.5t14.5 93.5q0 80 -40.5 135.5
t-116.5 55.5z" />
    <glyph glyph-name="p" unicode="p" horiz-adv-x="503" 
d="M128 20v-209q0 -11 -3 -14.5t-14 -8.5q-26 -2 -37 -2q3 28 3 187v389q0 47 -15 62v3q24 18 38 18q6 0 11.5 -7t10 -24.5t4.5 -41.5q89 74 166 74q68 0 122 -52t54 -160q0 -106 -67 -176t-165 -70q-63 0 -108 32zM128 331v-271q47 -31 109 -31q26 0 53 9t55.5 29.5
t47 62.5t18.5 100q0 76 -40 121.5t-99 45.5q-41 0 -82.5 -22t-61.5 -44z" />
    <glyph glyph-name="q" unicode="q" horiz-adv-x="494" 
d="M390 427l28 5h5q0 -2 -2 -77.5t-2 -159.5v-390q0 -21 -14 -24q-18 -3 -40 -3q3 51 3 178v80q-28 -21 -66.5 -34.5t-68.5 -13.5q-82 0 -140 57.5t-58 159.5q0 107 70.5 174t176.5 67q57 0 108 -19zM368 69v321q-34 17 -97 17q-68 0 -123.5 -50.5t-55.5 -142.5
q0 -78 44.5 -128t121.5 -50q25 0 57 9.5t53 23.5z" />
    <glyph glyph-name="r" unicode="r" horiz-adv-x="299" 
d="M54 419v3q6 6 18 15t18 9q14 0 24 -25t10 -72q24 47 56 72t62 25t44 -16q2 -13 -2 -20q-5 -18 -22 -20q-14 7 -32 7q-22 0 -46.5 -21t-42.5 -61q-13 -31 -13 -59v-237q0 -21 -14 -22q-22 -3 -40 -3q3 20 3 187v164q0 59 -23 74z" />
    <glyph glyph-name="s" unicode="s" horiz-adv-x="324" 
d="M182 446h1q28 0 55 -9t39 -25q1 -8 -6 -18t-17 -11q-37 22 -77 22q-35 0 -59 -20t-24 -52q0 -46 48 -71q14 -8 46 -23.5t51 -26.5q60 -36 60 -94q0 -64 -45 -97t-104 -33q-80 0 -114 38q-7 12 -1 23q6 15 17 14q46 -33 102 -33q45 0 69 21t24 55q0 45 -58 74
q-15 8 -40 20t-35 17q-71 39 -71 107q0 53 41 87.5t98 34.5z" />
    <glyph glyph-name="t" unicode="t" horiz-adv-x="324" 
d="M292 57l2 -2q8 -26 -15 -44q-32 -23 -80 -23q-114 0 -114 129v276q-40 0 -40 15q2 6 15 20t29 29.5t19 18.5q11 12 30 20q0 -13 -0.5 -26.5t-1 -21t-0.5 -14.5h168q-9 -36 -45 -38q-29 -2 -123 -2q-8 -183 -1 -280q6 -81 78 -81q47 0 79 24z" />
    <glyph glyph-name="u" unicode="u" horiz-adv-x="497" 
d="M74 149v169q0 69 -4 113q20 9 44 9q10 0 10 -61q1 -66 1 -199q0 -47 10 -77.5t28 -44t35 -18t40 -4.5q41 0 77 22.5t51 47.5v299q0 25 12 29q24 6 42 6q0 -3 -1.5 -65t-1.5 -113v-168q0 -40 8.5 -54t32.5 -17v-4q-1 -9 -11 -20t-22 -11q-24 0 -39 21t-16 56
q-34 -40 -89 -64q-30 -13 -65 -13q-70 0 -106 43t-36 118z" />
    <glyph glyph-name="v" unicode="v" horiz-adv-x="418" 
d="M60 446h1q9 0 17 -19q51 -119 136 -359q146 374 148 378q16 0 33 -11q8 -3 6.5 -13t-14.5 -41q-131 -322 -142 -347q-15 -32 -23 -36q-13 -7 -30 -10q-4 13 -14 38t-36.5 93.5t-56.5 147.5q-47 120 -67 159q25 20 42 20z" />
    <glyph glyph-name="w" unicode="w" horiz-adv-x="656" 
d="M64 446h1q9 0 14 -14q66 -187 122 -361q91 254 116 328q-3 12 -7 21q19 14 35 14q10 0 24 -47q6 -20 102 -311q93 266 132 370q14 0 33 -13q10 -10 -8 -59q-21 -54 -61 -160.5t-70 -185.5q-9 -25 -24 -32q-13 -5 -23 -8q-33 108 -113 351q-63 -188 -113 -318
q-8 -19 -18 -23q-19 -9 -27 -10q-7 18 -39.5 116t-53.5 155q-49 134 -64 166q21 21 42 21z" />
    <glyph glyph-name="x" unicode="x" horiz-adv-x="415" 
d="M24 429v2q30 15 46 15q9 0 32 -34q3 -4 42.5 -60.5t62.5 -86.5q46 62 117 160q15 21 24 21q13 0 40 -8v-2q-37 -47 -156 -206q64 -92 170 -227v-2q-19 -7 -48 -7q-12 0 -21 11q-3 5 -52 73t-80 111q-14 -20 -54.5 -74.5t-79.5 -109.5q-6 -11 -19 -11q-18 0 -39 7v2
q34 42 166 220q-82 122 -151 206z" />
    <glyph glyph-name="y" unicode="y" horiz-adv-x="406" 
d="M45 -205v2q84 109 141 224q-5 6 -22 46q-83 234 -142 360q24 19 41 19q11 0 15 -10q13 -30 68.5 -180.5t67.5 -180.5q32 65 73.5 182.5t59.5 188.5q25 2 36 -7q10 -9 3 -31q-64 -197 -114 -312q-31 -71 -74 -147.5t-74.5 -122t-39.5 -45.5q-25 0 -39 14z" />
    <glyph glyph-name="z" unicode="z" horiz-adv-x="367" 
d="M31 5l-12 15q38 50 125 176t128 198h-182q-60 0 -60 12q0 15 24 35q14 -7 91 -7h189q-3 -31 -16 -55q-21 -41 -224 -338q65 -5 157 -4t111 5q-3 -20 -20 -34q-16 -11 -128 -11q-150 0 -183 8z" />
    <glyph glyph-name="braceleft" unicode="{" horiz-adv-x="304" 
d="M259 -154v-1q0 -14 -8 -22q-56 2 -92.5 38t-36.5 102q0 30 10.5 100t10.5 102q0 46 -18 68t-64 24q-6 1 -10 9.5t-2 17.5q55 9 74.5 33t19.5 62q0 29 -9 93t-9 85q0 77 54 115q36 26 73 28q6 -6 6 -22q0 -6 -12 -12q-41 -16 -57.5 -42.5t-16.5 -69.5q0 -22 9 -79t9 -89
q0 -81 -60 -110q21 -9 34 -21.5t18.5 -30.5t6.5 -31.5t1 -39.5q0 -39 -10.5 -101t-10.5 -88q0 -83 76 -107q14 -4 14 -11z" />
    <glyph glyph-name="bar" unicode="|" horiz-adv-x="260" 
d="M155 750v-1000h-50v1000h50z" />
    <glyph glyph-name="braceright" unicode="}" horiz-adv-x="304" 
d="M45 677v1q0 14 8 22q56 -2 92 -37.5t36 -102.5q0 -32 -10.5 -97t-10.5 -86q0 -46 18 -68t64 -25q6 -1 9.5 -9t2.5 -17q-56 -9 -75 -32.5t-19 -62.5q0 -27 9 -98.5t9 -98.5q0 -76 -54 -114q-37 -27 -72 -29q-7 7 -7 23q0 5 11 10q41 17 58 44t17 70q0 22 -9 84t-9 94
q0 84 60 118q-37 17 -48.5 46t-11.5 76q0 27 10.5 86t10.5 90q0 40 -16.5 64t-58.5 38q-14 4 -14 11z" />
    <glyph glyph-name="asciitilde" unicode="~" horiz-adv-x="561" 
d="M181 353h1q53 0 109 -58q4 -4 12 -13t12 -13l11.5 -11.5t12.5 -11.5t12 -9t13 -7.5t13.5 -4.5t14.5 -2q31 0 46.5 24t22.5 87q3 15 11 15q18 0 28 -14q-5 -157 -109 -157q-32 0 -60.5 19.5t-67.5 61.5q-48 51 -82 51q-59 0 -75 -110q-2 -20 -24 -20q-12 0 -22 3
q4 54 18.5 91t34.5 52.5t36 21t32 5.5z" />
    <glyph glyph-name="uni00A0" unicode="&#xa0;" horiz-adv-x="215" 
 />
    <glyph glyph-name="exclamdown" unicode="&#xa1;" horiz-adv-x="151" 
d="M73 365h-1q-15 0 -25 12t-10 27q0 18 11.5 30t28.5 12q16 0 27 -12t11 -29t-11 -28.5t-31 -11.5zM54 -172h-1q-13 0 -13 22t7.5 188.5t7.5 175.5q0 18 10 26q18 11 25 11q7 -158 12 -399q-2 -8 -19.5 -16t-28.5 -8z" />
    <glyph glyph-name="cent" unicode="&#xa2;" horiz-adv-x="441" 
d="M285 576l-8 -71q65 -4 92 -33q0 -13 -9 -20.5t-19 -5.5q-36 19 -78 19q-40 0 -70 -16.5t-45.5 -42t-23 -50t-7.5 -46.5q0 -81 42.5 -120t102.5 -39q52 0 98 19q-7 -36 -27 -47q-30 -15 -85 -15l-8 -63q-3 -23 -20 -24l-30 -3l12 95q-21 5 -40.5 14.5t-44.5 29.5t-40.5 57
t-15.5 85q0 52 18 92t47 62t54.5 33t51.5 17l5 49q2 12 10 17.5t28 6.5h10z" />
    <glyph glyph-name="sterling" unicode="&#xa3;" horiz-adv-x="441" 
d="M28 12v9q82 82 80 263q-47 0 -54 12q18 18 56 27q4 159 47.5 225t131.5 66q51 0 83 -30q1 -12 -7 -20.5t-19 -5.5q-34 16 -65 16q-36 0 -60 -18.5t-36.5 -55.5t-17 -77.5t-5.5 -98.5q182 0 192 2q-8 -37 -41 -40q-9 -2 -153 -2q-1 -162 -73 -244q29 -14 91.5 -25.5
t102.5 -11.5q86 0 127 17l3 -3q-9 -27 -24 -39q-29 -19 -105 -19q-121 0 -254 53z" />
    <glyph glyph-name="currency" unicode="&#xa4;" horiz-adv-x="441" 
d="M218 472h1q61 0 100 -32q28 31 55 64q19 -25 19 -34q0 -4 -2 -9.5t-7.5 -12.5t-9.5 -12t-13 -15t-13 -15q33 -44 33 -103q0 -77 -43 -122q9 -10 21.5 -23.5t19 -20.5t12.5 -14.5t8 -12.5q-3 -12 -11.5 -22t-15.5 -10q-5 0 -71 73q-40 -30 -101 -30q-42 0 -83 20
q-6 -8 -38 -48q-16 -22 -29 -17q-16 6 -22 25q30 34 52 67q-48 47 -48 125q0 63 47 118q-4 5 -15.5 18.5t-19.5 23.5q-10 16 -5 28q13 31 24 20q2 -2 21.5 -24.5t30.5 -34.5q44 30 103 30zM206 433h-1q-57 0 -89.5 -40.5t-32.5 -94.5q0 -61 32.5 -99.5t93.5 -38.5
q57 0 89 39.5t32 100.5q0 58 -33.5 95.5t-90.5 37.5z" />
    <glyph glyph-name="yen" unicode="&#xa5;" horiz-adv-x="441" 
d="M249 322h135q-1 -12 -12 -24t-21 -12h-112v-87h131q0 -14 -9 -25t-25 -11h-97v-163q-17 -6 -35 -6q-8 0 -12 3t-4 14v152h-139q0 26 10 36h129v87h-143q0 8 4 20.5t8 15.5h122q-111 186 -164 261v4q27 8 45 8q10 0 16 -10q7 -11 29.5 -49.5t57.5 -98t56 -95.5
q132 215 157 252q16 0 32 -5q12 -4 5 -15q-11 -16 -36.5 -55.5t-63.5 -98t-64 -98.5z" />
    <glyph glyph-name="brokenbar" unicode="&#xa6;" horiz-adv-x="260" 
d="M155 675v-350h-50v350h50zM155 175v-350h-50v350h50z" />
    <glyph glyph-name="section" unicode="&#xa7;" horiz-adv-x="426" 
d="M38 387v1q0 111 97 186q49 66 124 66q45 0 66 -21q12 -15 -8 -32q-26 16 -63 16q-85 0 -85 -78q0 -14 7 -30.5t21 -35t24 -31t28.5 -32t23.5 -24.5q65 -72 83 -103q31 -54 30 -115q-1 -107 -91 -201q-16 -36 -52 -54.5t-78 -18.5q-53 0 -69 18q-6 3 -11.5 15.5t-2.5 24.5
q33 -20 86 -20q44 0 68 21t24 58q0 16 -7.5 35t-23 40.5t-26.5 35t-32.5 37t-26.5 29.5q-52 60 -79 108t-27 105zM344 134v1q0 52 -25.5 96.5t-70.5 93.5q-6 7 -27 30t-29.5 33t-24 31t-22.5 36t-12.5 35t-4.5 39q-44 -50 -46 -126q-2 -83 97 -193q2 -3 18.5 -20t20.5 -21.5
t17.5 -20.5t18 -23t15 -21t14.5 -23.5t10 -22.5t8 -24.5t2 -23.5q41 60 41 124z" />
    <glyph glyph-name="dieresis" unicode="&#xa8;" horiz-adv-x="400" 
d="M125 612h1q14 0 24 -11t10 -26q0 -19 -10.5 -29.5t-26.5 -10.5q-15 0 -25.5 9.5t-10.5 27.5q0 17 10.5 28.5t27.5 11.5zM278 612h1q15 0 24.5 -11t9.5 -26q0 -19 -10.5 -29.5t-27.5 -10.5q-14 0 -24.5 9.5t-10.5 27.5t10 29t28 11z" />
    <glyph glyph-name="copyright" unicode="&#xa9;" horiz-adv-x="668" 
d="M336 630h1q131 0 212 -90.5t81 -223.5q0 -139 -84.5 -226.5t-209.5 -87.5q-127 0 -212.5 87.5t-85.5 226.5t85.5 226.5t212.5 87.5zM337 596h-1q-112 0 -182.5 -80.5t-70.5 -199.5q0 -116 71 -198t184 -82q110 0 178.5 80.5t68.5 200.5q0 115 -67 197t-181 82zM450 205
l2 -2q-2 -17 -18 -33q-36 -18 -80 -18q-71 0 -117.5 44.5t-46.5 117.5q0 72 48 119.5t126 47.5q29 0 57 -9t37 -18q0 -12 -7 -21q-7 -7 -19 -2q-37 16 -74 16q-45 0 -83.5 -32.5t-38.5 -95.5q0 -61 35 -95.5t99 -34.5q40 0 80 16z" />
    <glyph glyph-name="ordfeminine" unicode="&#xaa;" horiz-adv-x="293" 
d="M281 313l-1 -13q-7 -21 -34 -23q-40 0 -50 36q-33 -37 -85 -38q-37 -1 -59 19.5t-22 50.5q0 71 128 99q18 4 35 7v17q0 67 -58 67q-35 0 -75 -34q-12 -11 -19 8l-5 10q9 17 42 35t67 18q94 0 94 -101q0 -16 -0.5 -68.5t-0.5 -61.5q0 -31 21 -31q10 0 22 3zM79 353v-1
q0 -18 14 -29.5t33 -11.5q20 0 38.5 11.5t24.5 28.5q4 14 4 25v44q-114 -17 -114 -67z" />
    <glyph glyph-name="guillemotleft" unicode="&#xab;" horiz-adv-x="530" 
d="M374 53v-1q0 -24 -22 -36q-59 108 -130 190q-8 11 -8 25q109 133 147 197q17 -22 17 -42q0 -12 -22 -45.5t-53.5 -75.5t-31.5 -43q21 -28 62 -91.5t41 -77.5zM206 377v-1q0 -10 -20.5 -42t-47.5 -68.5t-31 -43.5q2 -3 29.5 -43t46 -72.5t18.5 -44.5q0 -29 -20 -33
q-75 120 -126 178q-5 12 -5 24q78 82 138 182q6 -4 12 -15t6 -21z" />
    <glyph glyph-name="logicalnot" unicode="&#xac;" horiz-adv-x="561" 
d="M454 85v232h-394q1 23 8 31.5t24 8.5h401l7 -8v-235q0 -13 -8.5 -20t-16 -8t-21.5 -1z" />
    <glyph glyph-name="uni00AD" unicode="&#xad;" horiz-adv-x="288" 
d="M253 273l2 -2q-6 -23 -18.5 -36.5t-40.5 -20.5q-24 -7 -78 -14.5t-84 -8.5l-2 3q15 47 32 49q129 15 189 30z" />
    <glyph glyph-name="registered" unicode="&#xae;" horiz-adv-x="313" 
d="M155 640h1q56 0 91.5 -36t35.5 -92q0 -54 -35 -90t-93 -36q-57 0 -91 36t-34 90q0 55 34 91.5t91 36.5zM154 615h-1q-40 0 -67 -29t-27 -73q0 -46 27 -75t70 -29q42 0 69.5 29t27.5 75q0 44 -27.5 73t-71.5 29zM135 499v-39q0 -11 -7 -12q-13 0 -19 -1v129q40 4 42 4
q56 0 56 -40q0 -23 -28 -33q25 -43 39 -56v-3q-8 -2 -18 -2t-17 9q-11 14 -22 34q-6 11 -26 10zM135 560v-44q19 0 27 2q17 4 17 22q0 21 -27 21q-14 0 -17 -1z" />
    <glyph glyph-name="macron" unicode="&#xaf;" horiz-adv-x="400" 
d="M284 545h-172q-12 0 -12 11q0 9 5 20t9 14h176q11 0 11 -7q0 -5 -6 -18.5t-11 -19.5z" />
    <glyph glyph-name="degree" unicode="&#xb0;" horiz-adv-x="273" 
d="M135 602h1q46 0 75 -30t29 -77q0 -48 -29.5 -76.5t-79.5 -28.5q-37 0 -67.5 27.5t-30.5 76.5q0 44 29 76t73 32zM136 564h-1q-25 0 -40 -19.5t-15 -48.5q0 -32 16.5 -50.5t41.5 -18.5q56 0 56 65q0 29 -15 50.5t-43 21.5z" />
    <glyph glyph-name="plusminus" unicode="&#xb1;" horiz-adv-x="561" 
d="M257 302h-197q2 40 32 40h165v114q0 38 -3 64l27 5q14 3 18 -5t4 -28v-150h197q-2 -40 -32 -40h-165v-174q0 -24 -28 -28l-18 -2v204zM469 0h-408q2 40 31 40h409q-2 -40 -32 -40z" />
    <glyph glyph-name="twosuperior" unicode="&#xb2;" 
d="M29 671l-2 1q0 10 8 37q39 41 95 41q46 0 74.5 -27t28.5 -74q0 -15 -5 -30t-16 -30.5t-20 -27.5t-27 -28t-26.5 -24t-28 -24t-23.5 -19q94 -4 170 4q0 -20 -26 -37q-24 -6 -82 -6q-91 0 -126 6l-2 4q12 22 14 26q51 45 74 66t47 55.5t24 62.5q0 30 -17 46t-45 16
q-51 0 -89 -38z" />
    <glyph glyph-name="threesuperior" unicode="&#xb3;" 
d="M77 563l-3 4q10 19 15 26q41 7 64 21.5t23 45.5q0 24 -16 37.5t-40 13.5q-16 0 -37 -10t-33 -22q-11 7 -11 18q0 9 8 16q38 35 84 35q39 0 64.5 -20.5t25.5 -58.5q0 -46 -50 -75q71 -18 71 -83q0 -49 -42.5 -79t-98.5 -30q-47 0 -61 16q-10 10 -10 26l1 2q26 -10 64 -10
q47 0 73 20t26 51q0 61 -74 61q-23 0 -43 -5z" />
    <glyph glyph-name="acute" unicode="&#xb4;" horiz-adv-x="400" 
d="M257 678h1q8 0 20 -6t18 -13q8 -7 -3 -19q-45 -52 -101 -138q-8 4 -19 17q-5 6 5 26q16 35 44 84t35 49z" />
    <glyph glyph-name="mu" unicode="&#xb5;" horiz-adv-x="496" 
d="M114 43l7 -260h-11q-30 4 -36.5 12t-5.5 35l8 316v172q0 67 -4 115q23 9 44 9q4 0 6 -3.5t3 -17.5t1 -42q1 -66 1 -217q0 -128 106 -128q43 0 80 24t51 52v295q0 27 12 31q24 6 42 6q0 -4 -1.5 -66.5t-1.5 -113.5v-168q0 -65 51 -71v-3q-1 -10 -11.5 -21t-23.5 -11
q-24 0 -43 20.5t-20 53.5q-66 -73 -148 -73q-77 2 -106 54z" />
    <glyph glyph-name="paragraph" unicode="&#xb6;" horiz-adv-x="480" 
d="M308 238l-63 -19q-16 -5 -34 -5q-69 0 -115.5 52.5t-46.5 129.5q0 91 58.5 145.5t148.5 54.5h97h90l1 -4q-12 -20 -28 -32q-8 -2 -60 -5v-314q0 -124 -13 -181t-45 -90q-48 -46 -118 -46q-44 0 -76 18t-32 34q0 12 13 29q42 -41 100 -41q70 0 96.5 53.5t26.5 176.5v44z
" />
    <glyph glyph-name="periodcentered" unicode="&#xb7;" horiz-adv-x="143" 
d="M73 283h1q17 0 28 -12.5t11 -29.5q0 -20 -11 -33t-30 -13q-16 0 -28.5 11t-12.5 31t11 33t31 13z" />
    <glyph glyph-name="cedilla" unicode="&#xb8;" horiz-adv-x="401" 
d="M207 4h45l-39 -58q62 -15 62 -69q0 -36 -35.5 -60.5t-78.5 -32.5q-7 1 -12.5 9t-5.5 14t9 8q76 21 76 57q0 21 -24 30.5t-57 9.5v3z" />
    <glyph glyph-name="onesuperior" unicode="&#xb9;" 
d="M185 750l7 -3q0 -6 -1 -64.5t-1.5 -128.5t-0.5 -112q0 -16 -22 -17l-25 -2q3 21 3 269q-40 -14 -84 -17l-2 3l12 26q50 12 114 46z" />
    <glyph glyph-name="ordmasculine" unicode="&#xba;" horiz-adv-x="342" 
d="M171 572h1q67 0 106 -40t39 -106t-40 -108.5t-105 -42.5q-75 0 -111 45t-36 99q0 66 41.5 109.5t104.5 43.5zM169 536h-1q-38 0 -65 -31t-27 -81q0 -57 29.5 -85t67.5 -28q39 0 66 29t27 88q0 47 -25.5 77.5t-71.5 30.5z" />
    <glyph glyph-name="guillemotright" unicode="&#xbb;" horiz-adv-x="530" 
d="M156 391v1q0 26 22 36q62 -112 130 -189q8 -13 8 -25q-106 -130 -146 -197q-18 20 -18 42q0 9 15.5 34t32 48t37.5 51t22 30q-21 28 -62 91.5t-41 77.5zM324 67v1q0 11 20.5 42.5t47.5 68.5t31 43q-2 3 -29.5 43t-46 72.5t-18.5 44.5q0 29 20 33q71 -116 126 -177
q5 -13 5 -24q-77 -81 -138 -182q-6 4 -12 15t-6 20z" />
    <glyph glyph-name="onequarter" unicode="&#xbc;" horiz-adv-x="635" 
d="M179 602l5 -3q0 -5 -0.5 -64t-1 -129t-0.5 -112q0 -16 -22 -17l-25 -2q2 14 2 269q-44 -14 -84 -16l-3 4l13 24q53 13 116 46zM511 594q-146 -245 -379 -622q-8 -13 -18 -5q-13 12 -15 26q210 335 380 622q9 15 21 1q9 -12 11 -22zM548 337l2 -4q-99 -97 -177 -216
q22 -3 117 -5l2 82q15 11 38 16h4v-97q22 0 47 5l1 -3q-4 -16 -20 -30q-2 -1 -28 -6v-76q-32 -8 -43 -10l-4 3q3 33 3 82q-113 0 -147 7q-16 16 -16 25q25 41 76.5 105.5t79.5 92.5q7 7 28.5 16.5t36.5 12.5z" />
    <glyph glyph-name="onehalf" unicode="&#xbd;" horiz-adv-x="635" 
d="M173 602l5 -3q0 -5 -0.5 -64t-1 -129t-0.5 -112q0 -16 -22 -17l-25 -2q2 14 2 269q-47 -15 -86 -17l-1 2l13 27q53 13 116 46zM492 594q-121 -203 -380 -621q-8 -15 -18 -5q-13 10 -15 25q259 416 381 622q9 15 20 1q10 -11 12 -22zM469 320h1q46 0 74 -26.5t28 -73.5
q0 -15 -4.5 -30.5t-15.5 -31t-20 -27.5t-26.5 -28t-26.5 -24t-27.5 -23.5t-23.5 -19.5q100 -4 168 3q0 -22 -24 -35q-23 -7 -83 -7q-93 0 -128 6l-2 4q10 16 15 26q50 43 74.5 65.5t48 56.5t23.5 62q0 30 -17 46t-45 16q-20 0 -46 -12.5t-43 -29.5l-3 2q-4 28 8 40
q39 41 95 41z" />
    <glyph glyph-name="threequarters" unicode="&#xbe;" horiz-adv-x="635" 
d="M148 600h1q38 0 62.5 -20.5t24.5 -57.5q0 -42 -48 -75q72 -18 72 -82q0 -51 -42 -81t-98 -30q-46 0 -62 16q-9 11 -11 27l1 2q30 -10 65 -10q47 0 72.5 20.5t25.5 51.5q0 60 -75 60q-24 0 -44 -5l-2 3q7 16 16 27q25 5 40.5 10.5t29 20t13.5 36.5q0 24 -15 37t-38 13
q-35 0 -68 -31q-11 7 -11 18q0 7 10 17q33 33 81 33zM533 594q-132 -223 -378 -621q-10 -15 -18 -5q-15 11 -15 25q254 409 379 622q9 15 21 1q9 -12 11 -22zM556 337l3 -4q-99 -97 -177 -216q22 -3 116 -5l2 82q17 12 38 17h4v-98q22 0 47 5l2 -3q-10 -21 -21 -30
q-2 -1 -28 -6v-76q-32 -8 -43 -10l-4 3q3 25 3 82q-114 0 -146 7q-17 17 -17 25q26 43 77.5 107.5t78.5 90.5q6 6 28.5 16t36.5 13z" />
    <glyph glyph-name="questiondown" unicode="&#xbf;" horiz-adv-x="298" 
d="M156 365h-1q-15 0 -25 12.5t-10 26.5q0 18 11.5 30t29.5 12q14 0 26 -11t12 -29t-12 -29.5t-31 -11.5zM154 -172h-1q-54 0 -85.5 34.5t-31.5 84.5q0 57 67 141q49 64 49 109q0 28 -10 47q10 11 26 11q5 0 11.5 -5t13.5 -19t7 -34q0 -52 -50 -123q-2 -2 -10 -13.5
t-11.5 -17t-11 -16.5t-11 -19t-8 -18t-6.5 -20t-2 -19q0 -34 19 -55t55 -21q49 0 88 33h3q17 -6 15 -30q-53 -50 -116 -50z" />
    <glyph glyph-name="Agrave" unicode="&#xc0;" horiz-adv-x="616" 
d="M439 216h-273q-71 -159 -98 -212q-5 -10 -17 -10q-19 0 -35 11l1 6q41 81 138 292.5t128 281.5l-15 34q20 9 35 9q17 0 23 -15q171 -392 187 -426t34.5 -75.5t30 -65.5t18.5 -37v-5q-27 -10 -43 -10q-8 0 -14 6t-13 22q-19 42 -87 194zM184 258h238q-85 201 -117 274
q-17 -38 -121 -274zM219 786h1q13 0 60 -27.5t73 -50.5q12 -8 3 -17q-2 -3 -15 -16q-83 46 -157 69q-9 3 -4 9q5 11 17.5 22t21.5 11z" />
    <glyph glyph-name="Aacute" unicode="&#xc1;" horiz-adv-x="616" 
d="M439 216h-273q-71 -159 -98 -212q-5 -10 -17 -10q-19 0 -35 11l1 6q41 81 138 292.5t128 281.5l-15 34q20 9 35 9q17 0 23 -15q171 -392 187 -426t34.5 -75.5t30 -65.5t18.5 -37v-5q-27 -10 -43 -10q-8 0 -14 6t-13 22q-19 42 -87 194zM184 258h238q-85 201 -117 274
q-17 -38 -121 -274zM418 777q8 -3 19 -15.5t13 -20.5q6 -15 -12 -18q-39 -11 -167 -58q-8 5 -12 16q-5 12 8 20q31 20 84 47.5t67 28.5z" />
    <glyph glyph-name="Acircumflex" unicode="&#xc2;" horiz-adv-x="616" 
d="M439 216h-273q-71 -159 -98 -212q-5 -10 -17 -10q-19 0 -35 11l1 6q41 81 138 292.5t128 281.5l-15 34q20 9 35 9q17 0 23 -15q171 -392 187 -426t34.5 -75.5t30 -65.5t18.5 -37v-5q-27 -10 -43 -10q-8 0 -14 6t-13 22q-19 42 -87 194zM184 258h238q-85 201 -117 274
q-17 -38 -121 -274zM226 665h-1q-12 0 -30 14q51 43 95 96q6 6 13 10q8 3 15 3q51 -57 112 -104q-3 -8 -12.5 -13.5t-16.5 -5.5q-13 0 -20 6q-20 14 -70 63q-29 -33 -65 -62q-12 -7 -20 -7z" />
    <glyph glyph-name="Atilde" unicode="&#xc3;" horiz-adv-x="616" 
d="M439 216h-273q-71 -159 -98 -212q-5 -10 -17 -10q-19 0 -35 11l1 6q41 81 138 292.5t128 281.5l-15 34q20 9 35 9q17 0 23 -15q171 -392 187 -426t34.5 -75.5t30 -65.5t18.5 -37v-5q-27 -10 -43 -10q-8 0 -14 6t-13 22q-19 42 -87 194zM184 258h238q-85 201 -117 274
q-17 -38 -121 -274zM265 778h1q29 0 56 -35q22 -27 30 -27q16 0 25 51q3 11 11 11t27 -15q-12 -92 -66 -92q-15 0 -26 9.5t-30 32.5q-19 22 -30 22q-16 0 -30 -49q-2 -11 -9 -11q-6 0 -30 9q16 94 71 94z" />
    <glyph glyph-name="Adieresis" unicode="&#xc4;" horiz-adv-x="616" 
d="M439 216h-273q-71 -159 -98 -212q-5 -10 -17 -10q-19 0 -35 11l1 6q41 81 138 292.5t128 281.5l-15 34q20 9 35 9q17 0 23 -15q171 -392 187 -426t34.5 -75.5t30 -65.5t18.5 -37v-5q-27 -10 -43 -10q-8 0 -14 6t-13 22q-19 42 -87 194zM184 258h238q-85 201 -117 274
q-17 -38 -121 -274zM221 743h1q15 0 25 -11t10 -27q0 -19 -10.5 -29.5t-26.5 -10.5t-26.5 9.5t-10.5 28.5q0 17 10.5 28.5t27.5 11.5zM400 743h1q15 0 25 -11t10 -27q0 -19 -10.5 -29.5t-28.5 -10.5q-14 0 -25 9.5t-11 28.5q0 17 10.5 28.5t28.5 11.5z" />
    <glyph glyph-name="Aring" unicode="&#xc5;" horiz-adv-x="616" 
d="M439 216h-273q-71 -159 -98 -212q-5 -10 -17 -10q-19 0 -35 11l1 6q41 81 138 292.5t128 281.5l-15 34q20 9 35 9q17 0 23 -15q171 -392 187 -426t34.5 -75.5t30 -65.5t18.5 -37v-5q-27 -10 -43 -10q-8 0 -14 6t-13 22q-19 42 -87 194zM184 258h238q-85 201 -117 274
q-17 -38 -121 -274zM310 822h1q32 0 54.5 -22.5t22.5 -55.5q0 -36 -22 -57.5t-59 -21.5q-32 0 -54 21t-22 55t21.5 57.5t57.5 23.5zM308 788h-1q-17 0 -26.5 -14t-9.5 -31q0 -19 11 -31.5t28 -12.5q19 0 29 13t10 30q0 46 -41 46z" />
    <glyph glyph-name="AE" unicode="&#xc6;" horiz-adv-x="781" 
d="M415 263h-210q-127 -233 -144 -259q-10 -16 -17 -16q-16 0 -34 15l-1 5q31 52 162 285t164 289q8 13 16 32q28 7 49 10h328q0 -15 -12 -30q-8 -11 -35 -11h-228l13 -281h251q-5 -41 -39 -41h-211l12 -218q40 -8 144 -8q109 0 146 5l1 -2q-6 -33 -38 -40q-24 -4 -110 -4
q-133 0 -183 10l-16 20zM412 302l-11 280q-20 0 -32 -22q-29 -51 -56 -99t-51.5 -94t-35.5 -65h186z" />
    <glyph glyph-name="Ccedilla" unicode="&#xc7;" horiz-adv-x="579" 
d="M294 -85l48 72q-145 10 -223 95t-78 228q0 146 97.5 238t243.5 92q66 0 114 -17t63 -36q-3 -17 -15 -24.5t-29 0.5q-55 32 -140 32q-114 0 -193.5 -76t-79.5 -206q0 -125 73.5 -204.5t211.5 -79.5q42 0 89.5 11.5t68.5 23.5l2 -2q-2 -11 -10 -25.5t-18 -20.5
q-42 -29 -132 -30l-27 -39q62 -16 62 -70q0 -36 -35.5 -60.5t-78.5 -31.5q-7 1 -12.5 9.5t-5.5 15.5q0 5 9 8q76 24 76 54q0 39 -81 41v2z" />
    <glyph glyph-name="Egrave" unicode="&#xc8;" horiz-adv-x="429" 
d="M78 22v462q0 92 -2 126q24 10 45 14h264q0 -20 -18 -35q-13 -7 -66 -7h-168v-240h246q-6 -28 -18 -35t-40 -7h-188v-255q24 -9 146 -9q99 0 136 5l2 -2q-13 -36 -40 -41q-24 -4 -107 -4q-138 0 -179 11zM146 776h1q13 0 60 -27.5t73 -50.5q12 -8 3 -17q-2 -3 -15 -16
q-83 46 -157 69q-9 3 -4 9q5 11 17.5 22t21.5 11z" />
    <glyph glyph-name="Eacute" unicode="&#xc9;" horiz-adv-x="429" 
d="M78 22v462q0 92 -2 126q24 10 45 14h264q0 -20 -18 -35q-13 -7 -66 -7h-168v-240h246q-6 -28 -18 -35t-40 -7h-188v-255q24 -9 146 -9q99 0 136 5l2 -2q-13 -36 -40 -41q-24 -4 -107 -4q-138 0 -179 11zM337 777q8 -3 19 -15.5t13 -20.5q6 -15 -12 -18q-39 -11 -167 -58
q-8 5 -12 16q-5 12 8 20q31 20 84 47.5t67 28.5z" />
    <glyph glyph-name="Ecircumflex" unicode="&#xca;" horiz-adv-x="429" 
d="M78 22v462q0 92 -2 126q24 10 45 14h264q0 -20 -18 -35q-13 -7 -66 -7h-168v-240h246q-6 -28 -18 -35t-40 -7h-188v-255q24 -9 146 -9q99 0 136 5l2 -2q-13 -36 -40 -41q-24 -4 -107 -4q-138 0 -179 11zM152 673h-1q-12 0 -30 14q51 43 95 96q5 5 13 10q8 3 15 3
q51 -57 112 -104q-4 -8 -13 -13.5t-16 -5.5q-13 0 -20 6q-20 14 -70 63q-29 -33 -65 -62q-12 -7 -20 -7z" />
    <glyph glyph-name="Edieresis" unicode="&#xcb;" horiz-adv-x="429" 
d="M78 22v462q0 92 -2 126q24 10 45 14h264q0 -20 -18 -35q-13 -7 -66 -7h-168v-240h246q-6 -28 -18 -35t-40 -7h-188v-255q24 -9 146 -9q99 0 136 5l2 -2q-13 -36 -40 -41q-24 -4 -107 -4q-138 0 -179 11zM143 753h1q15 0 25 -11t10 -27q0 -19 -10.5 -29.5t-26.5 -10.5
t-26.5 9.5t-10.5 28.5q0 17 10.5 28.5t27.5 11.5zM322 753h1q15 0 25 -11t10 -27q0 -19 -10.5 -29.5t-28.5 -10.5q-14 0 -25 9.5t-11 28.5q0 17 10.5 28.5t28.5 11.5z" />
    <glyph glyph-name="Igrave" unicode="&#xcc;" horiz-adv-x="210" 
d="M78 12v482q0 99 -3 126q27 8 46 8q8 0 10 -8.5t2 -41.5v-454q0 -62 3 -122q-22 -8 -46 -8q-12 0 -12 18zM26 776h1q13 0 60 -27.5t73 -50.5q12 -8 3 -17q-2 -3 -15 -16q-83 46 -157 69q-9 3 -4 9q5 11 17.5 22t21.5 11z" />
    <glyph glyph-name="Iacute" unicode="&#xcd;" horiz-adv-x="210" 
d="M78 12v482q0 99 -3 126q27 8 46 8q8 0 10 -8.5t2 -41.5v-454q0 -62 3 -122q-22 -8 -46 -8q-12 0 -12 18zM202 777q8 -3 19 -15.5t13 -20.5q6 -15 -12 -18q-39 -11 -167 -58q-8 5 -12 16q-5 12 8 20q31 20 84 47.5t67 28.5z" />
    <glyph glyph-name="Icircumflex" unicode="&#xce;" horiz-adv-x="210" 
d="M78 12v482q0 99 -3 126q27 8 46 8q8 0 10 -8.5t2 -41.5v-454q0 -62 3 -122q-22 -8 -46 -8q-12 0 -12 18zM20 665h-1q-12 0 -30 14q51 43 95 96q6 6 13 10q8 3 15 3q51 -57 112 -104q-3 -8 -12.5 -13.5t-16.5 -5.5q-13 0 -20 6q-20 14 -70 63q-29 -33 -65 -62
q-12 -7 -20 -7z" />
    <glyph glyph-name="Idieresis" unicode="&#xcf;" horiz-adv-x="210" 
d="M78 12v482q0 99 -3 126q27 8 46 8q8 0 10 -8.5t2 -41.5v-454q0 -62 3 -122q-22 -8 -46 -8q-12 0 -12 18zM18 743h1q15 0 25 -11t10 -27q0 -19 -10.5 -29.5t-26.5 -10.5t-26.5 9.5t-10.5 28.5q0 17 10.5 28.5t27.5 11.5zM197 743h1q15 0 25 -11t10 -27q0 -19 -10.5 -29.5
t-28.5 -10.5q-14 0 -25 9.5t-11 28.5q0 17 10.5 28.5t28.5 11.5z" />
    <glyph glyph-name="Eth" unicode="&#xd0;" horiz-adv-x="649" 
d="M86 617l46 7q67 8 115 8q92 0 161 -21t107.5 -52t62 -75t30.5 -81t7 -79q0 -160 -110 -255q-95 -79 -247 -79q-85 0 -170 24v287h-92q5 41 45 41h47v152q0 88 -2 123zM143 584v-242h194q-6 -25 -20.5 -33t-43.5 -8h-130v-257q49 -16 119 -16q126 0 209 72.5t83 216.5
q0 125 -76 200t-235 75q-49 0 -100 -8z" />
    <glyph glyph-name="Ntilde" unicode="&#xd1;" horiz-adv-x="660" 
d="M89 575l-32 41v4q21 8 43 8q11 0 22 -17q15 -17 55 -69t105 -137t117 -151q106 -135 136 -184q-5 122 -5 248v277q0 26 18 29q28 4 31 4q-3 -65 -3 -184v-444q-13 -13 -31 -13q-1 0 -4 1t-4 1q-262 344 -308 402q-79 105 -100 136q5 -170 5 -242v-254q0 -19 -4 -24.5
t-15 -8.5q-17 -4 -29 -4q3 60 3 182v399zM293 759h1q29 0 56 -35q22 -27 30 -27q16 0 25 51q3 11 11 11t27 -15q-12 -92 -66 -92q-15 0 -26 9.5t-30 32.5q-19 22 -30 22q-16 0 -30 -49q-2 -11 -9 -11q-6 0 -30 9q16 94 71 94z" />
    <glyph glyph-name="Ograve" unicode="&#xd2;" horiz-adv-x="712" 
d="M355 640h1q138 0 226.5 -92t88.5 -230q0 -65 -19.5 -123.5t-56.5 -106t-98.5 -75.5t-138.5 -28q-67 0 -122 21t-90.5 54t-59.5 75.5t-34.5 84.5t-10.5 83q0 146 85.5 241.5t228.5 95.5zM351 601h-1q-111 0 -179.5 -79t-68.5 -213q0 -130 79 -207.5t181 -77.5
q110 0 179 74.5t69 217.5q0 124 -73.5 204.5t-185.5 80.5zM289 789h1q13 0 60 -27.5t73 -50.5q12 -8 3 -17q-2 -3 -15 -16q-83 46 -157 69q-9 3 -4 9q5 11 17.5 22t21.5 11z" />
    <glyph glyph-name="Oacute" unicode="&#xd3;" horiz-adv-x="712" 
d="M355 640h1q138 0 226.5 -92t88.5 -230q0 -65 -19.5 -123.5t-56.5 -106t-98.5 -75.5t-138.5 -28q-67 0 -122 21t-90.5 54t-59.5 75.5t-34.5 84.5t-10.5 83q0 146 85.5 241.5t228.5 95.5zM351 601h-1q-111 0 -179.5 -79t-68.5 -213q0 -130 79 -207.5t181 -77.5
q110 0 179 74.5t69 217.5q0 124 -73.5 204.5t-185.5 80.5zM450 786q8 -3 19 -15.5t13 -20.5q6 -15 -12 -18q-39 -11 -167 -58q-8 5 -12 16q-5 12 8 20q31 20 84 47.5t67 28.5z" />
    <glyph glyph-name="Ocircumflex" unicode="&#xd4;" horiz-adv-x="712" 
d="M355 640h1q138 0 226.5 -92t88.5 -230q0 -65 -19.5 -123.5t-56.5 -106t-98.5 -75.5t-138.5 -28q-67 0 -122 21t-90.5 54t-59.5 75.5t-34.5 84.5t-10.5 83q0 146 85.5 241.5t228.5 95.5zM351 601h-1q-111 0 -179.5 -79t-68.5 -213q0 -130 79 -207.5t181 -77.5
q110 0 179 74.5t69 217.5q0 124 -73.5 204.5t-185.5 80.5zM271 683h-1q-12 0 -30 14q51 43 95 96q5 6 13 10q8 3 15 3q51 -57 112 -104q-3 -8 -12.5 -13.5t-16.5 -5.5q-12 0 -20 6q-20 14 -70 63q-29 -33 -65 -62q-12 -7 -20 -7z" />
    <glyph glyph-name="Otilde" unicode="&#xd5;" horiz-adv-x="712" 
d="M355 640h1q138 0 226.5 -92t88.5 -230q0 -65 -19.5 -123.5t-56.5 -106t-98.5 -75.5t-138.5 -28q-67 0 -122 21t-90.5 54t-59.5 75.5t-34.5 84.5t-10.5 83q0 146 85.5 241.5t228.5 95.5zM351 601h-1q-111 0 -179.5 -79t-68.5 -213q0 -130 79 -207.5t181 -77.5
q110 0 179 74.5t69 217.5q0 124 -73.5 204.5t-185.5 80.5zM309 791h1q29 0 56 -35q22 -27 30 -27q16 0 25 51q3 11 11 11t27 -15q-12 -92 -66 -92q-15 0 -26 9.5t-30 32.5q-19 22 -30 22q-16 0 -30 -49q-2 -11 -9 -11q-6 0 -30 9q16 94 71 94z" />
    <glyph glyph-name="Odieresis" unicode="&#xd6;" horiz-adv-x="712" 
d="M355 640h1q138 0 226.5 -92t88.5 -230q0 -65 -19.5 -123.5t-56.5 -106t-98.5 -75.5t-138.5 -28q-67 0 -122 21t-90.5 54t-59.5 75.5t-34.5 84.5t-10.5 83q0 146 85.5 241.5t228.5 95.5zM351 601h-1q-111 0 -179.5 -79t-68.5 -213q0 -130 79 -207.5t181 -77.5
q110 0 179 74.5t69 217.5q0 124 -73.5 204.5t-185.5 80.5zM269 763h1q15 0 25 -11t10 -27q0 -19 -10.5 -29.5t-26.5 -10.5t-26.5 9.5t-10.5 28.5q0 17 10.5 28.5t27.5 11.5zM448 763h1q15 0 25 -11t10 -27q0 -19 -10.5 -29.5t-28.5 -10.5q-14 0 -25 9.5t-11 28.5
q0 17 10.5 28.5t28.5 11.5z" />
    <glyph glyph-name="multiply" unicode="&#xd7;" horiz-adv-x="561" 
d="M483 430l-178 -186l163 -172q14 -11 2 -26q-12 -12 -22 -16l-175 186l-172 -186q-8 5 -17 22q-5 13 5 27l157 165l-163 169q-7 7 -1 22q6 13 19 20l175 -182l161 168q14 16 29 7q6 -4 11 -11t6 -7z" />
    <glyph glyph-name="Oslash" unicode="&#xd8;" horiz-adv-x="712" 
d="M620 633l-54 -70q52 -45 78.5 -110t26.5 -135q0 -64 -19 -122t-55.5 -106t-98.5 -76.5t-141 -28.5q-114 0 -191 61l-59 -79q-10 -13 -19 -2q-15 18 -18 25l65 84q-48 46 -71.5 108t-23.5 120q0 146 86.5 242t229.5 96q101 0 178 -52l49 64q14 17 24 8q13 -12 13 -27z
M167 115l338 436q-65 50 -153 50q-110 0 -180.5 -81t-70.5 -212q0 -115 66 -193zM537 523l-340 -438q69 -61 161 -61q112 0 182 74.5t70 220.5q0 129 -73 204z" />
    <glyph glyph-name="Ugrave" unicode="&#xd9;" horiz-adv-x="653" 
d="M130 577v-287q0 -262 198 -262q33 0 58 5t53.5 21.5t46.5 45.5t30 81.5t12 124.5v294q0 20 17 24q12 1 16.5 2t6.5 1.5t11 0.5q-3 -57 -3 -180v-140q0 -84 -17.5 -146t-42.5 -95t-62.5 -52.5t-67 -24.5t-66.5 -5q-53 0 -94.5 14t-77 46.5t-54.5 95t-19 152.5v200
q0 99 -3 127q27 8 43 8q10 0 12.5 -8t2.5 -43zM253 768h1q13 0 60 -27.5t73 -50.5q12 -8 3 -17q-2 -3 -15 -16q-83 46 -157 69q-9 3 -4 9q5 11 17.5 22t21.5 11z" />
    <glyph glyph-name="Uacute" unicode="&#xda;" horiz-adv-x="653" 
d="M130 577v-287q0 -262 198 -262q33 0 58 5t53.5 21.5t46.5 45.5t30 81.5t12 124.5v294q0 20 17 24q12 1 16.5 2t6.5 1.5t11 0.5q-3 -57 -3 -180v-140q0 -84 -17.5 -146t-42.5 -95t-62.5 -52.5t-67 -24.5t-66.5 -5q-53 0 -94.5 14t-77 46.5t-54.5 95t-19 152.5v200
q0 99 -3 127q27 8 43 8q10 0 12.5 -8t2.5 -43zM414 777q8 -3 19 -15.5t13 -20.5q6 -15 -12 -18q-39 -11 -167 -58q-8 5 -12 16q-5 12 8 20q31 20 84 47.5t67 28.5z" />
    <glyph glyph-name="Ucircumflex" unicode="&#xdb;" horiz-adv-x="653" 
d="M130 577v-287q0 -262 198 -262q33 0 58 5t53.5 21.5t46.5 45.5t30 81.5t12 124.5v294q0 20 17 24q12 1 16.5 2t6.5 1.5t11 0.5q-3 -57 -3 -180v-140q0 -84 -17.5 -146t-42.5 -95t-62.5 -52.5t-67 -24.5t-66.5 -5q-53 0 -94.5 14t-77 46.5t-54.5 95t-19 152.5v200
q0 99 -3 127q27 8 43 8q10 0 12.5 -8t2.5 -43zM243 665h-1q-12 0 -30 14q51 43 95 96q5 6 13 10q8 3 15 3q51 -57 112 -104q-3 -8 -12.5 -13.5t-16.5 -5.5q-12 0 -20 6q-20 14 -70 63q-29 -33 -65 -62q-12 -7 -20 -7z" />
    <glyph glyph-name="Udieresis" unicode="&#xdc;" horiz-adv-x="653" 
d="M130 577v-287q0 -262 198 -262q33 0 58 5t53.5 21.5t46.5 45.5t30 81.5t12 124.5v294q0 20 17 24q12 1 16.5 2t6.5 1.5t11 0.5q-3 -57 -3 -180v-140q0 -84 -17.5 -146t-42.5 -95t-62.5 -52.5t-67 -24.5t-66.5 -5q-53 0 -94.5 14t-77 46.5t-54.5 95t-19 152.5v200
q0 99 -3 127q27 8 43 8q10 0 12.5 -8t2.5 -43zM240 743h1q15 0 25 -11t10 -27q0 -19 -10.5 -29.5t-26.5 -10.5t-26.5 9.5t-10.5 28.5q0 17 10.5 28.5t27.5 11.5zM419 743h1q15 0 25 -11t10 -27q0 -19 -10.5 -29.5t-28.5 -10.5q-14 0 -25 9.5t-11 28.5q0 17 10.5 28.5
t28.5 11.5z" />
    <glyph glyph-name="Yacute" unicode="&#xdd;" horiz-adv-x="544" 
d="M244 12v255q0 31 -7 41q-37 56 -109.5 158t-108.5 148v3q24 11 46 11q10 0 40 -42q33 -49 174 -248q26 35 108.5 150.5t97.5 139.5q11 0 30 -7q17 -6 -3 -34q-13 -17 -103.5 -140.5t-99.5 -134.5q-10 -12 -10 -38v-152q0 -60 3 -120q-14 -8 -46 -8q-12 0 -12 18zM384 764
q8 -3 19 -15.5t13 -20.5q6 -15 -12 -18q-39 -11 -167 -58q-8 5 -12 16q-5 12 8 20q31 20 84 47.5t67 28.5z" />
    <glyph glyph-name="Thorn" unicode="&#xde;" horiz-adv-x="445" 
d="M78 12v481q0 99 -3 127q37 8 45 8t10.5 -10.5t2.5 -44.5v-75q30 6 69 6q105 0 159 -53q50 -51 50 -135q0 -52 -19 -92t-49 -61t-61 -31.5t-60 -10.5t-37 7q-14 11 -18 30q26 -2 33 -2q19 -1 40 4t48 19.5t44.5 49t17.5 85.5q0 73 -41.5 112.5t-113.5 38.5q-48 0 -62 -6
v-334q0 -63 3 -123q-14 -8 -41 -8q-17 0 -17 18z" />
    <glyph glyph-name="germandbls" unicode="&#xdf;" horiz-adv-x="486" 
d="M278 686h1q65 0 102.5 -40.5t37.5 -106.5q0 -29 -5 -44q-55 -26 -89 -61.5t-34 -73.5q0 -34 37 -64q30 -24 67 -50q58 -42 58 -105q0 -67 -50 -109.5t-127 -42.5q-62 0 -97 27q0 15 8 26q10 11 23 4q39 -15 71 -15q54 0 86.5 27.5t32.5 70.5q0 27 -8.5 43.5t-35.5 38.5
q-20 15 -54 39q-62 46 -62 105q0 83 125 153q4 12 4 24q0 56 -27 86.5t-74 30.5q-65 0 -101.5 -59t-37.5 -182q-1 -146 2 -406q-13 -8 -40 -8q-14 0 -14 13q1 36 1 376q-50 1 -50 26q19 11 50 21q4 126 60 192q56 64 140 64z" />
    <glyph glyph-name="agrave" unicode="&#xe0;" horiz-adv-x="407" 
d="M381 31l1 -2q2 -21 -11 -31t-34 -10q-30 0 -45.5 21t-14.5 49q-58 -70 -137 -70q-50 0 -79 31.5t-29 71.5q0 18 5 34t15.5 29t21.5 23.5t28 19.5t28.5 15t30.5 12t27 8.5t24 6.5l16 4q36 8 49 10l1 41q0 44 -23.5 75t-70.5 31q-55 0 -110 -45q-10 -6 -19 0.5t-12 22.5
q21 24 63 46t86 22q137 0 137 -165q0 -14 -0.5 -62.5t-1 -81.5t0.5 -72q1 -38 32 -38q10 0 21 4zM88 100v-1q0 -29 21 -47t51 -18q38 0 67 20t44 46q6 10 6 32v84q-30 -6 -50 -10.5t-49 -14.5t-46.5 -21.5t-30.5 -29.5t-13 -40zM126 680h1q8 -1 38.5 -52t45.5 -86
q6 -15 -2 -23q-15 -13 -17 -14q-55 84 -101 136q-10 8 3 20q19 19 32 19z" />
    <glyph glyph-name="aacute" unicode="&#xe1;" horiz-adv-x="407" 
d="M381 31l1 -2q2 -21 -11 -31t-34 -10q-30 0 -45.5 21t-14.5 49q-58 -70 -137 -70q-50 0 -79 31.5t-29 71.5q0 18 5 34t15.5 29t21.5 23.5t28 19.5t28.5 15t30.5 12t27 8.5t24 6.5l16 4q36 8 49 10l1 41q0 44 -23.5 75t-70.5 31q-55 0 -110 -45q-10 -6 -19 0.5t-12 22.5
q21 24 63 46t86 22q137 0 137 -165q0 -14 -0.5 -62.5t-1 -81.5t0.5 -72q1 -38 32 -38q10 0 21 4zM88 100v-1q0 -29 21 -47t51 -18q38 0 67 20t44 46q6 10 6 32v84q-30 -6 -50 -10.5t-49 -14.5t-46.5 -21.5t-30.5 -29.5t-13 -40zM240 678h1q8 0 20 -6t18 -13q8 -7 -3 -19
q-45 -52 -101 -138q-8 4 -19 17q-5 6 5 26q16 35 44 84t35 49z" />
    <glyph glyph-name="acircumflex" unicode="&#xe2;" horiz-adv-x="407" 
d="M381 31l1 -2q2 -21 -11 -31t-34 -10q-30 0 -45.5 21t-14.5 49q-58 -70 -137 -70q-50 0 -79 31.5t-29 71.5q0 18 5 34t15.5 29t21.5 23.5t28 19.5t28.5 15t30.5 12t27 8.5t24 6.5l16 4q36 8 49 10l1 41q0 44 -23.5 75t-70.5 31q-55 0 -110 -45q-10 -6 -19 0.5t-12 22.5
q21 24 63 46t86 22q137 0 137 -165q0 -14 -0.5 -62.5t-1 -81.5t0.5 -72q1 -38 32 -38q10 0 21 4zM88 100v-1q0 -29 21 -47t51 -18q38 0 67 20t44 46q6 10 6 32v84q-30 -6 -50 -10.5t-49 -14.5t-46.5 -21.5t-30.5 -29.5t-13 -40zM122 503h-1q-8 0 -18 4.5t-12 9.5
q13 25 38 69.5t37 68.5q7 15 17 17q14 4 23 4q27 -55 83 -157q-13 -16 -32 -16q-7 0 -13 10q-5 12 -12.5 26.5t-19.5 36.5t-21 40q-5 -9 -25.5 -46.5t-34.5 -63.5q-6 -3 -9 -3z" />
    <glyph glyph-name="atilde" unicode="&#xe3;" horiz-adv-x="407" 
d="M381 31l1 -2q2 -21 -11 -31t-34 -10q-30 0 -45.5 21t-14.5 49q-58 -70 -137 -70q-50 0 -79 31.5t-29 71.5q0 18 5 34t15.5 29t21.5 23.5t28 19.5t28.5 15t30.5 12t27 8.5t24 6.5l16 4q36 8 49 10l1 41q0 44 -23.5 75t-70.5 31q-55 0 -110 -45q-10 -6 -19 0.5t-12 22.5
q21 24 63 46t86 22q137 0 137 -165q0 -14 -0.5 -62.5t-1 -81.5t0.5 -72q1 -38 32 -38q10 0 21 4zM88 100v-1q0 -29 21 -47t51 -18q38 0 67 20t44 46q6 10 6 32v84q-30 -6 -50 -10.5t-49 -14.5t-46.5 -21.5t-30.5 -29.5t-13 -40zM152 631h1q30 0 56 -34q22 -27 30 -27
q18 0 27 51q3 11 11 11q7 0 26 -15q-12 -94 -67 -94q-11 0 -21.5 6.5t-16 12.5t-18.5 22q-19 22 -30 22q-18 0 -32 -48q-2 -11 -8 -11q-7 0 -31 9q15 95 73 95z" />
    <glyph glyph-name="adieresis" unicode="&#xe4;" horiz-adv-x="407" 
d="M381 31l1 -2q2 -21 -11 -31t-34 -10q-30 0 -45.5 21t-14.5 49q-58 -70 -137 -70q-50 0 -79 31.5t-29 71.5q0 18 5 34t15.5 29t21.5 23.5t28 19.5t28.5 15t30.5 12t27 8.5t24 6.5l16 4q36 8 49 10l1 41q0 44 -23.5 75t-70.5 31q-55 0 -110 -45q-10 -6 -19 0.5t-12 22.5
q21 24 63 46t86 22q137 0 137 -165q0 -14 -0.5 -62.5t-1 -81.5t0.5 -72q1 -38 32 -38q10 0 21 4zM88 100v-1q0 -29 21 -47t51 -18q38 0 67 20t44 46q6 10 6 32v84q-30 -6 -50 -10.5t-49 -14.5t-46.5 -21.5t-30.5 -29.5t-13 -40zM117 612h1q14 0 24 -11t10 -26
q0 -19 -10.5 -29.5t-26.5 -10.5q-15 0 -25.5 9.5t-10.5 27.5q0 17 10.5 28.5t27.5 11.5zM270 612h1q15 0 24.5 -11t9.5 -26q0 -19 -10.5 -29.5t-27.5 -10.5q-14 0 -24.5 9.5t-10.5 27.5t10 29t28 11z" />
    <glyph glyph-name="aring" unicode="&#xe5;" horiz-adv-x="407" 
d="M381 31l1 -2q2 -21 -11 -31t-34 -10q-30 0 -45.5 21t-14.5 49q-58 -70 -137 -70q-50 0 -79 31.5t-29 71.5q0 18 5 34t15.5 29t21.5 23.5t28 19.5t28.5 15t30.5 12t27 8.5t24 6.5l16 4q36 8 49 10l1 41q0 44 -23.5 75t-70.5 31q-55 0 -110 -45q-10 -6 -19 0.5t-12 22.5
q21 24 63 46t86 22q137 0 137 -165q0 -14 -0.5 -62.5t-1 -81.5t0.5 -72q1 -38 32 -38q10 0 21 4zM88 100v-1q0 -29 21 -47t51 -18q38 0 67 20t44 46q6 10 6 32v84q-30 -6 -50 -10.5t-49 -14.5t-46.5 -21.5t-30.5 -29.5t-13 -40zM192 660h1q34 0 57 -23t23 -58
q0 -38 -23 -60.5t-61 -22.5q-33 0 -56 22t-23 58t22.5 60t59.5 24zM190 625h-1q-17 0 -27 -14.5t-10 -31.5q0 -19 11.5 -33t28.5 -14q19 0 29 13.5t10 31.5q0 20 -10 34t-31 14z" />
    <glyph glyph-name="ae" unicode="&#xe6;" horiz-adv-x="660" 
d="M607 60l2 -3q-3 -33 -33 -49q-38 -20 -96 -20q-54 0 -100.5 24t-68.5 64q-26 -32 -73 -60t-97 -28q-53 0 -81.5 31t-28.5 73q0 23 10.5 43.5t23 34.5t37.5 27.5t39.5 20t45.5 15.5t38 10.5t33 7.5q10 2 19 5v27q0 51 -25 84t-75 33q-55 0 -99 -40q-25 -21 -37 15
q17 25 60.5 48t89.5 23q50 0 84.5 -29.5t41.5 -68.5q25 43 67 70.5t94 27.5q73 0 113 -46.5t42 -111.5q0 -22 -2 -30q-2 -12 -33.5 -23t-54.5 -12q-70 -5 -215 0q-2 -84 44 -136.5t126 -52.5q62 0 109 26zM467 409h-1q-51 0 -88.5 -43t-46.5 -104q175 -3 219 0q27 2 27 25
q2 53 -27.5 87.5t-82.5 34.5zM157 35h1q77 0 138 72q-20 47 -20 110q-25 -5 -34.5 -7.5t-34.5 -9t-37 -11.5t-31 -15t-28 -20t-16 -24.5t-7 -31.5q0 -26 19 -44.5t50 -18.5z" />
    <glyph glyph-name="ccedilla" unicode="&#xe7;" horiz-adv-x="412" 
d="M186 -85l51 74q-201 21 -201 226q0 103 69 167t163 64q46 0 80.5 -12.5t41.5 -24.5q0 -14 -10 -24q-11 -11 -22 -5q-43 22 -96 22q-75 0 -122 -52t-47 -131q0 -55 18 -94t47.5 -57.5t57.5 -26t59 -7.5q55 0 103 21l2 -3q-3 -30 -23 -42q-11 -7 -35.5 -13.5t-40.5 -6.5
l-29 -43q62 -16 62 -70q0 -36 -35.5 -60.5t-78.5 -31.5q-7 1 -12.5 9.5t-5.5 15.5q0 5 9 8q76 24 76 54q0 39 -81 41v2z" />
    <glyph glyph-name="egrave" unicode="&#xe8;" horiz-adv-x="419" 
d="M365 60l2 -1q-2 -31 -24 -46q-41 -25 -103 -25q-99 0 -152 58.5t-53 160.5t54 170.5t147 68.5q73 0 113 -46.5t42 -111.5q0 -21 -2 -30q-3 -13 -32 -21.5t-56 -9.5q-79 -5 -212 -1q-2 -87 42 -139.5t122 -52.5q30 0 63 8.5t49 17.5zM225 409h-1q-48 0 -84.5 -38.5
t-45.5 -104.5q34 -1 73.5 -1h66t50 0.5t25.5 0.5q27 2 27 21q2 53 -28 87.5t-83 34.5zM165 680h1q8 -1 38.5 -52t45.5 -86q6 -15 -2 -23q-15 -13 -17 -14q-55 84 -101 136q-10 8 3 20q19 19 32 19z" />
    <glyph glyph-name="eacute" unicode="&#xe9;" horiz-adv-x="419" 
d="M365 60l2 -1q-2 -31 -24 -46q-41 -25 -103 -25q-99 0 -152 58.5t-53 160.5t54 170.5t147 68.5q73 0 113 -46.5t42 -111.5q0 -21 -2 -30q-3 -13 -32 -21.5t-56 -9.5q-79 -5 -212 -1q-2 -87 42 -139.5t122 -52.5q30 0 63 8.5t49 17.5zM225 409h-1q-48 0 -84.5 -38.5
t-45.5 -104.5q34 -1 73.5 -1h66t50 0.5t25.5 0.5q27 2 27 21q2 53 -28 87.5t-83 34.5zM267 678h1q8 0 20 -6t18 -13q8 -7 -3 -19q-45 -52 -101 -138q-8 4 -19 17q-5 6 5 26q16 35 44 84t35 49z" />
    <glyph glyph-name="ecircumflex" unicode="&#xea;" horiz-adv-x="419" 
d="M365 60l2 -1q-2 -31 -24 -46q-41 -25 -103 -25q-99 0 -152 58.5t-53 160.5t54 170.5t147 68.5q73 0 113 -46.5t42 -111.5q0 -21 -2 -30q-3 -13 -32 -21.5t-56 -9.5q-79 -5 -212 -1q-2 -87 42 -139.5t122 -52.5q30 0 63 8.5t49 17.5zM225 409h-1q-48 0 -84.5 -38.5
t-45.5 -104.5q34 -1 73.5 -1h66t50 0.5t25.5 0.5q27 2 27 21q2 53 -28 87.5t-83 34.5zM156 503h-1q-8 0 -18 4.5t-12 9.5q13 25 38 69.5t37 68.5q7 15 17 17q14 4 23 4q27 -55 83 -157q-13 -16 -32 -16q-7 0 -13 10q-5 12 -12.5 26.5t-19.5 36.5t-21 40q-5 -9 -25.5 -46.5
t-34.5 -63.5q-6 -3 -9 -3z" />
    <glyph glyph-name="edieresis" unicode="&#xeb;" horiz-adv-x="419" 
d="M365 60l2 -1q-2 -31 -24 -46q-41 -25 -103 -25q-99 0 -152 58.5t-53 160.5t54 170.5t147 68.5q73 0 113 -46.5t42 -111.5q0 -21 -2 -30q-3 -13 -32 -21.5t-56 -9.5q-79 -5 -212 -1q-2 -87 42 -139.5t122 -52.5q30 0 63 8.5t49 17.5zM225 409h-1q-48 0 -84.5 -38.5
t-45.5 -104.5q34 -1 73.5 -1h66t50 0.5t25.5 0.5q27 2 27 21q2 53 -28 87.5t-83 34.5zM150 612h1q14 0 24 -11t10 -26q0 -19 -10.5 -29.5t-26.5 -10.5q-15 0 -25.5 9.5t-10.5 27.5q0 17 10.5 28.5t27.5 11.5zM303 612h1q15 0 24.5 -11t9.5 -26q0 -19 -10.5 -29.5
t-27.5 -10.5q-14 0 -24.5 9.5t-10.5 27.5t10 29t28 11z" />
    <glyph glyph-name="igrave" unicode="&#xec;" horiz-adv-x="198" 
d="M125 379v-355q0 -22 -13 -25q-17 -4 -41 -5q3 120 3 156v168q0 69 -4 113q20 9 44 9q11 0 11 -61zM39 680h1q8 -1 38.5 -52t45.5 -86q6 -15 -2 -23q-15 -13 -17 -14q-55 84 -101 136q-10 8 3 20q19 19 32 19z" />
    <glyph glyph-name="iacute" unicode="&#xed;" horiz-adv-x="198" 
d="M125 379v-355q0 -22 -13 -25q-17 -4 -41 -5q3 120 3 156v168q0 69 -4 113q20 9 44 9q11 0 11 -61zM147 678h1q8 0 20 -6t18 -13q8 -7 -3 -19q-45 -52 -101 -138q-8 4 -19 17q-5 6 5 26q16 35 44 84t35 49z" />
    <glyph glyph-name="icircumflex" unicode="&#xee;" horiz-adv-x="198" 
d="M125 379v-355q0 -22 -13 -25q-17 -4 -41 -5q3 120 3 156v168q0 69 -4 113q20 9 44 9q11 0 11 -61zM31 503h-1q-8 0 -18 4.5t-12 9.5q13 25 38 69.5t37 68.5q7 15 17 17q14 4 23 4q27 -55 83 -157q-13 -16 -32 -16q-7 0 -13 10q-5 12 -12.5 26.5t-19.5 36.5t-21 40
q-5 -9 -25.5 -46.5t-34.5 -63.5q-6 -3 -9 -3z" />
    <glyph glyph-name="idieresis" unicode="&#xef;" horiz-adv-x="198" 
d="M125 379v-355q0 -22 -13 -25q-17 -4 -41 -5q3 120 3 156v168q0 69 -4 113q20 9 44 9q11 0 11 -61zM28 612h1q14 0 24 -11t10 -26q0 -19 -10.5 -29.5t-26.5 -10.5q-15 0 -25.5 9.5t-10.5 27.5q0 17 10.5 28.5t27.5 11.5zM181 612h1q15 0 24.5 -11t9.5 -26
q0 -19 -10.5 -29.5t-27.5 -10.5q-14 0 -24.5 9.5t-10.5 27.5t10 29t28 11z" />
    <glyph glyph-name="eth" unicode="&#xf0;" horiz-adv-x="491" 
d="M423 611l-76 -40q54 -55 82.5 -138t28.5 -179q0 -123 -59.5 -194.5t-153.5 -71.5q-101 0 -155 63t-54 157q0 103 65 170.5t168 67.5q63 0 111 -33q-33 91 -78 136l-140 -69q-14 -7 -14 8q0 20 13 35l110 52q-81 62 -181 73l-1 2q6 10 9 14q9 16 26 16q38 0 97.5 -26
t94.5 -57l113 59q12 6 12 -6q0 -30 -18 -39zM265 408h-1q-75 0 -123 -53t-48 -143q0 -95 48 -140.5t106 -45.5q69 0 112 57t43 172q0 61 -13 106q-20 22 -55 34.5t-69 12.5z" />
    <glyph glyph-name="ntilde" unicode="&#xf1;" horiz-adv-x="500" 
d="M374 5l1 257q1 138 -108 138q-43 0 -80 -25t-59 -56v-298q0 -15 -4 -19.5t-15 -5.5q-6 -1 -19 -1.5t-16 -0.5q3 30 3 187v173q0 56 -15 69v3q5 5 17.5 12t18.5 7q28 0 28 -81q31 35 73 58.5t84 23.5q143 0 143 -180v-154q0 -78 4 -110q-40 -8 -46 -8q-10 0 -10 11z
M205 631h1q30 0 56 -34q22 -27 30 -27q18 0 27 51q3 11 11 11q7 0 26 -15q-12 -94 -67 -94q-11 0 -21.5 6.5t-16 12.5t-18.5 22q-19 22 -30 22q-18 0 -32 -48q-2 -11 -8 -11q-7 0 -31 9q15 95 73 95z" />
    <glyph glyph-name="ograve" unicode="&#xf2;" horiz-adv-x="495" 
d="M252 446h1q99 0 153 -63t54 -163q0 -98 -58 -165t-154 -67q-58 0 -101.5 21t-66.5 55.5t-34 71.5t-11 76q0 98 60.5 166t156.5 68zM246 408h-1q-60 0 -106.5 -48.5t-46.5 -138.5q0 -92 46.5 -143.5t115.5 -51.5q24 0 48 9t48 29t38.5 59.5t14.5 93.5q0 80 -40.5 135.5
t-116.5 55.5zM191 680h1q8 -1 38.5 -52t45.5 -86q6 -15 -2 -23q-15 -13 -17 -14q-55 84 -101 136q-10 8 3 20q19 19 32 19z" />
    <glyph glyph-name="oacute" unicode="&#xf3;" horiz-adv-x="495" 
d="M252 446h1q99 0 153 -63t54 -163q0 -98 -58 -165t-154 -67q-58 0 -101.5 21t-66.5 55.5t-34 71.5t-11 76q0 98 60.5 166t156.5 68zM246 408h-1q-60 0 -106.5 -48.5t-46.5 -138.5q0 -92 46.5 -143.5t115.5 -51.5q24 0 48 9t48 29t38.5 59.5t14.5 93.5q0 80 -40.5 135.5
t-116.5 55.5zM289 678h1q8 0 20 -6t18 -13q8 -7 -3 -19q-45 -52 -101 -138q-8 4 -19 17q-5 6 5 26q16 35 44 84t35 49z" />
    <glyph glyph-name="ocircumflex" unicode="&#xf4;" horiz-adv-x="495" 
d="M252 446h1q99 0 153 -63t54 -163q0 -98 -58 -165t-154 -67q-58 0 -101.5 21t-66.5 55.5t-34 71.5t-11 76q0 98 60.5 166t156.5 68zM246 408h-1q-60 0 -106.5 -48.5t-46.5 -138.5q0 -92 46.5 -143.5t115.5 -51.5q24 0 48 9t48 29t38.5 59.5t14.5 93.5q0 80 -40.5 135.5
t-116.5 55.5zM188 503h-1q-8 0 -18 4.5t-12 9.5q13 25 38 69.5t37 68.5q7 15 17 17q14 4 23 4q27 -55 83 -157q-13 -16 -32 -16q-7 0 -13 10q-5 12 -12.5 26.5t-19.5 36.5t-21 40q-5 -9 -25.5 -46.5t-34.5 -63.5q-6 -3 -9 -3z" />
    <glyph glyph-name="otilde" unicode="&#xf5;" horiz-adv-x="495" 
d="M252 446h1q99 0 153 -63t54 -163q0 -98 -58 -165t-154 -67q-58 0 -101.5 21t-66.5 55.5t-34 71.5t-11 76q0 98 60.5 166t156.5 68zM246 408h-1q-60 0 -106.5 -48.5t-46.5 -138.5q0 -92 46.5 -143.5t115.5 -51.5q24 0 48 9t48 29t38.5 59.5t14.5 93.5q0 80 -40.5 135.5
t-116.5 55.5zM202 631h1q30 0 56 -34q22 -27 30 -27q18 0 27 51q3 11 11 11q7 0 26 -15q-12 -94 -67 -94q-11 0 -21.5 6.5t-16 12.5t-18.5 22q-19 22 -30 22q-18 0 -32 -48q-2 -11 -8 -11q-7 0 -31 9q15 95 73 95z" />
    <glyph glyph-name="odieresis" unicode="&#xf6;" horiz-adv-x="495" 
d="M252 446h1q99 0 153 -63t54 -163q0 -98 -58 -165t-154 -67q-58 0 -101.5 21t-66.5 55.5t-34 71.5t-11 76q0 98 60.5 166t156.5 68zM246 408h-1q-60 0 -106.5 -48.5t-46.5 -138.5q0 -92 46.5 -143.5t115.5 -51.5q24 0 48 9t48 29t38.5 59.5t14.5 93.5q0 80 -40.5 135.5
t-116.5 55.5zM167 612h1q14 0 24 -11t10 -26q0 -19 -10.5 -29.5t-26.5 -10.5q-15 0 -25.5 9.5t-10.5 27.5q0 17 10.5 28.5t27.5 11.5zM320 612h1q15 0 24.5 -11t9.5 -26q0 -19 -10.5 -29.5t-27.5 -10.5q-14 0 -24.5 9.5t-10.5 27.5t10 29t28 11z" />
    <glyph glyph-name="divide" unicode="&#xf7;" horiz-adv-x="561" 
d="M278 349h-1q-12 0 -23 11.5t-11 26.5t11 26t25 11q16 0 27 -11t11 -26q0 -16 -11 -27t-28 -11zM469 224h-409q1 16 8 28t19 12h414q-1 -40 -32 -40zM279 139h1q14 0 24.5 -11.5t10.5 -25.5q0 -15 -11 -26.5t-25 -11.5q-15 0 -25.5 11.5t-10.5 26.5t10.5 26t25.5 11z" />
    <glyph glyph-name="oslash" unicode="&#xf8;" horiz-adv-x="510" 
d="M433 427l-28 -36q69 -64 69 -173q0 -97 -60 -163.5t-155 -66.5q-78 0 -125 32q-18 -24 -28 -36q-11 -17 -22 -5q-13 20 -14 22q21 27 33 43q-68 65 -68 170q0 98 62.5 165t159.5 67q65 0 118 -32q16 22 24 32q13 17 21 7q10 -12 13 -26zM133 84l214 294q-39 31 -95 31
q-64 0 -113 -49.5t-49 -142.5q0 -82 43 -133zM376 352l-215 -294q38 -34 99 -34q26 0 51.5 9.5t51 30.5t41 61t15.5 93q0 89 -43 134z" />
    <glyph glyph-name="ugrave" unicode="&#xf9;" horiz-adv-x="497" 
d="M74 149v169q0 69 -4 113q20 9 44 9q10 0 10 -61q1 -66 1 -199q0 -47 10 -77.5t28 -44t35 -18t40 -4.5q41 0 77 22.5t51 47.5v299q0 25 12 29q24 6 42 6q0 -3 -1.5 -65t-1.5 -113v-168q0 -40 8.5 -54t32.5 -17v-4q-1 -9 -11 -20t-22 -11q-24 0 -39 21t-16 56
q-34 -40 -89 -64q-30 -13 -65 -13q-70 0 -106 43t-36 118zM187 680h1q8 -1 38.5 -52t45.5 -86q6 -15 -2 -23q-15 -13 -17 -14q-55 84 -101 136q-10 8 3 20q19 19 32 19z" />
    <glyph glyph-name="uacute" unicode="&#xfa;" horiz-adv-x="497" 
d="M74 149v169q0 69 -4 113q20 9 44 9q10 0 10 -61q1 -66 1 -199q0 -47 10 -77.5t28 -44t35 -18t40 -4.5q41 0 77 22.5t51 47.5v299q0 25 12 29q24 6 42 6q0 -3 -1.5 -65t-1.5 -113v-168q0 -40 8.5 -54t32.5 -17v-4q-1 -9 -11 -20t-22 -11q-24 0 -39 21t-16 56
q-34 -40 -89 -64q-30 -13 -65 -13q-70 0 -106 43t-36 118zM292 678h1q8 0 20 -6t18 -13q8 -7 -3 -19q-45 -52 -101 -138q-8 4 -19 17q-5 6 5 26q16 35 44 84t35 49z" />
    <glyph glyph-name="ucircumflex" unicode="&#xfb;" horiz-adv-x="497" 
d="M74 149v169q0 69 -4 113q20 9 44 9q10 0 10 -61q1 -66 1 -199q0 -47 10 -77.5t28 -44t35 -18t40 -4.5q41 0 77 22.5t51 47.5v299q0 25 12 29q24 6 42 6q0 -3 -1.5 -65t-1.5 -113v-168q0 -40 8.5 -54t32.5 -17v-4q-1 -9 -11 -20t-22 -11q-24 0 -39 21t-16 56
q-34 -40 -89 -64q-30 -13 -65 -13q-70 0 -106 43t-36 118zM178 503h-1q-8 0 -18 4.5t-12 9.5q13 25 38 69.5t37 68.5q7 15 17 17q14 4 23 4q27 -55 83 -157q-13 -16 -32 -16q-7 0 -13 10q-5 12 -12.5 26.5t-19.5 36.5t-21 40q-5 -9 -25.5 -46.5t-34.5 -63.5q-6 -3 -9 -3z
" />
    <glyph glyph-name="udieresis" unicode="&#xfc;" horiz-adv-x="497" 
d="M74 149v169q0 69 -4 113q20 9 44 9q10 0 10 -61q1 -66 1 -199q0 -47 10 -77.5t28 -44t35 -18t40 -4.5q41 0 77 22.5t51 47.5v299q0 25 12 29q24 6 42 6q0 -3 -1.5 -65t-1.5 -113v-168q0 -40 8.5 -54t32.5 -17v-4q-1 -9 -11 -20t-22 -11q-24 0 -39 21t-16 56
q-34 -40 -89 -64q-30 -13 -65 -13q-70 0 -106 43t-36 118zM167 612h1q14 0 24 -11t10 -26q0 -19 -10.5 -29.5t-26.5 -10.5q-15 0 -25.5 9.5t-10.5 27.5q0 17 10.5 28.5t27.5 11.5zM320 612h1q15 0 24.5 -11t9.5 -26q0 -19 -10.5 -29.5t-27.5 -10.5q-14 0 -24.5 9.5
t-10.5 27.5t10 29t28 11z" />
    <glyph glyph-name="yacute" unicode="&#xfd;" horiz-adv-x="406" 
d="M45 -205v2q84 109 141 224q-5 6 -22 46q-83 234 -142 360q24 19 41 19q11 0 15 -10q13 -30 68.5 -180.5t67.5 -180.5q32 65 73.5 182.5t59.5 188.5q25 2 36 -7q10 -9 3 -31q-64 -197 -114 -312q-31 -71 -74 -147.5t-74.5 -122t-39.5 -45.5q-25 0 -39 14zM260 678h1
q8 0 20 -6t18 -13q8 -7 -3 -19q-45 -52 -101 -138q-8 4 -19 17q-5 6 5 26q16 35 44 84t35 49z" />
    <glyph glyph-name="thorn" unicode="&#xfe;" horiz-adv-x="503" 
d="M127 19v-208q0 -11 -3 -14.5t-14 -7.5q-19 -3 -37 -3q3 28 3 186v390v194q0 74 -4 114q26 10 45 10q11 0 11 -65v-238q86 69 159 69q74 0 127 -52.5t53 -163.5q0 -101 -66.5 -171.5t-168.5 -70.5q-57 0 -105 31zM127 334v-274q48 -31 106 -31q18 0 37 3.5t45.5 16.5
t46 34t34 61t14.5 93q0 60 -36.5 109.5t-102.5 49.5q-79 0 -144 -62z" />
    <glyph glyph-name="ydieresis" unicode="&#xff;" horiz-adv-x="406" 
d="M45 -205v2q84 109 141 224q-5 6 -22 46q-83 234 -142 360q24 19 41 19q11 0 15 -10q13 -30 68.5 -180.5t67.5 -180.5q32 65 73.5 182.5t59.5 188.5q25 2 36 -7q10 -9 3 -31q-64 -197 -114 -312q-31 -71 -74 -147.5t-74.5 -122t-39.5 -45.5q-25 0 -39 14zM138 612h1
q14 0 24 -11t10 -26q0 -19 -10.5 -29.5t-26.5 -10.5q-15 0 -25.5 9.5t-10.5 27.5q0 17 10.5 28.5t27.5 11.5zM291 612h1q15 0 24.5 -11t9.5 -26q0 -19 -10.5 -29.5t-27.5 -10.5q-14 0 -24.5 9.5t-10.5 27.5t10 29t28 11z" />
    <glyph glyph-name="Amacron" unicode="&#x100;" horiz-adv-x="616" 
d="M439 216h-273q-71 -159 -98 -212q-5 -10 -17 -10q-19 0 -35 11l1 6q41 81 138 292.5t128 281.5l-15 34q20 9 35 9q17 0 23 -15q171 -392 187 -426t34.5 -75.5t30 -65.5t18.5 -37v-5q-27 -10 -43 -10q-8 0 -14 6t-13 22q-19 42 -87 194zM184 258h238q-85 201 -117 274
q-17 -38 -121 -274zM394 680h-174q-12 0 -12 12q0 22 14 32h178q11 0 11 -7q0 -5 -6 -18t-11 -19z" />
    <glyph glyph-name="amacron" unicode="&#x101;" horiz-adv-x="407" 
d="M381 31l1 -2q2 -21 -11 -31t-34 -10q-30 0 -45.5 21t-14.5 49q-58 -70 -137 -70q-50 0 -79 31.5t-29 71.5q0 18 5 34t15.5 29t21.5 23.5t28 19.5t28.5 15t30.5 12t27 8.5t24 6.5l16 4q36 8 49 10l1 41q0 44 -23.5 75t-70.5 31q-55 0 -110 -45q-10 -6 -19 0.5t-12 22.5
q21 24 63 46t86 22q137 0 137 -165q0 -14 -0.5 -62.5t-1 -81.5t0.5 -72q1 -38 32 -38q10 0 21 4zM88 100v-1q0 -29 21 -47t51 -18q38 0 67 20t44 46q6 10 6 32v84q-30 -6 -50 -10.5t-49 -14.5t-46.5 -21.5t-30.5 -29.5t-13 -40zM278 545h-172q-12 0 -12 11q0 9 5 20t9 14
h176q11 0 11 -7q0 -5 -6 -18.5t-11 -19.5z" />
    <glyph glyph-name="Abreve" unicode="&#x102;" horiz-adv-x="616" 
d="M439 216h-273q-71 -159 -98 -212q-5 -10 -17 -10q-19 0 -35 11l1 6q41 81 138 292.5t128 281.5l-15 34q20 9 35 9q17 0 23 -15q171 -392 187 -426t34.5 -75.5t30 -65.5t18.5 -37v-5q-27 -10 -43 -10q-8 0 -14 6t-13 22q-19 42 -87 194zM184 258h238q-85 201 -117 274
q-17 -38 -121 -274zM232 782h1q9 0 11 -13q16 -57 61 -57q23 0 39 12t31 46q5 12 13 12t18 -5t9 -12q-7 -49 -37 -74.5t-75 -25.5t-73 30.5t-27 67.5q0 9 9.5 14t19.5 5z" />
    <glyph glyph-name="abreve" unicode="&#x103;" horiz-adv-x="407" 
d="M381 31l1 -2q2 -21 -11 -31t-34 -10q-30 0 -45.5 21t-14.5 49q-58 -70 -137 -70q-50 0 -79 31.5t-29 71.5q0 18 5 34t15.5 29t21.5 23.5t28 19.5t28.5 15t30.5 12t27 8.5t24 6.5l16 4q36 8 49 10l1 41q0 44 -23.5 75t-70.5 31q-55 0 -110 -45q-10 -6 -19 0.5t-12 22.5
q21 24 63 46t86 22q137 0 137 -165q0 -14 -0.5 -62.5t-1 -81.5t0.5 -72q1 -38 32 -38q10 0 21 4zM88 100v-1q0 -29 21 -47t51 -18q38 0 67 20t44 46q6 10 6 32v84q-30 -6 -50 -10.5t-49 -14.5t-46.5 -21.5t-30.5 -29.5t-13 -40zM126 651h1q7 0 7 -9q9 -80 51 -80q50 0 62 81
q2 8 10 8q10 0 19 -5.5t8 -13.5q-12 -115 -102 -115q-40 0 -64.5 29.5t-24.5 80.5q0 24 33 24z" />
    <glyph glyph-name="Aogonek" unicode="&#x104;" horiz-adv-x="616" 
d="M444 210h-278q-92 -196 -97 -205q-5 -10 -17 -10q-19 0 -35 11l1 5q116 233 271 574l-15 34q20 9 35 9q17 0 23 -15q170 -398 183 -426q16 -34 34 -74.5t29 -65t18 -37.5v-5q-42 -29 -69.5 -67t-27.5 -75q0 -50 51 -50q27 0 59 14l3 -3q0 -20 -10 -36q-29 -25 -77 -25
q-36 0 -59.5 23t-23.5 62t27 80.5t71 71.5q-6 5 -14 22q-74 170 -82 188zM185 252h243q-87 210 -118 280q-85 -189 -125 -280z" />
    <glyph glyph-name="aogonek" unicode="&#x105;" horiz-adv-x="407" 
d="M381 31l-1 -18q-4 -11 -22 -27q-76 -58 -76 -123q0 -21 12 -35t37 -14q30 0 60 13l3 -2q0 -22 -10 -36q-27 -25 -77 -25q-36 0 -59 22.5t-23 62.5q0 76 92 142q-19 8 -29.5 26.5t-10.5 40.5q-64 -70 -137 -70q-50 0 -79 31.5t-29 71.5q0 18 5 34t15.5 29t21.5 23.5
t27.5 19.5t29 15t30.5 11.5t26.5 8t24 6.5t16.5 4q11 3 29.5 7t19.5 4l1 40q0 44 -23.5 75.5t-70.5 31.5q-57 0 -110 -45q-10 -7 -19 0t-12 23q21 24 63 46t86 22q137 0 137 -165l-1 -103q-2 -103 0 -113q1 -38 32 -38q10 0 21 4zM88 100v-1q0 -29 20.5 -47t50.5 -18
q38 0 68 20.5t44 45.5q6 10 6 32v84q-30 -6 -50 -10.5t-49 -14.5t-46.5 -21.5t-30.5 -29.5t-13 -40z" />
    <glyph glyph-name="Cacute" unicode="&#x106;" horiz-adv-x="579" 
d="M545 63l2 -3q-2 -29 -27 -44q-17 -12 -58 -21.5t-89 -9.5q-161 0 -246.5 88t-85.5 236q0 147 96.5 239t243.5 92q63 0 113 -16.5t64 -33.5q-2 -17 -12.5 -25t-18.5 -6q-67 36 -151 36q-115 0 -194.5 -74.5t-79.5 -207.5q0 -129 75.5 -206.5t213.5 -77.5q86 0 154 34z
M447 790q8 -3 19 -15.5t13 -20.5q6 -15 -12 -18q-39 -11 -167 -58q-8 5 -12 16q-5 12 8 20q31 20 84 47.5t67 28.5z" />
    <glyph glyph-name="cacute" unicode="&#x107;" horiz-adv-x="412" 
d="M379 54l2 -2q-4 -31 -20 -40q-38 -24 -102 -24q-27 0 -52.5 4t-58 18t-56 37.5t-40 66.5t-16.5 100q0 101 67 166.5t167 65.5q44 0 78 -12.5t42 -23.5q0 -15 -8.5 -25t-19.5 -7q-46 24 -101 24q-75 0 -121.5 -53t-46.5 -132q0 -54 18 -92.5t47 -57t57.5 -26.5t57.5 -8
q59 0 106 21zM293 678h1q8 0 20 -6t18 -13q8 -7 -3 -19q-45 -52 -101 -138q-8 4 -19 17q-5 6 5 26q16 35 44 84t35 49z" />
    <glyph glyph-name="Ccircumflex" unicode="&#x108;" horiz-adv-x="579" 
d="M545 63l2 -3q-2 -29 -27 -44q-17 -12 -58 -21.5t-89 -9.5q-161 0 -246.5 88t-85.5 236q0 147 96.5 239t243.5 92q63 0 113 -16.5t64 -33.5q-2 -17 -12.5 -25t-18.5 -6q-67 36 -151 36q-115 0 -194.5 -74.5t-79.5 -207.5q0 -129 75.5 -206.5t213.5 -77.5q86 0 154 34z
M270 680h-1q-12 0 -30 14q51 43 95 96q6 6 13 10q8 3 15 3q51 -57 112 -104q-3 -8 -12.5 -13.5t-16.5 -5.5q-13 0 -20 6q-20 14 -70 63q-29 -33 -65 -62q-12 -7 -20 -7z" />
    <glyph glyph-name="ccircumflex" unicode="&#x109;" horiz-adv-x="412" 
d="M379 54l2 -2q-4 -31 -20 -40q-38 -24 -102 -24q-27 0 -52.5 4t-58 18t-56 37.5t-40 66.5t-16.5 100q0 101 67 166.5t167 65.5q44 0 78 -12.5t42 -23.5q0 -15 -8.5 -25t-19.5 -7q-46 24 -101 24q-75 0 -121.5 -53t-46.5 -132q0 -54 18 -92.5t47 -57t57.5 -26.5t57.5 -8
q59 0 106 21zM178 503h-1q-8 0 -18 4.5t-12 9.5q13 25 38 69.5t37 68.5q7 15 17 17q14 4 23 4q27 -55 83 -157q-13 -16 -32 -16q-7 0 -13 10q-5 12 -12.5 26.5t-19.5 36.5t-21 40q-5 -9 -25.5 -46.5t-34.5 -63.5q-6 -3 -9 -3z" />
    <glyph glyph-name="Cdotaccent" unicode="&#x10a;" horiz-adv-x="579" 
d="M545 63l2 -3q-2 -29 -27 -44q-17 -12 -58 -21.5t-89 -9.5q-161 0 -246.5 88t-85.5 236q0 147 96.5 239t243.5 92q63 0 113 -16.5t64 -33.5q-2 -17 -12.5 -25t-18.5 -6q-67 36 -151 36q-115 0 -194.5 -74.5t-79.5 -207.5q0 -129 75.5 -206.5t213.5 -77.5q86 0 154 34z
M357 755h1q15 0 25 -11t10 -27q0 -19 -10.5 -29.5t-26.5 -10.5t-26.5 9.5t-10.5 28.5q0 17 10.5 28.5t27.5 11.5z" />
    <glyph glyph-name="cdotaccent" unicode="&#x10b;" horiz-adv-x="412" 
d="M379 54l2 -2q-4 -31 -20 -40q-38 -24 -102 -24q-27 0 -52.5 4t-58 18t-56 37.5t-40 66.5t-16.5 100q0 101 67 166.5t167 65.5q44 0 78 -12.5t42 -23.5q0 -15 -8.5 -25t-19.5 -7q-46 24 -101 24q-75 0 -121.5 -53t-46.5 -132q0 -54 18 -92.5t47 -57t57.5 -26.5t57.5 -8
q59 0 106 21zM249 612h1q15 0 24.5 -11t9.5 -26q0 -19 -10.5 -29.5t-26.5 -10.5q-15 0 -25.5 9.5t-10.5 27.5q0 17 10.5 28.5t27.5 11.5z" />
    <glyph glyph-name="Ccaron" unicode="&#x10c;" horiz-adv-x="579" 
d="M545 63l2 -3q-2 -29 -27 -44q-17 -12 -58 -21.5t-89 -9.5q-161 0 -246.5 88t-85.5 236q0 147 96.5 239t243.5 92q63 0 113 -16.5t64 -33.5q-2 -17 -12.5 -25t-18.5 -6q-67 36 -151 36q-115 0 -194.5 -74.5t-79.5 -207.5q0 -129 75.5 -206.5t213.5 -77.5q86 0 154 34z
M440 794h1q12 0 28 -14q-50 -40 -92 -90q-6 -5 -13 -10q-7 -3 -15 -3q-52 59 -104 99q3 7 12 12.5t16 5.5q11 0 18 -5q22 -18 67 -60q28 31 63 59q12 6 19 6z" />
    <glyph glyph-name="ccaron" unicode="&#x10d;" horiz-adv-x="412" 
d="M379 54l2 -2q-4 -31 -20 -40q-38 -24 -102 -24q-27 0 -52.5 4t-58 18t-56 37.5t-40 66.5t-16.5 100q0 101 67 166.5t167 65.5q44 0 78 -12.5t42 -23.5q0 -15 -8.5 -25t-19.5 -7q-46 24 -101 24q-75 0 -121.5 -53t-46.5 -132q0 -54 18 -92.5t47 -57t57.5 -26.5t57.5 -8
q59 0 106 21zM315 676h1q8 0 17.5 -4t11.5 -10q-11 -22 -37 -67.5t-38 -71.5q-9 -14 -17 -16q-14 -4 -23 -4q-6 12 -83 158q15 15 32 15q8 0 13 -10q8 -17 55 -105q10 19 31 58.5t27 51.5q7 5 10 5z" />
    <glyph glyph-name="Dcaron" unicode="&#x10e;" horiz-adv-x="638" 
d="M78 13v482q0 88 -2 120q8 4 63.5 9.5t93.5 5.5q92 0 161.5 -21t108.5 -52t62.5 -74.5t31 -81t7.5 -79.5q0 -157 -100 -244.5t-260 -87.5q-81 0 -166 23zM133 582v-541q37 -12 116 -12q129 0 211.5 71t82.5 218q0 123 -77.5 197t-236.5 74q-57 0 -96 -7zM369 784h1
q12 0 28 -14q-50 -40 -92 -90q-6 -6 -13 -10q-7 -3 -15 -3q-52 59 -104 99q3 7 12 12.5t16 5.5q11 0 18 -5q22 -18 67 -60q28 31 63 59q12 6 19 6z" />
    <glyph glyph-name="dcaron" unicode="&#x10f;" horiz-adv-x="503" 
d="M374 428v151q0 31 -3 91q32 10 42 10q5 0 7 -3.5t3.5 -18t1.5 -43.5v-522q0 -39 9.5 -53t35.5 -17v-3q-3 -13 -12.5 -22.5t-20.5 -9.5q-26 0 -41 17.5t-17 43.5q-32 -27 -75 -44t-78 -17q-78 0 -134 56t-56 162q0 104 70 172t176 68q18 0 34.5 -2.5t25 -5t20 -6.5
t12.5 -4zM374 82v304q-33 20 -98 20q-73 0 -128 -50.5t-55 -146.5q0 -77 44.5 -125t112.5 -48q71 0 124 46zM544 695h1q12 0 20.5 -18t8.5 -37q0 -38 -22.5 -75.5t-50.5 -56.5q-16 -9 -44 -8q57 69 57 133q0 19 -12 43q23 19 42 19z" />
    <glyph glyph-name="Dcroat" unicode="&#x110;" horiz-adv-x="649" 
d="M86 617l46 7q67 8 115 8q92 0 161 -21t107.5 -52t62 -75t30.5 -81t7 -79q0 -160 -110 -255q-95 -79 -247 -79q-85 0 -170 24v287h-92q5 41 45 41h47v152q0 88 -2 123zM143 584v-242h194q-6 -25 -20.5 -33t-43.5 -8h-130v-257q49 -16 119 -16q126 0 209 72.5t83 216.5
q0 125 -76 200t-235 75q-49 0 -100 -8z" />
    <glyph glyph-name="dcroat" unicode="&#x111;" horiz-adv-x="503" 
d="M374 427v111h-119q6 38 45 38h74q0 56 -3 94q32 10 42 10q5 0 7 -3.5t3.5 -18t1.5 -43.5v-39h82q-5 -25 -18 -31.5t-43 -6.5h-21v-445q0 -39 9.5 -53t35.5 -17v-3q-2 -12 -11.5 -22t-19.5 -10q-27 0 -42.5 18t-17.5 44q-32 -28 -76 -45t-77 -17q-77 0 -133.5 56.5
t-56.5 158.5q0 107 69.5 175t175.5 68q55 0 93 -19zM374 83v303q-32 20 -97 20q-73 0 -128.5 -50.5t-55.5 -146.5q0 -77 44 -125t112 -48q75 0 125 47z" />
    <glyph glyph-name="Emacron" unicode="&#x112;" horiz-adv-x="429" 
d="M78 22v462q0 92 -2 126q24 10 45 14h264q0 -20 -18 -35q-13 -7 -66 -7h-168v-240h246q-6 -28 -18 -35t-40 -7h-188v-255q24 -9 146 -9q99 0 136 5l2 -2q-13 -36 -40 -41q-24 -4 -107 -4q-138 0 -179 11zM322 685h-174q-12 0 -12 12q0 21 14 32h178q11 0 11 -7
q0 -5 -6 -18t-11 -19z" />
    <glyph glyph-name="emacron" unicode="&#x113;" horiz-adv-x="419" 
d="M365 60l2 -1q-2 -31 -24 -46q-41 -25 -103 -25q-99 0 -152 58.5t-53 160.5t54 170.5t147 68.5q73 0 113 -46.5t42 -111.5q0 -21 -2 -30q-3 -13 -32 -21.5t-56 -9.5q-79 -5 -212 -1q-2 -87 42 -139.5t122 -52.5q30 0 63 8.5t49 17.5zM225 409h-1q-48 0 -84.5 -38.5
t-45.5 -104.5q34 -1 73.5 -1h66t50 0.5t25.5 0.5q27 2 27 21q2 53 -28 87.5t-83 34.5zM302 545h-172q-12 0 -12 11q0 9 5 20t9 14h176q11 0 11 -7q0 -5 -6 -18.5t-11 -19.5z" />
    <glyph glyph-name="Ebreve" unicode="&#x114;" horiz-adv-x="429" 
d="M78 22v462q0 92 -2 126q24 10 45 14h264q0 -20 -18 -35q-13 -7 -66 -7h-168v-240h246q-6 -28 -18 -35t-40 -7h-188v-255q24 -9 146 -9q99 0 136 5l2 -2q-13 -36 -40 -41q-24 -4 -107 -4q-138 0 -179 11zM162 787h1q9 0 11 -13q16 -57 61 -57q23 0 39 12t31 46q5 12 13 12
t18 -5t9 -12q-7 -49 -37 -74.5t-75 -25.5t-73 30.5t-27 67.5q0 9 9.5 14t19.5 5z" />
    <glyph glyph-name="ebreve" unicode="&#x115;" horiz-adv-x="419" 
d="M365 60l2 -1q-2 -31 -24 -46q-41 -25 -103 -25q-99 0 -152 58.5t-53 160.5t54 170.5t147 68.5q73 0 113 -46.5t42 -111.5q0 -21 -2 -30q-3 -13 -32 -21.5t-56 -9.5q-79 -5 -212 -1q-2 -87 42 -139.5t122 -52.5q30 0 63 8.5t49 17.5zM225 409h-1q-48 0 -84.5 -38.5
t-45.5 -104.5q34 -1 73.5 -1h66t50 0.5t25.5 0.5q27 2 27 21q2 53 -28 87.5t-83 34.5zM155 651h1q7 0 7 -9q9 -80 51 -80q50 0 62 81q2 8 10 8q10 0 19 -5.5t8 -13.5q-12 -115 -102 -115q-40 0 -64.5 29.5t-24.5 80.5q0 24 33 24z" />
    <glyph glyph-name="Edotaccent" unicode="&#x116;" horiz-adv-x="429" 
d="M78 22v462q0 92 -2 126q24 10 45 14h264q0 -20 -18 -35q-13 -7 -66 -7h-168v-240h246q-6 -28 -18 -35t-40 -7h-188v-255q24 -9 146 -9q99 0 136 5l2 -2q-13 -36 -40 -41q-24 -4 -107 -4q-138 0 -179 11zM238 745h1q15 0 25 -11t10 -27q0 -19 -10.5 -29.5t-26.5 -10.5
t-26.5 9.5t-10.5 28.5q0 17 10.5 28.5t27.5 11.5z" />
    <glyph glyph-name="edotaccent" unicode="&#x117;" horiz-adv-x="419" 
d="M365 60l2 -1q-2 -31 -24 -46q-41 -25 -103 -25q-99 0 -152 58.5t-53 160.5t54 170.5t147 68.5q73 0 113 -46.5t42 -111.5q0 -21 -2 -30q-3 -13 -32 -21.5t-56 -9.5q-79 -5 -212 -1q-2 -87 42 -139.5t122 -52.5q30 0 63 8.5t49 17.5zM225 409h-1q-48 0 -84.5 -38.5
t-45.5 -104.5q34 -1 73.5 -1h66t50 0.5t25.5 0.5q27 2 27 21q2 53 -28 87.5t-83 34.5zM216 612h1q15 0 24.5 -11t9.5 -26q0 -19 -10.5 -29.5t-26.5 -10.5q-15 0 -25.5 9.5t-10.5 27.5q0 17 10.5 28.5t27.5 11.5z" />
    <glyph glyph-name="Eogonek" unicode="&#x118;" horiz-adv-x="420" 
d="M378 -173l3 -3q0 -20 -10 -36q-27 -25 -77 -25q-35 0 -59 22.5t-24 61.5q0 79 92 147h-42q-126 0 -170 11l-13 16v463q0 92 -2 126q24 10 45 14h255q-4 -22 -20 -35q-10 -7 -66 -7h-157v-240h237q-6 -28 -18.5 -35t-39.5 -7h-179v-255q24 -9 137 -9q98 0 135 5l2 -2
q-12 -36 -39 -41q-1 0 -2.5 -0.5t-3 -0.5t-4 -0.5t-4.5 -0.5q-86 -65 -86 -135q0 -21 13 -34.5t38 -13.5q29 0 59 14z" />
    <glyph glyph-name="eogonek" unicode="&#x119;" horiz-adv-x="419" 
d="M331 -173l3 -2q0 -22 -11 -35q-28 -26 -76 -26q-36 0 -59 21.5t-23 63.5q0 72 92 140q-106 -5 -164 53t-58 165q0 102 53.5 170.5t147.5 68.5q72 0 112.5 -47t42.5 -111q0 -21 -2 -30q-3 -13 -32.5 -21.5t-55.5 -9.5q-79 -5 -212 -1q-3 -87 41.5 -139t124.5 -52
q55 0 110 26l3 -2q-3 -35 -38 -50q-52 -32 -80 -71.5t-28 -74.5q0 -21 12.5 -35t36.5 -14q30 0 60 13zM224 409h-1q-47 0 -84 -38.5t-46 -104.5q34 -1 73.5 -1h66t50 0.5t25.5 0.5q27 2 27 21q2 54 -27.5 88t-83.5 34z" />
    <glyph glyph-name="Ecaron" unicode="&#x11a;" horiz-adv-x="429" 
d="M78 22v462q0 92 -2 126q24 10 45 14h264q0 -20 -18 -35q-13 -7 -66 -7h-168v-240h246q-6 -28 -18 -35t-40 -7h-188v-255q24 -9 146 -9q99 0 136 5l2 -2q-13 -36 -40 -41q-24 -4 -107 -4q-138 0 -179 11zM320 779h1q12 0 28 -14q-50 -40 -92 -90q-6 -5 -13 -10
q-7 -3 -15 -3q-52 59 -104 99q3 7 12 12.5t16 5.5q11 0 18 -5q22 -18 67 -60q28 31 63 59q12 6 19 6z" />
    <glyph glyph-name="ecaron" unicode="&#x11b;" horiz-adv-x="419" 
d="M365 60l2 -1q-2 -31 -24 -46q-41 -25 -103 -25q-99 0 -152 58.5t-53 160.5t54 170.5t147 68.5q73 0 113 -46.5t42 -111.5q0 -21 -2 -30q-3 -13 -32 -21.5t-56 -9.5q-79 -5 -212 -1q-2 -87 42 -139.5t122 -52.5q30 0 63 8.5t49 17.5zM225 409h-1q-48 0 -84.5 -38.5
t-45.5 -104.5q34 -1 73.5 -1h66t50 0.5t25.5 0.5q27 2 27 21q2 53 -28 87.5t-83 34.5zM287 676h1q8 0 17.5 -4t11.5 -10q-11 -22 -37 -67.5t-38 -71.5q-9 -14 -17 -16q-14 -4 -23 -4q-6 12 -83 158q15 15 32 15q8 0 13 -10q8 -17 55 -105q10 19 31 58.5t27 51.5q7 5 10 5z
" />
    <glyph glyph-name="Gcircumflex" unicode="&#x11c;" horiz-adv-x="650" 
d="M532 52v97q0 115 -4 136q27 15 48 15q11 0 11 -27v-232q-35 -23 -61 -32q-62 -24 -137 -24q-72 0 -132.5 18t-110 55t-77.5 101t-28 149q0 148 99.5 240t247.5 92q56 0 103.5 -12.5t66.5 -23.5t28 -20q1 -14 -9.5 -24.5t-22.5 -5.5q-71 42 -173 42q-122 0 -200.5 -78.5
t-78.5 -203.5q0 -77 25.5 -134.5t69 -90t94.5 -48t109 -15.5q34 0 74 7.5t58 18.5zM276 678h-1q-12 0 -30 14q51 43 95 96q6 5 13 10q8 3 15 3q51 -57 112 -104q-3 -8 -12.5 -13.5t-16.5 -5.5q-13 0 -20 6q-20 14 -70 63q-29 -33 -65 -62q-12 -7 -20 -7z" />
    <glyph glyph-name="gcircumflex" unicode="&#x11d;" horiz-adv-x="436" 
d="M206 446h1q37 0 70 -9q53 -14 81 -14q38 0 62 7q2 -8 2 -11q0 -34 -52 -37q-8 -1 -35 -1q24 -42 24 -87q0 -75 -45.5 -116.5t-108.5 -41.5q-31 0 -49 6q-37 -31 -37 -39q0 -32 69 -35q19 -1 46.5 -2t47 -2t34.5 -3q51 -7 77.5 -36.5t26.5 -74.5q0 -74 -64.5 -122
t-151.5 -48q-88 0 -134 39t-46 92q0 29 28.5 60.5t71.5 55.5q-58 22 -62 71q0 6 7 10q30 20 54 46q-76 39 -76 131q0 68 45.5 114.5t113.5 46.5zM205 410h-1q-43 0 -73.5 -32.5t-30.5 -91.5q0 -49 29 -81.5t75 -32.5q51 0 76.5 35t25.5 84q0 51 -25.5 85t-75.5 34zM77 -81
v-1q0 -44 43.5 -69.5t98.5 -25.5q69 0 111 32t42 82q0 67 -78 77q-51 6 -99 4q-30 0 -46 -9q-29 -15 -50.5 -39.5t-21.5 -50.5zM147 503h-1q-8 0 -18 4.5t-12 9.5q13 25 38 69.5t37 68.5q7 15 17 17q14 4 23 4q27 -55 83 -157q-13 -16 -32 -16q-7 0 -13 10q-5 12 -12.5 26.5
t-19.5 36.5t-21 40q-5 -9 -25.5 -46.5t-34.5 -63.5q-6 -3 -9 -3z" />
    <glyph glyph-name="Gbreve" unicode="&#x11e;" horiz-adv-x="650" 
d="M532 52v97q0 115 -4 136q27 15 48 15q11 0 11 -27v-232q-35 -23 -61 -32q-62 -24 -137 -24q-72 0 -132.5 18t-110 55t-77.5 101t-28 149q0 148 99.5 240t247.5 92q56 0 103.5 -12.5t66.5 -23.5t28 -20q1 -14 -9.5 -24.5t-22.5 -5.5q-71 42 -173 42q-122 0 -200.5 -78.5
t-78.5 -203.5q0 -77 25.5 -134.5t69 -90t94.5 -48t109 -15.5q34 0 74 7.5t58 18.5zM285 797h1q9 0 11 -13q16 -57 61 -57q23 0 39 12t31 46q5 12 13 12t18 -5t9 -12q-7 -49 -37 -74.5t-75 -25.5t-73 30.5t-27 67.5q0 9 9.5 14t19.5 5z" />
    <glyph glyph-name="gbreve" unicode="&#x11f;" horiz-adv-x="436" 
d="M206 446h1q37 0 70 -9q53 -14 81 -14q38 0 62 7q2 -8 2 -11q0 -34 -52 -37q-8 -1 -35 -1q24 -42 24 -87q0 -75 -45.5 -116.5t-108.5 -41.5q-31 0 -49 6q-37 -31 -37 -39q0 -32 69 -35q19 -1 46.5 -2t47 -2t34.5 -3q51 -7 77.5 -36.5t26.5 -74.5q0 -74 -64.5 -122
t-151.5 -48q-88 0 -134 39t-46 92q0 29 28.5 60.5t71.5 55.5q-58 22 -62 71q0 6 7 10q30 20 54 46q-76 39 -76 131q0 68 45.5 114.5t113.5 46.5zM205 410h-1q-43 0 -73.5 -32.5t-30.5 -91.5q0 -49 29 -81.5t75 -32.5q51 0 76.5 35t25.5 84q0 51 -25.5 85t-75.5 34zM77 -81
v-1q0 -44 43.5 -69.5t98.5 -25.5q69 0 111 32t42 82q0 67 -78 77q-51 6 -99 4q-30 0 -46 -9q-29 -15 -50.5 -39.5t-21.5 -50.5zM151 651h1q7 0 7 -9q9 -80 51 -80q50 0 62 81q2 8 10 8q10 0 19 -5.5t8 -13.5q-12 -115 -102 -115q-40 0 -64.5 29.5t-24.5 80.5q0 24 33 24z
" />
    <glyph glyph-name="Gdotaccent" unicode="&#x120;" horiz-adv-x="650" 
d="M532 52v97q0 115 -4 136q27 15 48 15q11 0 11 -27v-232q-35 -23 -61 -32q-62 -24 -137 -24q-72 0 -132.5 18t-110 55t-77.5 101t-28 149q0 148 99.5 240t247.5 92q56 0 103.5 -12.5t66.5 -23.5t28 -20q1 -14 -9.5 -24.5t-22.5 -5.5q-71 42 -173 42q-122 0 -200.5 -78.5
t-78.5 -203.5q0 -77 25.5 -134.5t69 -90t94.5 -48t109 -15.5q34 0 74 7.5t58 18.5zM371 755h1q15 0 25 -11t10 -27q0 -19 -10.5 -29.5t-26.5 -10.5t-26.5 9.5t-10.5 28.5q0 17 10.5 28.5t27.5 11.5z" />
    <glyph glyph-name="gdotaccent" unicode="&#x121;" horiz-adv-x="436" 
d="M206 446h1q37 0 70 -9q53 -14 81 -14q38 0 62 7q2 -8 2 -11q0 -34 -52 -37q-8 -1 -35 -1q24 -42 24 -87q0 -75 -45.5 -116.5t-108.5 -41.5q-31 0 -49 6q-37 -31 -37 -39q0 -32 69 -35q19 -1 46.5 -2t47 -2t34.5 -3q51 -7 77.5 -36.5t26.5 -74.5q0 -74 -64.5 -122
t-151.5 -48q-88 0 -134 39t-46 92q0 29 28.5 60.5t71.5 55.5q-58 22 -62 71q0 6 7 10q30 20 54 46q-76 39 -76 131q0 68 45.5 114.5t113.5 46.5zM205 410h-1q-43 0 -73.5 -32.5t-30.5 -91.5q0 -49 29 -81.5t75 -32.5q51 0 76.5 35t25.5 84q0 51 -25.5 85t-75.5 34zM77 -81
v-1q0 -44 43.5 -69.5t98.5 -25.5q69 0 111 32t42 82q0 67 -78 77q-51 6 -99 4q-30 0 -46 -9q-29 -15 -50.5 -39.5t-21.5 -50.5zM221 612h1q15 0 24.5 -11t9.5 -26q0 -19 -10.5 -29.5t-26.5 -10.5q-15 0 -25.5 9.5t-10.5 27.5q0 17 10.5 28.5t27.5 11.5z" />
    <glyph glyph-name="Gcommaaccent" unicode="&#x122;" horiz-adv-x="650" 
d="M532 52v97q0 115 -4 136q27 15 48 15q11 0 11 -27v-232q-35 -23 -61 -32q-62 -24 -137 -24q-72 0 -132.5 18t-110 55t-77.5 101t-28 149q0 148 99.5 240t247.5 92q56 0 103.5 -12.5t66.5 -23.5t28 -20q1 -14 -9.5 -24.5t-22.5 -5.5q-71 42 -173 42q-122 0 -200.5 -78.5
t-78.5 -203.5q0 -77 25.5 -134.5t69 -90t94.5 -48t109 -15.5q34 0 74 7.5t58 18.5zM377 -45h1q12 0 20.5 -18t8.5 -37q0 -38 -22.5 -75.5t-50.5 -56.5q-16 -9 -44 -8q57 69 57 133q0 19 -12 43q23 19 42 19z" />
    <glyph glyph-name="gcommaaccent" unicode="&#x123;" horiz-adv-x="436" 
d="M201 491h-1q-12 0 -20.5 17.5t-8.5 36.5q0 38 22.5 75.5t50.5 56.5q12 10 44 8q-57 -69 -57 -132q0 -21 12 -43q-23 -19 -42 -19zM206 446h1q37 0 70 -9q53 -14 81 -14q38 0 62 7q2 -8 2 -11q0 -34 -52 -37q-8 -1 -35 -1q24 -42 24 -87q0 -75 -45.5 -116.5t-108.5 -41.5
q-31 0 -49 6q-37 -31 -37 -39q0 -32 69 -35q14 -1 62 -3t68 -4q51 -7 77.5 -36.5t26.5 -74.5q0 -74 -65 -122t-153 -48t-135 39t-47 92q0 29 28.5 60.5t71.5 55.5q-56 21 -60 71q0 6 7 10q34 23 54 46q-76 39 -76 131q0 68 45.5 114.5t113.5 46.5zM205 410h-1
q-43 0 -73.5 -32.5t-30.5 -91.5q0 -49 29 -81.5t75 -32.5q51 0 76.5 35t25.5 84q0 51 -25.5 85t-75.5 34zM75 -81v-1q0 -47 44 -72t100 -25q68 0 111.5 33t43.5 83q0 31 -16.5 50.5t-60.5 25.5q-49 7 -104 5q-30 0 -46 -9q-30 -16 -51 -40t-21 -50z" />
    <glyph glyph-name="Hcircumflex" unicode="&#x124;" horiz-adv-x="642" 
d="M133 344h377v256q0 13 3.5 17.5t13.5 6.5q16 4 41 4q-3 -57 -3 -180v-323q0 -63 3 -123q-30 -8 -48 -8q-10 0 -10 14v297q-30 -3 -166 -3h-211v-280q0 -13 -4 -17.5t-16 -6.5q-17 -3 -38 -4q3 60 3 183v316q0 99 -3 127q27 8 43 8q9 0 12 -8.5t3 -41.5v-234zM236 665h-1
q-12 0 -30 14q51 43 95 96q6 6 13 10q8 3 15 3q51 -57 112 -104q-3 -8 -12.5 -13.5t-16.5 -5.5q-13 0 -20 6q-20 14 -70 63q-29 -33 -65 -62q-12 -7 -20 -7z" />
    <glyph glyph-name="hcircumflex" unicode="&#x125;" horiz-adv-x="501" 
d="M125 615v-244q81 75 157 75q145 0 145 -190v-139q0 -102 2 -115q-24 -8 -46 -8q-8 0 -8 13q0 3 0.5 46t0.5 101v96q0 150 -112 150q-44 0 -82 -23.5t-57 -47.5v-310q0 -20 -16 -23q-13 -2 -38 -2q3 30 3 187v375q0 74 -4 114q37 10 44 10q11 0 11 -65zM7 700h-1
q-12 0 -30 14q51 43 95 96q5 6 13 10q8 3 15 3q51 -57 112 -104q-3 -8 -12.5 -13.5t-16.5 -5.5q-13 0 -20 6q-20 14 -70 63q-29 -33 -65 -62q-12 -7 -20 -7z" />
    <glyph glyph-name="Hbar" unicode="&#x126;" horiz-adv-x="642" 
d="M78 428h-62q6 38 45 38h17q0 127 -3 154q27 8 43 8q9 0 12 -8.5t3 -41.5v-112h377v135q0 12 3.5 16.5t13.5 6.5q16 4 41 4q-3 -53 -3 -162h61q-5 -25 -16 -31.5t-39 -6.5h-6v-303q0 -63 3 -123q-30 -8 -48 -8q-10 0 -10 14v272q-30 -3 -166 -3h-211v-255q0 -13 -4 -17.5
t-16 -6.5q-17 -3 -38 -4q3 60 3 183v251zM510 428h-377v-109h377v109z" />
    <glyph glyph-name="hbar" unicode="&#x127;" horiz-adv-x="501" 
d="M125 615v-39h140q-4 -25 -17.5 -31.5t-43.5 -6.5h-79v-168q74 76 158 76q144 0 144 -190v-139q0 -102 2 -115q-24 -8 -46 -8q-8 0 -8 13q0 3 0.5 46.5t0.5 101.5v96q0 149 -111 149q-47 0 -85.5 -24.5t-54.5 -47.5v-309q0 -20 -16 -23q-13 -2 -38 -2q3 30 3 187v357h-63
q6 38 45 38h18q0 58 -4 94q37 10 44 10q11 0 11 -65z" />
    <glyph glyph-name="Itilde" unicode="&#x128;" horiz-adv-x="210" 
d="M78 12v482q0 99 -3 126q27 8 46 8q8 0 10 -8.5t2 -41.5v-454q0 -62 3 -122q-22 -8 -46 -8q-12 0 -12 18zM68 777h1q29 0 56 -35q22 -27 30 -27q16 0 25 51q3 11 11 11t27 -15q-12 -92 -66 -92q-15 0 -26 9.5t-30 32.5q-19 22 -30 22q-16 0 -30 -49q-2 -11 -9 -11
q-6 0 -30 9q16 94 71 94z" />
    <glyph glyph-name="itilde" unicode="&#x129;" horiz-adv-x="198" 
d="M125 379v-355q0 -22 -13 -25q-17 -4 -41 -5q3 120 3 156v168q0 69 -4 113q20 9 44 9q11 0 11 -61zM60 631h1q30 0 56 -34q22 -27 30 -27q18 0 27 51q3 11 11 11q7 0 26 -15q-12 -94 -67 -94q-11 0 -21.5 6.5t-16 12.5t-18.5 22q-19 22 -30 22q-18 0 -32 -48
q-2 -11 -8 -11q-7 0 -31 9q15 95 73 95z" />
    <glyph glyph-name="Imacron" unicode="&#x12a;" horiz-adv-x="210" 
d="M78 12v482q0 99 -3 126q27 8 46 8q8 0 10 -8.5t2 -41.5v-454q0 -62 3 -122q-22 -8 -46 -8q-12 0 -12 18zM191 673h-174q-12 0 -12 12q0 21 14 32h178q11 0 11 -7q0 -5 -6 -18t-11 -19z" />
    <glyph glyph-name="imacron" unicode="&#x12b;" horiz-adv-x="198" 
d="M125 379v-355q0 -22 -13 -25q-17 -4 -41 -5q3 120 3 156v168q0 69 -4 113q20 9 44 9q11 0 11 -61zM183 545h-172q-12 0 -12 11q0 9 5 20t9 14h176q11 0 11 -7q0 -5 -6 -18.5t-11 -19.5z" />
    <glyph glyph-name="Ibreve" unicode="&#x12c;" horiz-adv-x="210" 
d="M78 12v482q0 99 -3 126q27 8 46 8q8 0 10 -8.5t2 -41.5v-454q0 -62 3 -122q-22 -8 -46 -8q-12 0 -12 18zM29 782h1q9 0 11 -13q16 -57 61 -57q23 0 39 12t31 46q5 12 13 12t18 -5t9 -12q-7 -49 -37 -74.5t-75 -25.5t-73 30.5t-27 67.5q0 9 9.5 14t19.5 5z" />
    <glyph glyph-name="ibreve" unicode="&#x12d;" horiz-adv-x="198" 
d="M125 379v-355q0 -22 -13 -25q-17 -4 -41 -5q3 120 3 156v168q0 69 -4 113q20 9 44 9q11 0 11 -61zM36 651h1q7 0 7 -9q9 -80 51 -80q50 0 62 81q2 8 10 8q10 0 19 -5.5t8 -13.5q-12 -115 -102 -115q-40 0 -64.5 29.5t-24.5 80.5q0 24 33 24z" />
    <glyph glyph-name="Iogonek" unicode="&#x12e;" horiz-adv-x="210" 
d="M133 578v-454q0 -62 3 -122q-61 -68 -61 -135q0 -23 13.5 -38.5t38.5 -15.5t59 14l3 -3q0 -21 -11 -36q-27 -25 -76 -25q-37 0 -60.5 23.5t-23.5 65.5q0 70 72 142h-3q-9 1 -9 18v482q0 99 -3 126q27 8 46 8q8 0 10 -8.5t2 -41.5z" />
    <glyph glyph-name="iogonek" unicode="&#x12f;" horiz-adv-x="198" 
d="M99 658h1q14 0 22.5 -10t8.5 -24t-9 -24.5t-23 -10.5q-33 0 -33 34q0 16 10 25.5t23 9.5zM174 -173l3 -3q0 -20 -10 -36q-27 -25 -77 -25q-35 0 -59 24t-24 63q0 68 70 144h-6q3 120 3 156v168q0 69 -4 113q20 9 44 9q11 0 11 -61v-357q0 -16 -8 -22q-53 -66 -53 -132
q0 -23 13 -39t38 -16q29 0 59 14z" />
    <glyph glyph-name="Idotaccent" unicode="&#x130;" horiz-adv-x="210" 
d="M78 12v482q0 99 -3 126q27 8 46 8q8 0 10 -8.5t2 -41.5v-454q0 -62 3 -122q-22 -8 -46 -8q-12 0 -12 18zM107 740h1q15 0 25 -11t10 -27q0 -19 -10.5 -29.5t-26.5 -10.5t-26.5 9.5t-10.5 28.5q0 17 10.5 28.5t27.5 11.5z" />
    <glyph glyph-name="dotlessi" unicode="&#x131;" horiz-adv-x="198" 
d="M125 379v-355q0 -22 -13 -25q-17 -4 -41 -5q3 120 3 156v168q0 69 -4 113q20 9 44 9q11 0 11 -61z" />
    <glyph glyph-name="IJ" unicode="&#x132;" horiz-adv-x="420" 
d="M78 12v482q0 99 -3 126q27 8 46 8q8 0 10 -8.5t2 -41.5v-454q0 -62 3 -122q-22 -8 -46 -8q-12 0 -12 18zM288 145v349q0 99 -3 126q27 8 47 8q8 0 9.5 -7.5t1.5 -41.5v-427q0 -107 -16 -163.5t-57 -89.5q-35 -29 -62 -29q-8 0 -16.5 8t-11.5 18l1 3q38 12 58.5 31.5
t34.5 71.5t14 143z" />
    <glyph glyph-name="ij" unicode="&#x133;" horiz-adv-x="396" 
d="M99 644h1q14 0 23 -10t9 -25q0 -14 -9 -25t-24 -11q-34 0 -34 35q0 16 10.5 26t23.5 10zM125 379v-355q0 -22 -13 -25q-17 -4 -41 -5q3 120 3 156v168q0 69 -4 113q20 9 44 9q11 0 11 -61zM297 643h1q14 0 23 -10.5t9 -25.5t-9 -26t-24 -11q-16 0 -25 10.5t-9 24.5
q0 17 10.5 27.5t23.5 10.5zM180 -201l1 4q46 25 68.5 80t22.5 167v268q0 69 -4 113q19 9 44 9q11 0 11 -61v-326q0 -128 -32 -192q-18 -35 -44 -58t-38 -23q-17 0 -29 19z" />
    <glyph glyph-name="Jcircumflex" unicode="&#x134;" horiz-adv-x="210" 
d="M78 145v349q0 99 -3 126q27 8 47 8q8 0 9.5 -7.5t1.5 -41.5v-427q0 -107 -16 -163.5t-57 -89.5q-35 -29 -62 -29q-8 0 -16.5 8t-11.5 18l1 3q38 12 58.5 31.5t34.5 71.5t14 143zM20 670h-1q-12 0 -30 14q51 43 95 96q6 6 13 10q8 3 15 3q51 -57 112 -104
q-3 -8 -12.5 -13.5t-16.5 -5.5q-13 0 -20 6q-20 14 -70 63q-29 -33 -65 -62q-12 -7 -20 -7z" />
    <glyph glyph-name="jcircumflex" unicode="&#x135;" horiz-adv-x="198" 
d="M-18 -201l1 4q46 25 68.5 80t22.5 167v268q0 69 -4 113q20 9 44 9q11 0 11 -61v-326q0 -128 -32 -192q-18 -35 -44 -58t-38 -23q-17 0 -29 19zM31 503h-1q-8 0 -18 4.5t-12 9.5q13 25 38 69.5t37 68.5q7 15 17 17q14 4 23 4q27 -55 83 -157q-13 -16 -32 -16q-7 0 -13 10
q-5 12 -12.5 26.5t-19.5 36.5t-21 40q-5 -9 -25.5 -46.5t-34.5 -63.5q-6 -3 -9 -3z" />
    <glyph glyph-name="Kcommaaccent" unicode="&#x136;" horiz-adv-x="553" 
d="M78 9v484q0 99 -3 127q37 8 47 8q8 0 9.5 -6.5t1.5 -38.5v-269q52 47 180 169.5t158 151.5q9 0 29 -5q23 -6 -6 -33q-47 -43 -166 -155t-131 -123q68 -70 173.5 -168.5t167.5 -145.5v-2q-18 -11 -48 -11q-20 0 -44 20q-46 41 -165 153.5t-148 143.5v-184q0 -63 3 -123
q-24 -8 -44 -8q-8 0 -11 3t-3 12zM294 -40h1q12 0 20.5 -18t8.5 -37q0 -38 -22.5 -75.5t-50.5 -56.5q-16 -9 -44 -8q57 69 57 133q0 19 -12 43q23 19 42 19z" />
    <glyph glyph-name="kcommaaccent" unicode="&#x137;" horiz-adv-x="433" 
d="M125 615v-383q62 51 232 214q20 0 35 -5q5 -2 6.5 -4t-0.5 -6t-8 -10.5t-19 -19.5q-6 -5 -184 -167q41 -48 123.5 -129.5t113.5 -101.5l-1 -3q-14 -8 -39 -8q-22 0 -47 21q-30 25 -105 101t-107 112v-202q0 -15 -4 -20t-15 -7q-19 -3 -35 -3q3 60 3 182v380q0 67 -4 111
q20 13 44 13q11 0 11 -65zM234 -50h1q12 0 20.5 -18t8.5 -37q0 -38 -22.5 -75.5t-50.5 -56.5q-16 -9 -44 -8q57 69 57 133q0 19 -12 43q23 19 42 19z" />
    <glyph glyph-name="kgreenlandic" unicode="&#x138;" horiz-adv-x="433" 
d="M125 378v-158q34 28 81 72.5t97 94.5t60 59q21 0 36 -5q13 -5 -17 -33l-2 -2q-14 -12 -85.5 -81t-108.5 -101q36 -43 120 -121t118 -100l-1 -3q-14 -8 -39 -8q-24 0 -51 23q-39 33 -110 100.5t-98 99.5v-191q0 -15 -4 -20t-15 -7q-19 -3 -35 -3q3 60 3 182v143
q0 67 -4 111q20 13 44 13q11 0 11 -65z" />
    <glyph glyph-name="Lacute" unicode="&#x139;" horiz-adv-x="417" 
d="M78 22v471q0 99 -3 127q37 8 47 8q11 0 11 -51v-532q24 -9 127 -9q107 0 146 5l1 -2q-4 -34 -37 -41q-24 -4 -107 -4q-123 0 -172 11zM230 782q8 -3 19 -15.5t13 -20.5q6 -15 -12 -18q-39 -11 -167 -58q-8 5 -12 16q-5 12 8 20q31 20 84 47.5t67 28.5z" />
    <glyph glyph-name="lacute" unicode="&#x13a;" horiz-adv-x="198" 
d="M74 7v549q0 74 -4 114q26 10 45 10q4 0 6 -3.5t3 -18t1 -43.5v-483q0 -49 3 -130q-24 -8 -41 -8q-13 0 -13 13zM201 827q8 -3 19 -15.5t13 -20.5q6 -15 -12 -18q-39 -11 -167 -58q-8 5 -12 16q-5 12 8 20q31 20 84 47.5t67 28.5z" />
    <glyph glyph-name="Lcommaaccent" unicode="&#x13b;" horiz-adv-x="417" 
d="M78 22v471q0 99 -3 127q37 8 47 8q11 0 11 -51v-532q24 -9 127 -9q107 0 146 5l1 -2q-4 -34 -37 -41q-24 -4 -107 -4q-123 0 -172 11zM251 -50h1q12 0 20.5 -18t8.5 -37q0 -38 -22.5 -75.5t-50.5 -56.5q-16 -9 -44 -8q57 69 57 133q0 19 -12 43q23 19 42 19z" />
    <glyph glyph-name="lcommaaccent" unicode="&#x13c;" horiz-adv-x="198" 
d="M74 7v549q0 74 -4 114q26 10 45 10q4 0 6 -3.5t3 -18t1 -43.5v-483q0 -49 3 -130q-24 -8 -41 -8q-13 0 -13 13zM111 -50h1q12 0 20.5 -18t8.5 -37q0 -38 -22.5 -75.5t-50.5 -56.5q-16 -9 -44 -8q57 69 57 133q0 19 -12 43q23 19 42 19z" />
    <glyph glyph-name="Lcaron" unicode="&#x13d;" horiz-adv-x="417" 
d="M78 22v471q0 99 -3 127q37 8 47 8q11 0 11 -51v-532q24 -9 127 -9q107 0 146 5l1 -2q-4 -34 -37 -41q-24 -4 -107 -4q-123 0 -172 11zM341 640h1q12 0 20.5 -18t8.5 -37q0 -38 -22.5 -75.5t-50.5 -56.5q-16 -9 -44 -8q57 69 57 133q0 19 -12 43q23 19 42 19z" />
    <glyph glyph-name="lcaron" unicode="&#x13e;" horiz-adv-x="198" 
d="M74 7v549q0 74 -4 114q26 10 45 10q4 0 6 -3.5t3 -18t1 -43.5v-483q0 -49 3 -130q-24 -8 -41 -8q-13 0 -13 13zM244 695h1q12 0 20.5 -18t8.5 -37q0 -38 -22.5 -75.5t-50.5 -56.5q-16 -9 -44 -8q57 69 57 133q0 19 -12 43q23 19 42 19z" />
    <glyph glyph-name="Ldot" unicode="&#x13f;" horiz-adv-x="417" 
d="M78 22v471q0 99 -3 127q37 8 47 8q11 0 11 -51v-532q24 -9 127 -9q107 0 146 5l1 -2q-4 -34 -37 -41q-24 -4 -107 -4q-123 0 -172 11zM291 365h1q15 0 25 -11t10 -27q0 -19 -10.5 -29.5t-26.5 -10.5t-26.5 9.5t-10.5 28.5q0 17 10.5 28.5t27.5 11.5z" />
    <glyph glyph-name="ldot" unicode="&#x140;" horiz-adv-x="227" 
d="M74 7v549q0 74 -4 114q26 10 45 10q4 0 6 -3.5t3 -18t1 -43.5v-483q0 -49 3 -130q-24 -8 -41 -8q-13 0 -13 13zM213 359h1q16 0 26.5 -12.5t10.5 -28.5q0 -20 -11.5 -32t-30.5 -12q-15 0 -27.5 11t-12.5 31q0 18 12 30.5t32 12.5z" />
    <glyph glyph-name="Lslash" unicode="&#x141;" horiz-adv-x="423" 
d="M87 21v256l-59 -43q-11 -8 -13 1q0 33 10 41l62 46v171q0 99 -3 127q37 8 47 8q8 0 9.5 -8t1.5 -42v-221l113 83q11 8 11 -5q0 -24 -12 -44l-112 -80v-266q23 -9 126 -9q106 0 143 5l2 -2q-4 -33 -39 -41q-24 -4 -106 -4q-123 0 -168 10z" />
    <glyph glyph-name="lslash" unicode="&#x142;" horiz-adv-x="206" 
d="M204 396l-68 -50v-214q0 -76 4 -130q-26 -8 -43 -8q-12 0 -12 13v305l-59 -43q-10 -7 -10 3q0 32 9 43l60 42v199q0 74 -4 114q25 10 45 10q4 0 6 -3.5t3 -18t1 -43.5v-222l70 50q10 7 10 -5q0 -25 -12 -42z" />
    <glyph glyph-name="Nacute" unicode="&#x143;" horiz-adv-x="660" 
d="M89 575l-32 41v4q21 8 43 8q11 0 22 -17q15 -17 55 -69t105 -137t117 -151q106 -135 136 -184q-5 122 -5 248v277q0 26 18 29q28 4 31 4q-3 -65 -3 -184v-444q-13 -13 -31 -13q-1 0 -4 1t-4 1q-262 344 -308 402q-79 105 -100 136q5 -170 5 -242v-254q0 -19 -4 -24.5
t-15 -8.5q-17 -4 -29 -4q3 60 3 182v399zM427 772q8 -3 19 -15.5t13 -20.5q6 -15 -12 -18q-39 -11 -167 -58q-8 5 -12 16q-5 12 8 20q31 20 84 47.5t67 28.5z" />
    <glyph glyph-name="nacute" unicode="&#x144;" horiz-adv-x="500" 
d="M374 5l1 257q1 138 -108 138q-43 0 -80 -25t-59 -56v-298q0 -15 -4 -19.5t-15 -5.5q-6 -1 -19 -1.5t-16 -0.5q3 30 3 187v173q0 56 -15 69v3q5 5 17.5 12t18.5 7q28 0 28 -81q31 35 73 58.5t84 23.5q143 0 143 -180v-154q0 -78 4 -110q-40 -8 -46 -8q-10 0 -10 11z
M307 678h1q8 0 20 -6t18 -13q8 -7 -3 -19q-45 -52 -101 -138q-8 4 -19 17q-5 6 5 26q16 35 44 84t35 49z" />
    <glyph glyph-name="Ncommaaccent" unicode="&#x145;" horiz-adv-x="660" 
d="M89 575l-32 41v4q21 8 43 8q11 0 22 -17q15 -17 55 -69t105 -137t117 -151q106 -135 136 -184q-5 122 -5 248v277q0 26 18 29q28 4 31 4q-3 -65 -3 -184v-444q-13 -13 -31 -13q-1 0 -4 1t-4 1q-262 344 -308 402q-79 105 -100 136q5 -170 5 -242v-254q0 -19 -4 -24.5
t-15 -8.5q-17 -4 -29 -4q3 60 3 182v399zM347 -50h1q12 0 20.5 -18t8.5 -37q0 -38 -22.5 -75.5t-50.5 -56.5q-16 -9 -44 -8q57 69 57 133q0 19 -12 43q23 19 42 19z" />
    <glyph glyph-name="ncommaaccent" unicode="&#x146;" horiz-adv-x="500" 
d="M374 5l1 257q1 138 -108 138q-43 0 -80 -25t-59 -56v-298q0 -15 -4 -19.5t-15 -5.5q-6 -1 -19 -1.5t-16 -0.5q3 30 3 187v173q0 56 -15 69v3q5 5 17.5 12t18.5 7q28 0 28 -81q31 35 73 58.5t84 23.5q143 0 143 -180v-154q0 -78 4 -110q-40 -8 -46 -8q-10 0 -10 11z
M267 -50h1q12 0 20.5 -18t8.5 -37q0 -38 -22.5 -75.5t-50.5 -56.5q-16 -9 -44 -8q57 69 57 133q0 19 -12 43q23 19 42 19z" />
    <glyph glyph-name="Ncaron" unicode="&#x147;" horiz-adv-x="660" 
d="M89 575l-32 41v4q21 8 43 8q11 0 22 -17q15 -17 55 -69t105 -137t117 -151q106 -135 136 -184q-5 122 -5 248v277q0 26 18 29q28 4 31 4q-3 -65 -3 -184v-444q-13 -13 -31 -13q-1 0 -4 1t-4 1q-262 344 -308 402q-79 105 -100 136q5 -170 5 -242v-254q0 -19 -4 -24.5
t-15 -8.5q-17 -4 -29 -4q3 60 3 182v399zM415 764h1q12 0 28 -14q-50 -40 -92 -90q-6 -5 -13 -10q-7 -3 -15 -3q-52 59 -104 99q3 7 12 12.5t16 5.5q11 0 18 -5q22 -18 67 -60q28 31 63 59q12 6 19 6z" />
    <glyph glyph-name="ncaron" unicode="&#x148;" horiz-adv-x="500" 
d="M374 5l1 257q1 138 -108 138q-43 0 -80 -25t-59 -56v-298q0 -15 -4 -19.5t-15 -5.5q-6 -1 -19 -1.5t-16 -0.5q3 30 3 187v173q0 56 -15 69v3q5 5 17.5 12t18.5 7q28 0 28 -81q31 35 73 58.5t84 23.5q143 0 143 -180v-154q0 -78 4 -110q-40 -8 -46 -8q-10 0 -10 11z
M316 676h1q8 0 17.5 -4t11.5 -10q-11 -22 -37 -67.5t-38 -71.5q-9 -14 -17 -16q-14 -4 -23 -4q-6 12 -83 158q15 15 32 15q8 0 13 -10q8 -17 55 -105q10 19 31 58.5t27 51.5q8 5 10 5z" />
    <glyph glyph-name="napostrophe" unicode="&#x149;" horiz-adv-x="500" 
d="M374 5l1 257q1 138 -108 138q-43 0 -80 -25t-59 -56v-298q0 -15 -4 -19.5t-15 -5.5q-6 -1 -19 -1.5t-16 -0.5q3 30 3 187v173q0 56 -15 69v3q5 5 17.5 12t18.5 7q28 0 28 -81q31 35 73 58.5t84 23.5q143 0 143 -180v-154q0 -78 4 -110q-40 -8 -46 -8q-10 0 -10 11z
M43 623v-1q0 -36 -18 -82t-35 -66q-16 -19 -46 -18q41 87 41 156q0 23 -2 36q14 20 37 20t23 -45z" />
    <glyph glyph-name="Eng" unicode="&#x14a;" horiz-adv-x="660" 
d="M416 -182l2 5q66 10 88 50.5t22 120.5q-32 42 -139.5 186t-159.5 211q-53 68 -100 136q4 -136 4 -242v-254q0 -19 -4 -24.5t-15 -8.5q-17 -4 -29 -4q3 60 3 182v399l-32 41v4q21 8 44 8q11 0 22 -17q15 -16 55.5 -69.5t104.5 -138.5t117 -152q94 -120 134 -181
q-3 122 -3 248v277q0 26 18 29q28 4 30 4q-3 -65 -3 -184l1 -409q0 -97 -13 -140.5t-52 -74.5q-33 -28 -68 -28q-19 0 -27 26z" />
    <glyph glyph-name="eng" unicode="&#x14b;" horiz-adv-x="498" 
d="M424 270v-217q0 -81 -6.5 -124t-25.5 -78q-19 -34 -47.5 -52.5t-45.5 -18.5q-19 0 -29 23v3q43 14 63 35t29.5 67.5t10.5 139.5v219q0 133 -108 133q-43 0 -79.5 -24.5t-57.5 -57.5v-297q0 -15 -4.5 -19.5t-15.5 -5.5q-6 -2 -17.5 -1.5t-16.5 -0.5q3 30 3 187v173
q0 57 -15 69v3q5 5 17 12t18 7q25 0 29 -81q31 35 71.5 58.5t81.5 23.5q147 0 145 -176z" />
    <glyph glyph-name="Omacron" unicode="&#x14c;" horiz-adv-x="712" 
d="M355 640h1q138 0 226.5 -92t88.5 -230q0 -65 -19.5 -123.5t-56.5 -106t-98.5 -75.5t-138.5 -28q-67 0 -122 21t-90.5 54t-59.5 75.5t-34.5 84.5t-10.5 83q0 146 85.5 241.5t228.5 95.5zM351 601h-1q-111 0 -179.5 -79t-68.5 -213q0 -130 79 -207.5t181 -77.5
q110 0 179 74.5t69 217.5q0 124 -73.5 204.5t-185.5 80.5zM442 698h-174q-12 0 -12 12q0 22 14 32h178q11 0 11 -7q0 -5 -6 -18t-11 -19z" />
    <glyph glyph-name="omacron" unicode="&#x14d;" horiz-adv-x="495" 
d="M252 446h1q99 0 153 -63t54 -163q0 -98 -58 -165t-154 -67q-58 0 -101.5 21t-66.5 55.5t-34 71.5t-11 76q0 98 60.5 166t156.5 68zM246 408h-1q-60 0 -106.5 -48.5t-46.5 -138.5q0 -92 46.5 -143.5t115.5 -51.5q24 0 48 9t48 29t38.5 59.5t14.5 93.5q0 80 -40.5 135.5
t-116.5 55.5zM332 545h-172q-12 0 -12 11q0 9 5 20t9 14h176q11 0 11 -7q0 -5 -6 -18.5t-11 -19.5z" />
    <glyph glyph-name="Obreve" unicode="&#x14e;" horiz-adv-x="712" 
d="M355 640h1q138 0 226.5 -92t88.5 -230q0 -65 -19.5 -123.5t-56.5 -106t-98.5 -75.5t-138.5 -28q-67 0 -122 21t-90.5 54t-59.5 75.5t-34.5 84.5t-10.5 83q0 146 85.5 241.5t228.5 95.5zM351 601h-1q-111 0 -179.5 -79t-68.5 -213q0 -130 79 -207.5t181 -77.5
q110 0 179 74.5t69 217.5q0 124 -73.5 204.5t-185.5 80.5zM280 805h1q9 0 11 -13q16 -57 61 -57q23 0 39 12t31 46q5 12 13 12t18 -5t9 -12q-7 -49 -37 -74.5t-75 -25.5t-73 30.5t-27 67.5q0 9 9.5 14t19.5 5z" />
    <glyph glyph-name="obreve" unicode="&#x14f;" horiz-adv-x="495" 
d="M252 446h1q99 0 153 -63t54 -163q0 -98 -58 -165t-154 -67q-58 0 -101.5 21t-66.5 55.5t-34 71.5t-11 76q0 98 60.5 166t156.5 68zM246 408h-1q-60 0 -106.5 -48.5t-46.5 -138.5q0 -92 46.5 -143.5t115.5 -51.5q24 0 48 9t48 29t38.5 59.5t14.5 93.5q0 80 -40.5 135.5
t-116.5 55.5zM185 651h1q7 0 7 -9q9 -80 51 -80q50 0 62 81q2 8 10 8q10 0 19 -5.5t8 -13.5q-12 -115 -102 -115q-40 0 -64.5 29.5t-24.5 80.5q0 24 33 24z" />
    <glyph glyph-name="Ohungarumlaut" unicode="&#x150;" horiz-adv-x="712" 
d="M355 640h1q138 0 226.5 -92t88.5 -230q0 -65 -19.5 -123.5t-56.5 -106t-98.5 -75.5t-138.5 -28q-67 0 -122 21t-90.5 54t-59.5 75.5t-34.5 84.5t-10.5 83q0 146 85.5 241.5t228.5 95.5zM351 601h-1q-111 0 -179.5 -79t-68.5 -213q0 -130 79 -207.5t181 -77.5
q110 0 179 74.5t69 217.5q0 124 -73.5 204.5t-185.5 80.5zM328 823h1q12 0 35 -21q13 -13 0 -24q-20 -18 -72 -99q-6 -7 -11 -7q-8 0 -23 18q12 36 35 84.5t35 48.5zM481 823h1q17 0 38 -23q10 -12 -1 -23q-27 -27 -72 -99q-5 -6 -10 -6q-8 0 -23 18q47 133 67 133z" />
    <glyph glyph-name="ohungarumlaut" unicode="&#x151;" horiz-adv-x="495" 
d="M252 446h1q99 0 153 -63t54 -163q0 -98 -58 -165t-154 -67q-58 0 -101.5 21t-66.5 55.5t-34 71.5t-11 76q0 98 60.5 166t156.5 68zM246 408h-1q-60 0 -106.5 -48.5t-46.5 -138.5q0 -92 46.5 -143.5t115.5 -51.5q24 0 48 9t48 29t38.5 59.5t14.5 93.5q0 80 -40.5 135.5
t-116.5 55.5zM222 682h1q16 0 32 -21q7 -10 0 -20q-32 -47 -78 -138q-8 0 -23 15q-3 8 1 24q17 48 38 94t29 46zM353 682h1q18 0 32 -21q7 -10 1 -18q-50 -79 -79 -140q-14 6 -20 12q-5 9 -2 23q52 144 67 144z" />
    <glyph glyph-name="OE" unicode="&#x152;" horiz-adv-x="928" 
d="M640 342h237q-6 -27 -17 -34t-42 -7h-178v-257q24 -9 128 -9q106 0 145 5l1 -2q-7 -33 -39 -40q-24 -4 -107 -4q-125 0 -169 11l-13 16v97q-37 -65 -101 -99t-142 -34q-79 0 -140 29t-95 77t-50.5 101.5t-16.5 109.5q0 140 87 239t224 99q79 0 140.5 -31t93.5 -91v94
q16 7 43 12h259q-7 -22 -18 -32q-10 -9 -68 -9h-162v-241zM100 307v-1q0 -122 64 -202t182 -80q49 0 90.5 14.5t77 46.5t55.5 90.5t20 137.5q0 288 -242 288q-97 0 -172 -78.5t-75 -215.5z" />
    <glyph glyph-name="oe" unicode="&#x153;" horiz-adv-x="785" 
d="M734 60l2 -2q-2 -15 -12 -29.5t-22 -21.5q-38 -19 -93 -19q-64 0 -112.5 31t-69.5 88q-53 -119 -181 -119q-57 0 -100 21t-66 55t-34 71.5t-11 77.5q0 98 59 165.5t155 67.5q127 0 181 -121q22 55 67 88t106 33q73 0 113.5 -46.5t42.5 -111.5q0 -21 -2 -30
q-2 -11 -32.5 -20.5t-54.5 -10.5q-106 -4 -214 0q-2 -88 41.5 -140.5t123.5 -52.5q61 0 113 26zM592 410h-1q-50 0 -85 -41t-46 -103q34 -1 74 -1h67t51 0.5t26 0.5q27 2 27 21q2 53 -29 88t-84 35zM246 409h-1q-68 0 -110.5 -52t-42.5 -142t45.5 -140t111.5 -50
q25 0 49.5 8.5t49.5 28t40 60.5t15 99q0 87 -42.5 137.5t-114.5 50.5z" />
    <glyph glyph-name="Racute" unicode="&#x154;" horiz-adv-x="508" 
d="M133 272v-251q0 -21 -15 -24q-26 -3 -43 -3q3 60 3 182v334q0 73 -2 107q65 13 130 13q204 0 204 -174q0 -68 -41.5 -110t-88.5 -60q43 -28 103 -124q82 -130 120 -158l-1 -5q-11 -7 -38 -7q-33 0 -70 57q-68 105 -85 129q-40 58 -64 76t-76 18h-36zM133 585v-275
q97 -4 120 4q43 14 70.5 49t27.5 90q0 73 -42 105t-103 32q-50 0 -73 -5zM323 785q8 -3 19 -15.5t13 -20.5q6 -15 -12 -18q-39 -11 -167 -58q-8 5 -12 16q-5 12 8 20q31 20 84 47.5t67 28.5z" />
    <glyph glyph-name="racute" unicode="&#x155;" horiz-adv-x="299" 
d="M54 419v3q6 6 18 15t18 9q14 0 24 -25t10 -72q24 47 56 72t62 25t44 -16q2 -13 -2 -20q-5 -18 -22 -20q-14 7 -32 7q-22 0 -46.5 -21t-42.5 -61q-13 -31 -13 -59v-237q0 -21 -14 -22q-22 -3 -40 -3q3 20 3 187v164q0 59 -23 74zM211 678h1q8 0 20 -6t18 -13q8 -7 -3 -19
q-45 -52 -101 -138q-8 4 -19 17q-5 6 5 26q16 35 44 84t35 49z" />
    <glyph glyph-name="Rcommaaccent" unicode="&#x156;" horiz-adv-x="508" 
d="M133 272v-251q0 -21 -15 -24q-26 -3 -43 -3q3 60 3 182v334q0 73 -2 107q65 13 130 13q204 0 204 -174q0 -68 -41.5 -110t-88.5 -60q43 -28 103 -124q82 -130 120 -158l-1 -5q-11 -7 -38 -7q-33 0 -70 57q-68 105 -85 129q-40 58 -64 76t-76 18h-36zM133 585v-275
q97 -4 120 4q43 14 70.5 49t27.5 90q0 73 -42 105t-103 32q-50 0 -73 -5zM281 -40h1q12 0 20.5 -18t8.5 -37q0 -38 -22.5 -75.5t-50.5 -56.5q-16 -9 -44 -8q57 69 57 133q0 19 -12 43q23 19 42 19z" />
    <glyph glyph-name="rcommaaccent" unicode="&#x157;" horiz-adv-x="299" 
d="M54 419v3q6 6 18 15t18 9q14 0 24 -25t10 -72q24 47 56 72t62 25t44 -16q2 -13 -2 -20q-5 -18 -22 -20q-14 7 -32 7q-22 0 -46.5 -21t-42.5 -61q-13 -31 -13 -59v-237q0 -21 -14 -22q-22 -3 -40 -3q3 20 3 187v164q0 59 -23 74zM108 -40h1q12 0 20.5 -18t8.5 -37
q0 -38 -22.5 -75.5t-50.5 -56.5q-16 -9 -44 -8q57 69 57 133q0 19 -12 43q23 19 42 19z" />
    <glyph glyph-name="Rcaron" unicode="&#x158;" horiz-adv-x="508" 
d="M133 272v-251q0 -21 -15 -24q-26 -3 -43 -3q3 60 3 182v334q0 73 -2 107q65 13 130 13q204 0 204 -174q0 -68 -41.5 -110t-88.5 -60q43 -28 103 -124q82 -130 120 -158l-1 -5q-11 -7 -38 -7q-33 0 -70 57q-68 105 -85 129q-40 58 -64 76t-76 18h-36zM133 585v-275
q97 -4 120 4q43 14 70.5 49t27.5 90q0 73 -42 105t-103 32q-50 0 -73 -5zM301 784h1q12 0 28 -14q-50 -40 -92 -90q-6 -6 -13 -10q-7 -3 -15 -3q-52 59 -104 99q3 7 12 12.5t16 5.5q11 0 18 -5q22 -18 67 -60q28 31 63 59q12 6 19 6z" />
    <glyph glyph-name="rcaron" unicode="&#x159;" horiz-adv-x="299" 
d="M54 419v3q6 6 18 15t18 9q14 0 24 -25t10 -72q24 47 56 72t62 25t44 -16q2 -13 -2 -20q-5 -18 -22 -20q-14 7 -32 7q-22 0 -46.5 -21t-42.5 -61q-13 -31 -13 -59v-237q0 -21 -14 -22q-22 -3 -40 -3q3 20 3 187v164q0 59 -23 74zM219 676h1q8 0 17.5 -4t11.5 -10
q-11 -22 -37 -67.5t-38 -71.5q-9 -14 -17 -16q-14 -4 -23 -4q-6 12 -83 158q15 15 32 15q8 0 13 -10q8 -17 55 -105q10 19 31 58.5t27 51.5q7 5 10 5z" />
    <glyph glyph-name="Sacute" unicode="&#x15a;" horiz-adv-x="412" 
d="M234 640h1q30 0 64 -10.5t51 -27.5q1 -10 -6 -20.5t-16 -11.5q-50 27 -101 27q-48 0 -84.5 -26.5t-36.5 -82.5q0 -49 27 -78.5t96 -67.5q88 -49 119 -88t31 -101q0 -76 -55.5 -122t-140.5 -46q-43 0 -79 12t-53 26q-12 10 -12 21q2 18 8 32q26 -22 65.5 -34.5t73.5 -12.5
q62 0 99 31t37 84t-31 84.5t-111 75.5q-80 45 -105 87t-25 93q0 24 9 48.5t28 50t57 41.5t90 16zM313 789q8 -3 19 -15.5t13 -20.5q6 -15 -12 -18q-39 -11 -167 -58q-8 5 -12 16q-5 12 8 20q31 20 84 47.5t67 28.5z" />
    <glyph glyph-name="sacute" unicode="&#x15b;" horiz-adv-x="324" 
d="M182 446h1q28 0 55 -9t39 -25q1 -8 -6 -18t-17 -11q-37 22 -77 22q-35 0 -59 -20t-24 -52q0 -46 48 -71q14 -8 46 -23.5t51 -26.5q60 -36 60 -94q0 -64 -45 -97t-104 -33q-80 0 -114 38q-7 12 -1 23q6 15 17 14q46 -33 102 -33q45 0 69 21t24 55q0 45 -58 74
q-15 8 -40 20t-35 17q-71 39 -71 107q0 53 41 87.5t98 34.5zM219 678h1q8 0 20 -6t18 -13q8 -7 -3 -19q-45 -52 -101 -138q-8 4 -19 17q-5 6 5 26q16 35 44 84t35 49z" />
    <glyph glyph-name="Scircumflex" unicode="&#x15c;" horiz-adv-x="412" 
d="M234 640h1q30 0 64 -10.5t51 -27.5q1 -10 -6 -20.5t-16 -11.5q-50 27 -101 27q-48 0 -84.5 -26.5t-36.5 -82.5q0 -49 27 -78.5t96 -67.5q88 -49 119 -88t31 -101q0 -76 -55.5 -122t-140.5 -46q-43 0 -79 12t-53 26q-12 10 -12 21q2 18 8 32q26 -22 65.5 -34.5t73.5 -12.5
q62 0 99 31t37 84t-31 84.5t-111 75.5q-80 45 -105 87t-25 93q0 24 9 48.5t28 50t57 41.5t90 16zM121 680h-1q-12 0 -30 14q51 43 95 96q5 6 13 10q8 3 15 3q51 -57 112 -104q-3 -8 -12.5 -13.5t-16.5 -5.5q-12 0 -20 6q-20 14 -70 63q-29 -33 -65 -62q-12 -7 -20 -7z" />
    <glyph glyph-name="scircumflex" unicode="&#x15d;" horiz-adv-x="324" 
d="M182 446h1q28 0 55 -9t39 -25q1 -8 -6 -18t-17 -11q-37 22 -77 22q-35 0 -59 -20t-24 -52q0 -46 48 -71q14 -8 46 -23.5t51 -26.5q60 -36 60 -94q0 -64 -45 -97t-104 -33q-80 0 -114 38q-7 12 -1 23q6 15 17 14q46 -33 102 -33q45 0 69 21t24 55q0 45 -58 74
q-15 8 -40 20t-35 17q-71 39 -71 107q0 53 41 87.5t98 34.5zM94 503h-1q-8 0 -18 4.5t-12 9.5q13 25 38 69.5t37 68.5q7 15 17 17q14 4 23 4q27 -55 83 -157q-13 -16 -32 -16q-7 0 -13 10q-5 12 -12.5 26.5t-19.5 36.5t-21 40q-5 -9 -25.5 -46.5t-34.5 -63.5q-6 -3 -9 -3z
" />
    <glyph glyph-name="Scedilla" unicode="&#x15e;" horiz-adv-x="412" 
d="M133 -85l51 70q-38 0 -76 11t-58 28q-12 10 -12 22q2 15 8 31q25 -22 64.5 -35t73.5 -13q63 0 100.5 31t37.5 84q0 52 -28 81.5t-108 75.5q-85 48 -110.5 88t-25.5 95q0 24 9 49t28 50t58 41t91 16q26 0 62 -11t52 -26q1 -11 -6 -21t-16 -11q-52 26 -103 26
q-46 0 -82.5 -27t-36.5 -81q0 -50 26.5 -78.5t95.5 -68.5q89 -51 119.5 -89t30.5 -99q0 -64 -41 -108t-108 -56l-31 -44q66 -14 66 -69q0 -35 -36.5 -59.5t-79.5 -31.5q-8 1 -13.5 9.5t-5.5 14.5q0 5 10 8q79 25 79 55q0 20 -25.5 30t-59.5 11v1z" />
    <glyph glyph-name="scedilla" unicode="&#x15f;" horiz-adv-x="324" 
d="M95 -85l49 73q-75 3 -108 38q-6 15 -1 22q5 16 17 15q46 -33 102 -33q45 0 69 21.5t24 55.5q0 44 -58 73q-15 8 -40 20t-35 17q-71 39 -71 107q0 53 41.5 87.5t97.5 34.5q27 0 55 -9t40 -25q1 -9 -6 -18t-17 -10q-36 21 -78 21q-35 0 -58.5 -20t-23.5 -52q0 -47 49 -71
q15 -8 46 -23.5t50 -26.5q60 -35 60 -95q0 -53 -33 -85t-81 -41l-30 -45q66 -12 66 -69q0 -36 -35 -60t-77 -31q-7 1 -12.5 8t-5.5 13t10 9q76 20 76 57q0 39 -82 41v1z" />
    <glyph glyph-name="Scaron" unicode="&#x160;" horiz-adv-x="412" 
d="M234 640h1q30 0 64 -10.5t51 -27.5q1 -10 -6 -20.5t-16 -11.5q-50 27 -101 27q-48 0 -84.5 -26.5t-36.5 -82.5q0 -49 27 -78.5t96 -67.5q88 -49 119 -88t31 -101q0 -76 -55.5 -122t-140.5 -46q-43 0 -79 12t-53 26q-12 10 -12 21q2 18 8 32q26 -22 65.5 -34.5t73.5 -12.5
q62 0 99 31t37 84t-31 84.5t-111 75.5q-80 45 -105 87t-25 93q0 24 9 48.5t28 50t57 41.5t90 16zM303 793h1q12 0 28 -14q-50 -40 -92 -90q-5 -5 -13 -10q-7 -3 -15 -3q-52 59 -104 99q3 7 12 12.5t16 5.5q11 0 18 -5q22 -18 67 -60q28 31 63 59q12 6 19 6z" />
    <glyph glyph-name="scaron" unicode="&#x161;" horiz-adv-x="324" 
d="M182 446h1q28 0 55 -9t39 -25q1 -8 -6 -18t-17 -11q-37 22 -77 22q-35 0 -59 -20t-24 -52q0 -46 48 -71q14 -8 46 -23.5t51 -26.5q60 -36 60 -94q0 -64 -45 -97t-104 -33q-80 0 -114 38q-7 12 -1 23q6 15 17 14q46 -33 102 -33q45 0 69 21t24 55q0 45 -58 74
q-15 8 -40 20t-35 17q-71 39 -71 107q0 53 41 87.5t98 34.5zM228 676h1q8 0 17.5 -4t11.5 -10q-11 -22 -37 -67.5t-38 -71.5q-9 -14 -17 -16q-14 -4 -23 -4q-6 12 -83 158q15 15 32 15q8 0 13 -10q8 -17 55 -105q10 19 31 58.5t27 51.5q7 5 10 5z" />
    <glyph glyph-name="Tcommaaccent" unicode="&#x162;" horiz-adv-x="521" 
d="M236 12v571h-201q-21 0 -14 15q10 17 24 31q13 -5 152 -5h319q1 -7 -6.5 -21.5t-15.5 -19.5h-203v-459q0 -62 3 -122q-27 -8 -47 -8q-11 0 -11 18zM275 -55h1q12 0 20.5 -18t8.5 -37q0 -38 -22.5 -75.5t-50.5 -56.5q-16 -9 -44 -8q57 69 57 133q0 19 -12 43q23 19 42 19z
" />
    <glyph glyph-name="tcommaaccent" unicode="&#x163;" horiz-adv-x="324" 
d="M292 57l2 -2q8 -26 -15 -44q-32 -23 -80 -23q-114 0 -114 129v276q-40 0 -40 15q2 6 15 20t29 29.5t19 18.5q11 12 30 20q0 -13 -0.5 -26.5t-1 -21t-0.5 -14.5h168q-9 -36 -45 -38q-29 -2 -123 -2q-8 -183 -1 -280q6 -81 78 -81q47 0 79 24zM194 -50h1q12 0 20.5 -18
t8.5 -37q0 -38 -22.5 -75.5t-50.5 -56.5q-16 -9 -44 -8q57 69 57 133q0 19 -12 43q23 19 42 19z" />
    <glyph glyph-name="Tcaron" unicode="&#x164;" horiz-adv-x="521" 
d="M236 12v571h-201q-21 0 -14 15q10 17 24 31q13 -5 152 -5h319q1 -7 -6.5 -21.5t-15.5 -19.5h-203v-459q0 -62 3 -122q-27 -8 -47 -8q-11 0 -11 18zM346 779h1q12 0 28 -14q-50 -40 -92 -90q-5 -5 -13 -10q-7 -3 -15 -3q-52 59 -104 99q3 7 12 12.5t16 5.5q11 0 18 -5
q22 -18 67 -60q28 31 63 59q12 6 19 6z" />
    <glyph glyph-name="tcaron" unicode="&#x165;" horiz-adv-x="324" 
d="M292 57l2 -2q8 -26 -15 -44q-32 -23 -80 -23q-114 0 -114 129v276q-40 0 -40 15q2 6 15 20t29 29.5t19 18.5q11 12 30 20q0 -13 -0.5 -26.5t-1 -21t-0.5 -14.5h168q-9 -36 -45 -38q-29 -2 -123 -2q-8 -183 -1 -280q6 -81 78 -81q47 0 79 24zM299 705h1q12 0 20.5 -18
t8.5 -37q0 -38 -22.5 -75.5t-50.5 -56.5q-16 -9 -44 -8q57 69 57 133q0 19 -12 43q23 19 42 19z" />
    <glyph glyph-name="Tbar" unicode="&#x166;" horiz-adv-x="521" 
d="M236 12v296h-111q6 38 45 38h66v237h-201q-22 0 -14 15q8 14 25 31q16 -5 151 -5h319q1 -7 -6.5 -21.5t-15.5 -19.5h-203v-237h115q-4 -24 -17.5 -31t-43.5 -7h-54v-184q0 -62 3 -122q-27 -8 -47 -8q-11 0 -11 18z" />
    <glyph glyph-name="tbar" unicode="&#x167;" horiz-adv-x="334" 
d="M302 58l2 -2q9 -26 -18 -47q-32 -21 -77 -21q-114 0 -114 129v98h-61q6 38 45 38h16v140q-40 0 -40 15q2 6 15 20t29 29.5t19 18.5q11 12 30 20q0 -13 -0.5 -26.5t-1 -21t-0.5 -14.5h168q-9 -36 -45 -38q-29 -2 -123 -2q-3 -75 -3 -141h106q-5 -25 -18 -31.5t-43 -6.5
h-46q2 -74 3 -101q6 -83 77 -83q45 0 80 27z" />
    <glyph glyph-name="Utilde" unicode="&#x168;" horiz-adv-x="653" 
d="M130 577v-287q0 -262 198 -262q33 0 58 5t53.5 21.5t46.5 45.5t30 81.5t12 124.5v294q0 20 17 24q12 1 16.5 2t6.5 1.5t11 0.5q-3 -57 -3 -180v-140q0 -84 -17.5 -146t-42.5 -95t-62.5 -52.5t-67 -24.5t-66.5 -5q-53 0 -94.5 14t-77 46.5t-54.5 95t-19 152.5v200
q0 99 -3 127q27 8 43 8q10 0 12.5 -8t2.5 -43zM285 767h1q29 0 56 -35q22 -27 30 -27q16 0 25 51q3 11 11 11t27 -15q-12 -92 -66 -92q-15 0 -26 9.5t-30 32.5q-19 22 -30 22q-16 0 -30 -49q-2 -11 -9 -11q-6 0 -30 9q16 94 71 94z" />
    <glyph glyph-name="utilde" unicode="&#x169;" horiz-adv-x="497" 
d="M74 149v169q0 69 -4 113q20 9 44 9q10 0 10 -61q1 -66 1 -199q0 -47 10 -77.5t28 -44t35 -18t40 -4.5q41 0 77 22.5t51 47.5v299q0 25 12 29q24 6 42 6q0 -3 -1.5 -65t-1.5 -113v-168q0 -40 8.5 -54t32.5 -17v-4q-1 -9 -11 -20t-22 -11q-24 0 -39 21t-16 56
q-34 -40 -89 -64q-30 -13 -65 -13q-70 0 -106 43t-36 118zM210 631h1q30 0 56 -34q22 -27 30 -27q18 0 27 51q3 11 11 11q7 0 26 -15q-12 -94 -67 -94q-11 0 -21.5 6.5t-16 12.5t-18.5 22q-19 22 -30 22q-18 0 -32 -48q-2 -11 -8 -11q-7 0 -31 9q15 95 73 95z" />
    <glyph glyph-name="Umacron" unicode="&#x16a;" horiz-adv-x="653" 
d="M130 577v-287q0 -262 198 -262q33 0 58 5t53.5 21.5t46.5 45.5t30 81.5t12 124.5v294q0 20 17 24q12 1 16.5 2t6.5 1.5t11 0.5q-3 -57 -3 -180v-140q0 -84 -17.5 -146t-42.5 -95t-62.5 -52.5t-67 -24.5t-66.5 -5q-53 0 -94.5 14t-77 46.5t-54.5 95t-19 152.5v200
q0 99 -3 127q27 8 43 8q10 0 12.5 -8t2.5 -43zM416 665h-174q-12 0 -12 12q0 21 14 32h178q11 0 11 -7q0 -5 -6 -18t-11 -19z" />
    <glyph glyph-name="umacron" unicode="&#x16b;" horiz-adv-x="497" 
d="M74 149v169q0 69 -4 113q20 9 44 9q10 0 10 -61q1 -66 1 -199q0 -47 10 -77.5t28 -44t35 -18t40 -4.5q41 0 77 22.5t51 47.5v299q0 25 12 29q24 6 42 6q0 -3 -1.5 -65t-1.5 -113v-168q0 -40 8.5 -54t32.5 -17v-4q-1 -9 -11 -20t-22 -11q-24 0 -39 21t-16 56
q-34 -40 -89 -64q-30 -13 -65 -13q-70 0 -106 43t-36 118zM333 545h-172q-12 0 -12 11q0 9 5 20t9 14h176q11 0 11 -7q0 -5 -6 -18.5t-11 -19.5z" />
    <glyph glyph-name="Ubreve" unicode="&#x16c;" horiz-adv-x="653" 
d="M130 577v-287q0 -262 198 -262q33 0 58 5t53.5 21.5t46.5 45.5t30 81.5t12 124.5v294q0 20 17 24q12 1 16.5 2t6.5 1.5t11 0.5q-3 -57 -3 -180v-140q0 -84 -17.5 -146t-42.5 -95t-62.5 -52.5t-67 -24.5t-66.5 -5q-53 0 -94.5 14t-77 46.5t-54.5 95t-19 152.5v200
q0 99 -3 127q27 8 43 8q10 0 12.5 -8t2.5 -43zM251 777h1q9 0 11 -13q16 -57 61 -57q23 0 39 12t31 46q5 12 13 12t18 -5t9 -12q-7 -49 -37 -74.5t-75 -25.5t-73 30.5t-27 67.5q0 9 9.5 14t19.5 5z" />
    <glyph glyph-name="ubreve" unicode="&#x16d;" horiz-adv-x="497" 
d="M74 149v169q0 69 -4 113q20 9 44 9q10 0 10 -61q1 -66 1 -199q0 -47 10 -77.5t28 -44t35 -18t40 -4.5q41 0 77 22.5t51 47.5v299q0 25 12 29q24 6 42 6q0 -3 -1.5 -65t-1.5 -113v-168q0 -40 8.5 -54t32.5 -17v-4q-1 -9 -11 -20t-22 -11q-24 0 -39 21t-16 56
q-34 -40 -89 -64q-30 -13 -65 -13q-70 0 -106 43t-36 118zM186 651h1q7 0 7 -9q9 -80 51 -80q50 0 62 81q2 8 10 8q10 0 19 -5.5t8 -13.5q-12 -115 -102 -115q-40 0 -64.5 29.5t-24.5 80.5q0 24 33 24z" />
    <glyph glyph-name="Uring" unicode="&#x16e;" horiz-adv-x="653" 
d="M130 577v-287q0 -262 198 -262q33 0 58 5t53.5 21.5t46.5 45.5t30 81.5t12 124.5v294q0 20 17 24q12 1 16.5 2t6.5 1.5t11 0.5q-3 -57 -3 -180v-140q0 -84 -17.5 -146t-42.5 -95t-62.5 -52.5t-67 -24.5t-66.5 -5q-53 0 -94.5 14t-77 46.5t-54.5 95t-19 152.5v200
q0 99 -3 127q27 8 43 8q10 0 12.5 -8t2.5 -43zM328 812h1q32 0 54.5 -22.5t22.5 -55.5q0 -36 -22 -57.5t-59 -21.5q-32 0 -54 21t-22 55t21.5 57.5t57.5 23.5zM326 778h-1q-17 0 -26.5 -14t-9.5 -31q0 -19 11 -31.5t28 -12.5q19 0 29 13t10 30q0 46 -41 46z" />
    <glyph glyph-name="uring" unicode="&#x16f;" horiz-adv-x="497" 
d="M74 149v169q0 69 -4 113q20 9 44 9q10 0 10 -61q1 -66 1 -199q0 -47 10 -77.5t28 -44t35 -18t40 -4.5q41 0 77 22.5t51 47.5v299q0 25 12 29q24 6 42 6q0 -3 -1.5 -65t-1.5 -113v-168q0 -40 8.5 -54t32.5 -17v-4q-1 -9 -11 -20t-22 -11q-24 0 -39 21t-16 56
q-34 -40 -89 -64q-30 -13 -65 -13q-70 0 -106 43t-36 118zM250 660h1q34 0 57 -23t23 -58q0 -38 -23 -60.5t-61 -22.5q-33 0 -56 22t-23 58t22.5 60t59.5 24zM248 625h-1q-17 0 -27 -14.5t-10 -31.5q0 -19 11.5 -33t28.5 -14q19 0 29 13.5t10 31.5q0 20 -10 34t-31 14z" />
    <glyph glyph-name="Uhungarumlaut" unicode="&#x170;" horiz-adv-x="653" 
d="M130 577v-287q0 -262 198 -262q33 0 58 5t53.5 21.5t46.5 45.5t30 81.5t12 124.5v294q0 20 17 24q12 1 16.5 2t6.5 1.5t11 0.5q-3 -57 -3 -180v-140q0 -84 -17.5 -146t-42.5 -95t-62.5 -52.5t-67 -24.5t-66.5 -5q-53 0 -94.5 14t-77 46.5t-54.5 95t-19 152.5v200
q0 99 -3 127q27 8 43 8q10 0 12.5 -8t2.5 -43zM298 813h1q12 0 35 -21q13 -13 0 -24q-20 -18 -72 -99q-6 -7 -11 -7q-8 0 -23 18q12 36 35 84.5t35 48.5zM451 813h1q17 0 38 -23q10 -12 -1 -23q-27 -27 -72 -99q-5 -6 -10 -6q-8 0 -23 18q47 133 67 133z" />
    <glyph glyph-name="uhungarumlaut" unicode="&#x171;" horiz-adv-x="497" 
d="M74 149v169q0 69 -4 113q20 9 44 9q10 0 10 -61q1 -66 1 -199q0 -47 10 -77.5t28 -44t35 -18t40 -4.5q41 0 77 22.5t51 47.5v299q0 25 12 29q24 6 42 6q0 -3 -1.5 -65t-1.5 -113v-168q0 -40 8.5 -54t32.5 -17v-4q-1 -9 -11 -20t-22 -11q-24 0 -39 21t-16 56
q-34 -40 -89 -64q-30 -13 -65 -13q-70 0 -106 43t-36 118zM223 682h1q16 0 32 -21q7 -10 0 -20q-32 -47 -78 -138q-8 0 -23 15q-3 8 1 24q17 48 38 94t29 46zM354 682h1q18 0 32 -21q7 -10 1 -18q-50 -79 -79 -140q-14 6 -20 12q-5 9 -2 23q52 144 67 144z" />
    <glyph glyph-name="Uogonek" unicode="&#x172;" horiz-adv-x="653" 
d="M528 308v292q0 20 17 24q12 1 16.5 2t6.5 1.5t11 0.5q-3 -57 -3 -180v-140q0 -258 -150 -308q-40 -25 -67.5 -61.5t-27.5 -74.5q0 -21 13 -36t38 -15q28 0 60 14l3 -3q0 -21 -11 -36q-27 -25 -77 -25q-35 0 -59 23t-24 62q0 70 88 140q-20 -3 -41 -3q-57 0 -99 14
t-76.5 47t-52.5 95t-18 152v200q0 99 -3 127q27 8 43 8q10 0 12.5 -8t2.5 -43v-288q0 -264 197 -264q35 0 61.5 5.5t54 23t45 47.5t29 82.5t11.5 124.5z" />
    <glyph glyph-name="uogonek" unicode="&#x173;" horiz-adv-x="497" 
d="M477 -173l3 -2q0 -23 -11 -36q-27 -25 -76 -25q-36 0 -59.5 22.5t-23.5 63.5q0 81 93 147q-32 21 -33 67q-26 -31 -66.5 -53.5t-85.5 -22.5q-71 0 -107.5 42t-36.5 117v171q0 69 -4 113q20 9 44 9q10 0 10 -61q1 -66 1 -199q0 -47 10 -77.5t28.5 -44t35.5 -18t39 -4.5
q41 0 76.5 22t51.5 48v299q0 25 12 29q24 6 42 6q0 -3 -1.5 -65t-1.5 -113v-168q0 -39 11.5 -54t34.5 -18v-3q-1 -5 -8.5 -14.5t-14.5 -13.5q-74 -52 -74 -125q0 -22 14 -37.5t38 -15.5q27 0 59 14z" />
    <glyph glyph-name="Wcircumflex" unicode="&#x174;" horiz-adv-x="885" 
d="M453 628h1q8 0 15 -16q82 -258 162 -537q185 534 191 553q18 0 36 -8q9 -5 -2 -36q-8 -23 -197 -546q-11 -29 -21 -39q-11 -11 -30 -11q-14 49 -164 546q-22 -75 -82 -265t-72 -232q-10 -32 -23 -40q-16 -9 -28 -9q-124 396 -210 624q28 16 45 16q7 0 12.5 -11t19.5 -54
q13 -43 70 -220t84 -270q86 291 163 524q-4 22 -4 23q14 8 34 8zM358 665h-1q-12 0 -30 14q51 43 95 96q6 6 13 10q8 3 15 3q51 -57 112 -104q-4 -8 -13 -13.5t-16 -5.5q-13 0 -20 6q-20 14 -70 63q-29 -33 -65 -62q-12 -7 -20 -7z" />
    <glyph glyph-name="wcircumflex" unicode="&#x175;" horiz-adv-x="656" 
d="M64 446h1q9 0 14 -14q66 -187 122 -361q91 254 116 328q-3 12 -7 21q19 14 35 14q10 0 24 -47q6 -20 102 -311q93 266 132 370q14 0 33 -13q10 -10 -8 -59q-21 -54 -61 -160.5t-70 -185.5q-9 -25 -24 -32q-13 -5 -23 -8q-33 108 -113 351q-63 -188 -113 -318
q-8 -19 -18 -23q-19 -9 -27 -10q-7 18 -39.5 116t-53.5 155q-49 134 -64 166q21 21 42 21zM260 503h-1q-8 0 -18 4.5t-12 9.5q13 25 38 69.5t37 68.5q7 15 17 17q14 4 23 4q27 -55 83 -157q-13 -16 -32 -16q-7 0 -13 10q-5 12 -12.5 26.5t-19.5 36.5t-21 40
q-5 -9 -25.5 -46.5t-34.5 -63.5q-6 -3 -9 -3z" />
    <glyph glyph-name="Ycircumflex" unicode="&#x176;" horiz-adv-x="544" 
d="M244 12v255q0 31 -7 41q-37 56 -109.5 158t-108.5 148v3q24 11 46 11q10 0 40 -42q33 -49 174 -248q26 35 108.5 150.5t97.5 139.5q11 0 30 -7q17 -6 -3 -34q-13 -17 -103.5 -140.5t-99.5 -134.5q-10 -12 -10 -38v-152q0 -60 3 -120q-14 -8 -46 -8q-12 0 -12 18zM192 665
h-1q-12 0 -30 14q51 43 95 96q5 6 13 10q8 3 15 3q51 -57 112 -104q-4 -8 -13 -13.5t-16 -5.5q-13 0 -20 6q-20 14 -70 63q-29 -33 -65 -62q-12 -7 -20 -7z" />
    <glyph glyph-name="ycircumflex" unicode="&#x177;" horiz-adv-x="406" 
d="M45 -205v2q84 109 141 224q-5 6 -22 46q-83 234 -142 360q24 19 41 19q11 0 15 -10q13 -30 68.5 -180.5t67.5 -180.5q32 65 73.5 182.5t59.5 188.5q25 2 36 -7q10 -9 3 -31q-64 -197 -114 -312q-31 -71 -74 -147.5t-74.5 -122t-39.5 -45.5q-25 0 -39 14zM140 503h-1
q-8 0 -18 4.5t-12 9.5q13 25 38 69.5t37 68.5q7 15 17 17q14 4 23 4q27 -55 83 -157q-13 -16 -32 -16q-7 0 -13 10q-5 12 -12.5 26.5t-19.5 36.5t-21 40q-5 -9 -25.5 -46.5t-34.5 -63.5q-6 -3 -9 -3z" />
    <glyph glyph-name="Ydieresis" unicode="&#x178;" horiz-adv-x="544" 
d="M244 12v255q0 31 -7 41q-37 56 -109.5 158t-108.5 148v3q24 11 46 11q10 0 40 -42q33 -49 174 -248q26 35 108.5 150.5t97.5 139.5q11 0 30 -7q17 -6 -3 -34q-13 -17 -103.5 -140.5t-99.5 -134.5q-10 -12 -10 -38v-152q0 -60 3 -120q-14 -8 -46 -8q-12 0 -12 18zM188 743
h1q15 0 25 -11t10 -27q0 -19 -10.5 -29.5t-26.5 -10.5t-26.5 9.5t-10.5 28.5q0 17 10.5 28.5t27.5 11.5zM367 743h1q15 0 25 -11t10 -27q0 -19 -10.5 -29.5t-28.5 -10.5q-14 0 -25 9.5t-11 28.5q0 17 10.5 28.5t28.5 11.5z" />
    <glyph glyph-name="Zacute" unicode="&#x179;" horiz-adv-x="552" 
d="M534 38l1 -2q-18 -28 -39 -36q-14 -6 -137 -6q-289 0 -310 8q-15 13 -16 21q102 127 223.5 297t178.5 263h-321q-27 0 -40.5 2t-16 4.5t-2.5 7.5q0 7 9 17.5t17 15.5q19 -6 73 -6h351q-6 -28 -26 -61q-132 -211 -368 -523q86 -4 230.5 -4.5t192.5 2.5zM383 790
q8 -3 19 -15.5t13 -20.5q6 -15 -12 -18q-39 -11 -167 -58q-8 5 -12 16q-5 12 8 20q31 20 84 47.5t67 28.5z" />
    <glyph glyph-name="zacute" unicode="&#x17a;" horiz-adv-x="367" 
d="M31 5l-12 15q38 50 125 176t128 198h-182q-60 0 -60 12q0 15 24 35q14 -7 91 -7h189q-3 -31 -16 -55q-21 -41 -224 -338q65 -5 157 -4t111 5q-3 -20 -20 -34q-16 -11 -128 -11q-150 0 -183 8zM241 678h1q8 0 20 -6t18 -13q8 -7 -3 -19q-45 -52 -101 -138q-8 4 -19 17
q-5 6 5 26q16 35 44 84t35 49z" />
    <glyph glyph-name="Zdotaccent" unicode="&#x17b;" horiz-adv-x="552" 
d="M534 38l1 -2q-18 -28 -39 -36q-14 -6 -137 -6q-289 0 -310 8q-15 13 -16 21q102 127 223.5 297t178.5 263h-321q-27 0 -40.5 2t-16 4.5t-2.5 7.5q0 7 9 17.5t17 15.5q19 -6 73 -6h351q-6 -28 -26 -61q-132 -211 -368 -523q86 -4 230.5 -4.5t192.5 2.5zM278 755h1
q15 0 25 -11t10 -27q0 -19 -10.5 -29.5t-26.5 -10.5t-26.5 9.5t-10.5 28.5q0 17 10.5 28.5t27.5 11.5z" />
    <glyph glyph-name="zdotaccent" unicode="&#x17c;" horiz-adv-x="367" 
d="M31 5l-12 15q38 50 125 176t128 198h-182q-60 0 -60 12q0 15 24 35q14 -7 91 -7h189q-3 -31 -16 -55q-21 -41 -224 -338q65 -5 157 -4t111 5q-3 -20 -20 -34q-16 -11 -128 -11q-150 0 -183 8zM187 612h1q15 0 24.5 -11t9.5 -26q0 -19 -10.5 -29.5t-26.5 -10.5
q-15 0 -25.5 9.5t-10.5 27.5q0 17 10.5 28.5t27.5 11.5z" />
    <glyph glyph-name="Zcaron" unicode="&#x17d;" horiz-adv-x="552" 
d="M534 38l1 -2q-18 -28 -39 -36q-14 -6 -137 -6q-289 0 -310 8q-15 13 -16 21q102 127 223.5 297t178.5 263h-321q-27 0 -40.5 2t-16 4.5t-2.5 7.5q0 7 9 17.5t17 15.5q19 -6 73 -6h351q-6 -28 -26 -61q-132 -211 -368 -523q86 -4 230.5 -4.5t192.5 2.5zM366 789h1
q12 0 28 -14q-50 -40 -92 -90q-5 -6 -13 -10q-7 -3 -15 -3q-52 59 -104 99q3 7 12 12.5t16 5.5q11 0 18 -5q22 -18 67 -60q28 31 63 59q12 6 19 6z" />
    <glyph glyph-name="zcaron" unicode="&#x17e;" horiz-adv-x="367" 
d="M31 5l-12 15q38 50 125 176t128 198h-182q-60 0 -60 12q0 15 24 35q14 -7 91 -7h189q-3 -31 -16 -55q-21 -41 -224 -338q65 -5 157 -4t111 5q-3 -20 -20 -34q-16 -11 -128 -11q-150 0 -183 8zM254 676h1q8 0 17.5 -4t11.5 -10q-11 -22 -37 -67.5t-38 -71.5
q-9 -14 -17 -16q-14 -4 -23 -4q-6 12 -83 158q15 15 32 15q8 0 13 -10q8 -17 55 -105q10 19 31 58.5t27 51.5q7 5 10 5z" />
    <glyph glyph-name="longs" unicode="&#x17f;" horiz-adv-x="203" 
d="M129 416q0 -70 1 -219t1 -195q-10 -8 -41 -8q-12 0 -12 17v383q-50 0 -50 13q12 16 50 27q0 153 71 216q43 36 96 36q19 0 36 -6.5t22 -14.5q1 -11 -8 -21t-20 -6q-19 7 -38 7q-108 0 -108 -229z" />
    <glyph glyph-name="florin" unicode="&#x192;" horiz-adv-x="441" 
d="M351 623h1q40 0 61 -21q1 -25 -20 -28q-20 9 -43 9q-53 0 -81 -58t-36 -178q95 0 144 2q-6 -16 -14.5 -25t-15.5 -11.5t-19 -3.5q-23 -3 -101 -3q-21 -197 -31 -253q-18 -97 -60.5 -136t-95.5 -39q-37 0 -58 14q-16 9 -16 20q0 15 13 22q28 -16 58 -16q24 0 43 10
t32 33.5t21.5 45.5t15 63.5t9.5 70t8.5 82t8.5 83.5q-54 0 -66 6q-7 5 -1 10q18 21 71 25q17 180 81 240q40 36 91 36z" />
    <glyph glyph-name="AEacute" unicode="&#x1fc;" horiz-adv-x="781" 
d="M415 263h-210q-127 -233 -144 -259q-10 -16 -17 -16q-16 0 -34 15l-1 5q31 52 162 285t164 289q8 13 16 32q28 7 49 10h328q0 -15 -12 -30q-8 -11 -35 -11h-228l13 -281h251q-5 -41 -39 -41h-211l12 -218q40 -8 144 -8q109 0 146 5l1 -2q-6 -33 -38 -40q-24 -4 -110 -4
q-133 0 -183 10l-16 20zM412 302l-11 280q-20 0 -32 -22q-29 -51 -56 -99t-51.5 -94t-35.5 -65h186zM583 782q8 -3 19 -15.5t13 -20.5q6 -15 -12 -18q-39 -11 -167 -58q-8 5 -12 16q-5 12 8 20q31 20 84 47.5t67 28.5z" />
    <glyph glyph-name="aeacute" unicode="&#x1fd;" horiz-adv-x="660" 
d="M607 60l2 -3q-3 -33 -33 -49q-38 -20 -96 -20q-54 0 -100.5 24t-68.5 64q-26 -32 -73 -60t-97 -28q-53 0 -81.5 31t-28.5 73q0 23 10.5 43.5t23 34.5t37.5 27.5t39.5 20t45.5 15.5t38 10.5t33 7.5q10 2 19 5v27q0 51 -25 84t-75 33q-55 0 -99 -40q-25 -21 -37 15
q17 25 60.5 48t89.5 23q50 0 84.5 -29.5t41.5 -68.5q25 43 67 70.5t94 27.5q73 0 113 -46.5t42 -111.5q0 -22 -2 -30q-2 -12 -33.5 -23t-54.5 -12q-70 -5 -215 0q-2 -84 44 -136.5t126 -52.5q62 0 109 26zM467 409h-1q-51 0 -88.5 -43t-46.5 -104q175 -3 219 0q27 2 27 25
q2 53 -27.5 87.5t-82.5 34.5zM157 35h1q77 0 138 72q-20 47 -20 110q-25 -5 -34.5 -7.5t-34.5 -9t-37 -11.5t-31 -15t-28 -20t-16 -24.5t-7 -31.5q0 -26 19 -44.5t50 -18.5zM387 678h1q8 0 20 -6t18 -13q8 -7 -3 -19q-45 -52 -101 -138q-8 4 -19 17q-5 6 5 26q16 35 44 84
t35 49z" />
    <glyph glyph-name="Oslashacute" unicode="&#x1fe;" horiz-adv-x="712" 
d="M620 633l-54 -70q52 -45 78.5 -110t26.5 -135q0 -64 -19 -122t-55.5 -106t-98.5 -76.5t-141 -28.5q-114 0 -191 61l-59 -79q-10 -13 -19 -2q-15 18 -18 25l65 84q-48 46 -71.5 108t-23.5 120q0 146 86.5 242t229.5 96q101 0 178 -52l49 64q14 17 24 8q13 -12 13 -27z
M167 115l338 436q-65 50 -153 50q-110 0 -180.5 -81t-70.5 -212q0 -115 66 -193zM537 523l-340 -438q69 -61 161 -61q112 0 182 74.5t70 220.5q0 129 -73 204zM458 795q8 -3 19 -15.5t13 -20.5q6 -15 -12 -18q-39 -11 -167 -58q-8 5 -12 16q-5 12 8 20q31 20 84 47.5
t67 28.5z" />
    <glyph glyph-name="oslashacute" unicode="&#x1ff;" horiz-adv-x="510" 
d="M433 427l-28 -36q69 -64 69 -173q0 -97 -60 -163.5t-155 -66.5q-78 0 -125 32q-18 -24 -28 -36q-11 -17 -22 -5q-13 20 -14 22q21 27 33 43q-68 65 -68 170q0 98 62.5 165t159.5 67q65 0 118 -32q16 22 24 32q13 17 21 7q10 -12 13 -26zM133 84l214 294q-39 31 -95 31
q-64 0 -113 -49.5t-49 -142.5q0 -82 43 -133zM376 352l-215 -294q38 -34 99 -34q26 0 51.5 9.5t51 30.5t41 61t15.5 93q0 89 -43 134zM312 678h1q8 0 20 -6t18 -13q8 -7 -3 -19q-45 -52 -101 -138q-8 4 -19 17q-5 6 5 26q16 35 44 84t35 49z" />
    <glyph glyph-name="Scommaaccent" unicode="&#x218;" horiz-adv-x="412" 
d="M234 640h1q30 0 64 -10.5t51 -27.5q1 -10 -6 -20.5t-16 -11.5q-50 27 -101 27q-48 0 -84.5 -26.5t-36.5 -82.5q0 -49 27 -78.5t96 -67.5q88 -49 119 -88t31 -101q0 -76 -55.5 -122t-140.5 -46q-43 0 -79 12t-53 26q-12 10 -12 21q2 18 8 32q26 -22 65.5 -34.5t73.5 -12.5
q62 0 99 31t37 84t-31 84.5t-111 75.5q-80 45 -105 87t-25 93q0 24 9 48.5t28 50t57 41.5t90 16zM214 -47h1q12 0 20.5 -18t8.5 -37q0 -38 -22.5 -75.5t-50.5 -56.5q-16 -9 -44 -8q57 69 57 133q0 19 -12 43q23 19 42 19z" />
    <glyph glyph-name="scommaaccent" unicode="&#x219;" horiz-adv-x="324" 
d="M182 446h1q28 0 55 -9t39 -25q1 -8 -6 -18t-17 -11q-37 22 -77 22q-35 0 -59 -20t-24 -52q0 -46 48 -71q14 -8 46 -23.5t51 -26.5q60 -36 60 -94q0 -64 -45 -97t-104 -33q-80 0 -114 38q-7 12 -1 23q6 15 17 14q46 -33 102 -33q45 0 69 21t24 55q0 45 -58 74
q-15 8 -40 20t-35 17q-71 39 -71 107q0 53 41 87.5t98 34.5zM179 -55h1q12 0 20.5 -18t8.5 -37q0 -38 -22.5 -75.5t-50.5 -56.5q-16 -9 -44 -8q57 69 57 133q0 19 -12 43q23 19 42 19z" />
    <glyph glyph-name="uni021A" unicode="&#x21a;" horiz-adv-x="521" 
d="M236 12v571h-201q-21 0 -14 15q10 17 24 31q13 -5 152 -5h319q1 -7 -6.5 -21.5t-15.5 -19.5h-203v-459q0 -62 3 -122q-27 -8 -47 -8q-11 0 -11 18zM275 -55h1q12 0 20.5 -18t8.5 -37q0 -38 -22.5 -75.5t-50.5 -56.5q-16 -9 -44 -8q57 69 57 133q0 19 -12 43q23 19 42 19z
" />
    <glyph glyph-name="uni021B" unicode="&#x21b;" horiz-adv-x="324" 
d="M292 57l2 -2q8 -26 -15 -44q-32 -23 -80 -23q-114 0 -114 129v276q-40 0 -40 15q2 6 15 20t29 29.5t19 18.5q11 12 30 20q0 -13 -0.5 -26.5t-1 -21t-0.5 -14.5h168q-9 -36 -45 -38q-29 -2 -123 -2q-8 -183 -1 -280q6 -81 78 -81q47 0 79 24zM194 -50h1q12 0 20.5 -18
t8.5 -37q0 -38 -22.5 -75.5t-50.5 -56.5q-16 -9 -44 -8q57 69 57 133q0 19 -12 43q23 19 42 19z" />
    <glyph glyph-name="circumflex" unicode="&#x2c6;" horiz-adv-x="400" 
d="M132 503h-1q-8 0 -18 4.5t-12 9.5q13 25 38 69.5t37 68.5q7 15 17 17q14 4 23 4q27 -55 83 -157q-13 -16 -32 -16q-7 0 -13 10q-5 12 -12.5 26.5t-19.5 36.5t-21 40q-5 -9 -25.5 -46.5t-34.5 -63.5q-6 -3 -9 -3z" />
    <glyph glyph-name="caron" unicode="&#x2c7;" horiz-adv-x="400" 
d="M269 676h1q8 0 17.5 -4t11.5 -10q-11 -22 -37 -67.5t-38 -71.5q-9 -14 -17 -16q-14 -4 -23 -4q-6 12 -83 158q15 15 32 15q8 0 13 -10q8 -17 55 -105q10 19 31 58.5t27 51.5q7 5 10 5z" />
    <glyph glyph-name="uni02C9" unicode="&#x2c9;" horiz-adv-x="400" 
d="M284 545h-172q-12 0 -12 11q0 9 5 20t9 14h176q11 0 11 -7q0 -5 -6 -18.5t-11 -19.5z" />
    <glyph glyph-name="breve" unicode="&#x2d8;" horiz-adv-x="400" 
d="M137 651h1q7 0 7 -9q9 -80 51 -80q50 0 62 81q2 8 10 8q10 0 19 -5.5t8 -13.5q-12 -115 -102 -115q-40 0 -64.5 29.5t-24.5 80.5q0 24 33 24z" />
    <glyph glyph-name="dotaccent" unicode="&#x2d9;" horiz-adv-x="400" 
d="M203 612h1q15 0 24.5 -11t9.5 -26q0 -19 -10.5 -29.5t-26.5 -10.5q-15 0 -25.5 9.5t-10.5 27.5q0 17 10.5 28.5t27.5 11.5z" />
    <glyph glyph-name="ring" unicode="&#x2da;" horiz-adv-x="400" 
d="M201 660h1q34 0 57 -23t23 -58q0 -38 -23 -60.5t-61 -22.5q-33 0 -56 22t-23 58t22.5 60t59.5 24zM199 625h-1q-17 0 -27 -14.5t-10 -31.5q0 -19 11.5 -33t28.5 -14q19 0 29 13.5t10 31.5q0 20 -10 34t-31 14z" />
    <glyph glyph-name="ogonek" unicode="&#x2db;" horiz-adv-x="401" 
d="M204 2h48q-94 -68 -94 -140q0 -21 13 -35t38 -14q28 0 60 14l3 -3q0 -21 -11 -36q-27 -25 -77 -25q-35 0 -59 22.5t-24 61.5q0 87 103 155z" />
    <glyph glyph-name="tilde" unicode="&#x2dc;" horiz-adv-x="400" 
d="M161 631h1q30 0 56 -34q22 -27 30 -27q18 0 27 51q3 11 11 11q7 0 26 -15q-12 -94 -67 -94q-11 0 -21.5 6.5t-16 12.5t-18.5 22q-19 22 -30 22q-18 0 -32 -48q-2 -11 -8 -11q-7 0 -31 9q15 95 73 95z" />
    <glyph glyph-name="hungarumlaut" unicode="&#x2dd;" horiz-adv-x="400" 
d="M170 682h1q16 0 32 -21q7 -10 0 -20q-32 -47 -78 -138q-8 0 -23 15q-3 8 1 24q17 48 38 94t29 46zM301 682h1q18 0 32 -21q7 -10 1 -18q-50 -79 -79 -140q-14 6 -20 12q-5 9 -2 23q52 144 67 144z" />
    <glyph glyph-name="uni0394" unicode="&#x394;" horiz-adv-x="621" 
d="M40 2l-8 16q38 80 144.5 329t108.5 253l-5 19q25 9 34 9q11 0 17 -15q99 -236 258 -595l-8 -18q-33 0 -175 -2.5t-214 -2.5q-128 0 -152 7zM100 46q24 -7 127 -7q260 0 286 6q-24 58 -74 177t-89 212t-45 109q-16 -36 -97.5 -238t-107.5 -259z" />
    <glyph glyph-name="uni03A9" unicode="&#x3a9;" horiz-adv-x="725" 
d="M56 48l4 1q16 -9 107 -9q47 0 56 3q2 1 1 3.5t-3 4.5q-61 37 -104 107t-43 172q0 130 83.5 220t221.5 90q122 0 201 -82.5t79 -201.5q0 -50 -11.5 -95t-24.5 -73.5t-38.5 -60t-38 -43.5t-37.5 -35q-4 -4 2 -5q14 -6 67 -5q116 0 126 3l3 -3q0 -14 -10.5 -26t-26.5 -15
q-13 -2 -43 -3t-73.5 -1h-59.5q-60 0 -76 7l-3 6q12 20 17 29q78 43 123.5 124.5t45.5 175.5q0 125 -64.5 195t-168.5 70q-42 0 -81.5 -15t-74.5 -45t-56 -83t-21 -122q0 -107 49 -182.5t119 -117.5l1 -7q-12 -18 -16 -21q-7 -7 -23 -9q-8 0 -54.5 -2t-83.5 -2q-80 0 -97 8
q-13 4 -6 15q4 6 11.5 13t14.5 12z" />
    <glyph glyph-name="uni03BC" unicode="&#x3bc;" horiz-adv-x="496" 
d="M114 43l7 -260h-11q-30 4 -36.5 12t-5.5 35l8 316v172q0 67 -4 115q23 9 44 9q4 0 6 -3.5t3 -17.5t1 -42q1 -66 1 -217q0 -128 106 -128q43 0 80 24t51 52v295q0 27 12 31q24 6 42 6q0 -4 -1.5 -66.5t-1.5 -113.5v-168q0 -65 51 -71v-3q-1 -10 -11.5 -21t-23.5 -11
q-24 0 -43 20.5t-20 53.5q-66 -73 -148 -73q-77 2 -106 54z" />
    <glyph glyph-name="pi" unicode="&#x3c0;" horiz-adv-x="540" 
d="M361 79v316h-174q0 -82 -13.5 -217t-27.5 -176q-3 -10 -5 -12t-10 -2q-19 0 -37 12q18 60 31 175.5t13 219.5q-74 0 -100 -7q-2 10 -8 28q11 12 29 17t65 5h386v-12q-1 -31 -38 -31h-60v-305q0 -40 13.5 -53t46.5 -14q0 -13 -11 -30q-12 -7 -34 -7q-66 0 -66 93z" />
    <glyph glyph-name="Wgrave" unicode="&#x1e80;" horiz-adv-x="885" 
d="M453 628h1q8 0 15 -16q82 -258 162 -537q185 534 191 553q18 0 36 -8q9 -5 -2 -36q-8 -23 -197 -546q-11 -29 -21 -39q-11 -11 -30 -11q-14 49 -164 546q-22 -75 -82 -265t-72 -232q-10 -32 -23 -40q-16 -9 -28 -9q-124 396 -210 624q28 16 45 16q7 0 12.5 -11t19.5 -54
q13 -43 70 -220t84 -270q86 291 163 524q-4 22 -4 23q14 8 34 8zM351 776h1q13 0 60 -27.5t73 -50.5q12 -8 3 -17q-2 -3 -15 -16q-83 46 -157 69q-9 3 -4 9q5 11 17.5 22t21.5 11z" />
    <glyph glyph-name="wgrave" unicode="&#x1e81;" horiz-adv-x="656" 
d="M64 446h1q9 0 14 -14q66 -187 122 -361q91 254 116 328q-3 12 -7 21q19 14 35 14q10 0 24 -47q6 -20 102 -311q93 266 132 370q14 0 33 -13q10 -10 -8 -59q-21 -54 -61 -160.5t-70 -185.5q-9 -25 -24 -32q-13 -5 -23 -8q-33 108 -113 351q-63 -188 -113 -318
q-8 -19 -18 -23q-19 -9 -27 -10q-7 18 -39.5 116t-53.5 155q-49 134 -64 166q21 21 42 21zM271 680h1q8 -1 38.5 -52t45.5 -86q6 -15 -2 -23q-15 -13 -17 -14q-55 84 -101 136q-10 8 3 20q19 19 32 19z" />
    <glyph glyph-name="Wacute" unicode="&#x1e82;" horiz-adv-x="885" 
d="M453 628h1q8 0 15 -16q82 -258 162 -537q185 534 191 553q18 0 36 -8q9 -5 -2 -36q-8 -23 -197 -546q-11 -29 -21 -39q-11 -11 -30 -11q-14 49 -164 546q-22 -75 -82 -265t-72 -232q-10 -32 -23 -40q-16 -9 -28 -9q-124 396 -210 624q28 16 45 16q7 0 12.5 -11t19.5 -54
q13 -43 70 -220t84 -270q86 291 163 524q-4 22 -4 23q14 8 34 8zM545 777q8 -3 19 -15.5t13 -20.5q6 -15 -12 -18q-39 -11 -167 -58q-8 5 -12 16q-5 12 8 20q31 20 84 47.5t67 28.5z" />
    <glyph glyph-name="wacute" unicode="&#x1e83;" horiz-adv-x="656" 
d="M64 446h1q9 0 14 -14q66 -187 122 -361q91 254 116 328q-3 12 -7 21q19 14 35 14q10 0 24 -47q6 -20 102 -311q93 266 132 370q14 0 33 -13q10 -10 -8 -59q-21 -54 -61 -160.5t-70 -185.5q-9 -25 -24 -32q-13 -5 -23 -8q-33 108 -113 351q-63 -188 -113 -318
q-8 -19 -18 -23q-19 -9 -27 -10q-7 18 -39.5 116t-53.5 155q-49 134 -64 166q21 21 42 21zM385 678h1q8 0 20 -6t18 -13q8 -7 -3 -19q-45 -52 -101 -138q-8 4 -19 17q-5 6 5 26q16 35 44 84t35 49z" />
    <glyph glyph-name="Wdieresis" unicode="&#x1e84;" horiz-adv-x="885" 
d="M453 628h1q8 0 15 -16q82 -258 162 -537q185 534 191 553q18 0 36 -8q9 -5 -2 -36q-8 -23 -197 -546q-11 -29 -21 -39q-11 -11 -30 -11q-14 49 -164 546q-22 -75 -82 -265t-72 -232q-10 -32 -23 -40q-16 -9 -28 -9q-124 396 -210 624q28 16 45 16q7 0 12.5 -11t19.5 -54
q13 -43 70 -220t84 -270q86 291 163 524q-4 22 -4 23q14 8 34 8zM356 743h1q15 0 25 -11t10 -27q0 -19 -10.5 -29.5t-26.5 -10.5t-26.5 9.5t-10.5 28.5q0 17 10.5 28.5t27.5 11.5zM535 743h1q15 0 25 -11t10 -27q0 -19 -10.5 -29.5t-28.5 -10.5q-14 0 -25 9.5t-11 28.5
q0 17 10.5 28.5t28.5 11.5z" />
    <glyph glyph-name="wdieresis" unicode="&#x1e85;" horiz-adv-x="656" 
d="M64 446h1q9 0 14 -14q66 -187 122 -361q91 254 116 328q-3 12 -7 21q19 14 35 14q10 0 24 -47q6 -20 102 -311q93 266 132 370q14 0 33 -13q10 -10 -8 -59q-21 -54 -61 -160.5t-70 -185.5q-9 -25 -24 -32q-13 -5 -23 -8q-33 108 -113 351q-63 -188 -113 -318
q-8 -19 -18 -23q-19 -9 -27 -10q-7 18 -39.5 116t-53.5 155q-49 134 -64 166q21 21 42 21zM253 612h1q14 0 24 -11t10 -26q0 -19 -10.5 -29.5t-26.5 -10.5q-15 0 -25.5 9.5t-10.5 27.5q0 17 10.5 28.5t27.5 11.5zM406 612h1q15 0 24.5 -11t9.5 -26q0 -19 -10.5 -29.5
t-27.5 -10.5q-14 0 -24.5 9.5t-10.5 27.5t10 29t28 11z" />
    <glyph glyph-name="Ygrave" unicode="&#x1ef2;" horiz-adv-x="544" 
d="M244 12v255q0 31 -7 41q-37 56 -109.5 158t-108.5 148v3q24 11 46 11q10 0 40 -42q33 -49 174 -248q26 35 108.5 150.5t97.5 139.5q11 0 30 -7q17 -6 -3 -34q-13 -17 -103.5 -140.5t-99.5 -134.5q-10 -12 -10 -38v-152q0 -60 3 -120q-14 -8 -46 -8q-12 0 -12 18zM188 763
h1q13 0 60 -27.5t73 -50.5q12 -8 3 -17q-2 -3 -15 -16q-83 46 -157 69q-9 3 -4 9q5 11 17.5 22t21.5 11z" />
    <glyph glyph-name="ygrave" unicode="&#x1ef3;" horiz-adv-x="406" 
d="M45 -205v2q84 109 141 224q-5 6 -22 46q-83 234 -142 360q24 19 41 19q11 0 15 -10q13 -30 68.5 -180.5t67.5 -180.5q32 65 73.5 182.5t59.5 188.5q25 2 36 -7q10 -9 3 -31q-64 -197 -114 -312q-31 -71 -74 -147.5t-74.5 -122t-39.5 -45.5q-25 0 -39 14zM146 680h1
q8 -1 38.5 -52t45.5 -86q6 -15 -2 -23q-15 -13 -17 -14q-55 84 -101 136q-10 8 3 20q19 19 32 19z" />
    <glyph glyph-name="figuredash" unicode="&#x2012;" horiz-adv-x="386" 
d="M71 314h275l-3 -15q-6 -29 -22 -29h-281l2 15q4 29 29 29z" />
    <glyph glyph-name="endash" unicode="&#x2013;" horiz-adv-x="545" 
d="M80 266h418l-3 -16q-6 -30 -23 -30h-424l2 14q6 32 30 32z" />
    <glyph glyph-name="emdash" unicode="&#x2014;" horiz-adv-x="926" 
d="M80 266h799l-5 -27q-4 -19 -21 -19h-805l2 14q6 32 30 32z" />
    <glyph glyph-name="quoteleft" unicode="&#x2018;" horiz-adv-x="161" 
d="M35 505v1q0 37 17.5 82.5t34.5 66.5q17 19 47 18q-41 -87 -41 -156q0 -27 2 -36q-16 -20 -36 -20q-24 0 -24 44z" />
    <glyph glyph-name="quoteright" unicode="&#x2019;" horiz-adv-x="161" 
d="M128 623v-1q0 -36 -18 -82t-35 -66q-16 -19 -46 -18q41 87 41 156q0 23 -2 36q14 20 37 20t23 -45z" />
    <glyph glyph-name="quotesinglbase" unicode="&#x201a;" horiz-adv-x="152" 
d="M90 105h1q26 0 26 -52q0 -40 -24.5 -89.5t-48.5 -67.5q-10 -8 -37 -7q21 32 36 75t15 78q0 25 -5 43q20 20 37 20z" />
    <glyph glyph-name="quotedblleft" unicode="&#x201c;" horiz-adv-x="294" 
d="M35 505v1q0 37 17.5 82.5t34.5 66.5q17 19 47 18q-41 -87 -41 -156q0 -27 2 -36q-16 -20 -36 -20q-24 0 -24 44zM168 505v1q0 37 17.5 82.5t34.5 66.5q17 19 47 18q-41 -87 -41 -156q0 -23 2 -36q-16 -20 -37 -20q-23 0 -23 44z" />
    <glyph glyph-name="quotedblright" unicode="&#x201d;" horiz-adv-x="294" 
d="M128 623v-1q0 -36 -18 -82t-35 -66q-14 -19 -46 -18q41 87 41 156q0 23 -2 36q14 20 37 20t23 -45zM261 623v-1q0 -36 -17.5 -82t-34.5 -66q-16 -19 -47 -18q41 87 41 156q0 30 -2 36q14 20 37 20t23 -45z" />
    <glyph glyph-name="quotedblbase" unicode="&#x201e;" horiz-adv-x="277" 
d="M117 53v-1q0 -40 -24.5 -89t-48.5 -67q-10 -9 -37 -7q21 32 36 75t15 78q0 25 -5 43q20 20 37 20q27 0 27 -52zM242 53v-1q0 -40 -24.5 -89t-48.5 -67q-10 -8 -38 -7q22 32 37 75t15 78q0 25 -5 43q25 20 38 20q14 0 20 -17.5t6 -34.5z" />
    <glyph glyph-name="dagger" unicode="&#x2020;" horiz-adv-x="440" 
d="M57 398h125v185q5 5 21.5 12t23.5 7t7 -15l-4 -189h169q-12 -31 -34 -35q-13 -3 -136 -3q0 -257 -3 -376q-1 -34 -8.5 -65t-14.5 -31q-17 0 -19 92q-2 90 -3 219.5t1 161.5h-149q2 25 24 37z" />
    <glyph glyph-name="daggerdbl" unicode="&#x2021;" horiz-adv-x="437" 
d="M56 417h125v167q23 18 40 18q11 0 11 -19l-4 -166h169q-8 -27 -34 -33q-14 -4 -135 -4v-145h169q-10 -28 -37 -33q-21 -3 -132 -3q-3 -182 -4 -215q-1 -41 -7 -68t-14 -27t-14.5 25.5t-7.5 65.5q-1 72 -1 219h-147q0 4 7 17t16 19h125v146h-148q0 5 7 18t16 18z" />
    <glyph glyph-name="bullet" unicode="&#x2022;" horiz-adv-x="277" 
d="M139 329h1q38 0 62 -26t24 -65q0 -43 -24.5 -68t-65.5 -25q-34 0 -59.5 26.5t-25.5 66.5q0 37 24 64t64 27z" />
    <glyph glyph-name="onedotenleader" unicode="&#x2024;" horiz-adv-x="500" 
d="M254 73h1q16 0 26 -12t10 -28q0 -20 -10.5 -32t-29.5 -12q-15 0 -27 10.5t-12 29.5t11 31.5t31 12.5z" />
    <glyph glyph-name="twodotenleader" unicode="&#x2025;" horiz-adv-x="500" 
d="M123 73h1q16 0 26 -12t10 -28q0 -20 -10.5 -32t-29.5 -12q-15 0 -27 10.5t-12 29.5t11 31.5t31 12.5zM387 73h1q16 0 26 -12t10 -28q0 -20 -11 -32t-29 -12q-15 0 -27 10.5t-12 29.5t11 31.5t31 12.5z" />
    <glyph glyph-name="ellipsis" unicode="&#x2026;" horiz-adv-x="781" 
d="M123 74h1q15 0 25.5 -12.5t10.5 -28.5q0 -19 -11.5 -31.5t-30.5 -12.5q-15 0 -27.5 11t-12.5 31q0 18 12.5 30.5t32.5 12.5zM383 74h1q15 0 25.5 -12.5t10.5 -28.5q0 -19 -11.5 -31.5t-30.5 -12.5q-15 0 -27.5 11t-12.5 31q0 18 12.5 30.5t32.5 12.5zM643 74h1
q15 0 25.5 -12.5t10.5 -28.5q0 -19 -11.5 -31.5t-30.5 -12.5q-15 0 -27.5 11t-12.5 31q0 18 12.5 30.5t32.5 12.5z" />
    <glyph glyph-name="perthousand" unicode="&#x2030;" horiz-adv-x="944" 
d="M163 602h1q65 0 95.5 -47.5t30.5 -117.5q0 -68 -33.5 -117t-96.5 -49q-54 0 -90.5 42t-36.5 120q0 67 34 118t96 51zM162 568h-1q-38 0 -59 -39.5t-21 -94.5q0 -51 20 -90t58 -39q40 0 61.5 36.5t21.5 100.5q0 45 -19.5 85.5t-60.5 40.5zM538 598q-39 -62 -169 -274.5
t-218 -351.5q-8 -15 -19 -4q-11 9 -11 25q338 550 385 628q8 12 22 -3q8 -10 10 -20zM504 319h1q63 0 91.5 -50t28.5 -119q0 -68 -33 -115t-93 -47q-53 0 -91.5 38t-38.5 120q0 72 35.5 122.5t99.5 50.5zM499 285h-1q-40 0 -60.5 -41t-20.5 -97q0 -50 20 -87.5t61 -37.5
q37 0 58 35t21 97q0 31 -5 57.5t-24 50t-49 23.5zM790 319h1q44 0 72.5 -27t38.5 -63t10 -79q0 -68 -33 -115t-93 -47q-52 0 -91 38t-39 120q0 72 35.5 122.5t98.5 50.5zM786 285h-1q-39 0 -60 -41t-21 -97q0 -48 21 -86.5t61 -38.5q78 0 78 132q0 21 -3 41.5t-11 42
t-24.5 34.5t-39.5 13z" />
    <glyph glyph-name="guilsinglleft" unicode="&#x2039;" horiz-adv-x="380" 
d="M225 54v-1q0 -26 -22 -36q-86 122 -145 189q-8 13 -8 25q106 115 162 197q17 -22 17 -42q0 -11 -26.5 -46.5t-59 -73.5t-36.5 -44q118 -147 118 -168z" />
    <glyph glyph-name="guilsinglright" unicode="&#x203a;" horiz-adv-x="380" 
d="M155 391v1q0 26 22 36q86 -122 145 -189q8 -13 8 -25q-14 -17 -47.5 -56t-62 -74t-51.5 -67q-18 20 -18 42q0 11 27 46.5t59 73t36 43.5q-2 2 -18 23t-31 40t-32 42.5t-27 40.5t-10 23z" />
    <glyph glyph-name="fraction" unicode="&#x2044;" horiz-adv-x="69" 
d="M218 573q-50 -84 -360 -619q-11 -19 -21 -5q-6 8 -12 27q343 592 361 624q8 14 17 1q13 -15 15 -28z" />
    <glyph glyph-name="zerosuperior" unicode="&#x2070;" 
d="M138 750h1q115 0 115 -171q0 -63 -27 -109.5t-90 -46.5q-42 0 -69.5 29.5t-36 62.5t-8.5 68q0 72 30 119.5t85 47.5zM138 718h-1q-35 0 -53 -36.5t-18 -91.5q0 -57 21.5 -96t54.5 -39q69 0 69 133q0 52 -18.5 91t-54.5 39z" />
    <glyph glyph-name="foursuperior" unicode="&#x2074;" 
d="M233 767l2 -2q-94 -92 -176 -217q22 -3 115 -5l2 81q19 13 35 17h7v-97q22 0 47 5l2 -4q-7 -16 -21 -29q-2 -1 -28 -6v-77q-32 -8 -43 -10l-3 2q2 44 2 84q-113 0 -147 7q-16 16 -16 25q25 42 76 106.5t77 89.5q8 8 31 18.5t38 11.5z" />
    <glyph glyph-name="fivesuperior" unicode="&#x2075;" 
d="M32 447l2 2q45 -12 73 -12q38 0 65 17.5t27 58.5q0 39 -53 57q-43 13 -101 17l-2 4q12 91 32 150q25 2 59.5 4t56.5 3t34 2q1 -12 -3 -25q-7 -13 -26 -15q-23 -2 -55 -3t-41 -2q-3 -9 -6 -23t-6.5 -33t-5.5 -28q75 -10 102 -21q63 -23 63 -84q0 -55 -42 -84t-99 -29
q-44 0 -62 14q-10 8 -12 30z" />
    <glyph glyph-name="sixsuperior" unicode="&#x2076;" 
d="M259 750v-2q-73 -14 -113 -44q-73 -54 -73 -151q0 -51 21.5 -75t49.5 -24q27 0 44 19.5t17 50.5q0 65 -59 65q-21 0 -53 -16q-1 3 3 14.5t10 16.5q27 20 63 20q39 0 61 -26.5t22 -66.5q0 -43 -29.5 -75.5t-83.5 -32.5q-47 0 -79.5 32.5t-32.5 96.5q0 98 74 161
q63 53 127 53q20 0 31 -16z" />
    <glyph glyph-name="sevensuperior" unicode="&#x2077;" 
d="M250 743l3 -4q-21 -74 -53.5 -146t-54.5 -107.5t-31 -44.5q-13 -14 -28 -20q-14 -5 -33 -5l-1 2q101 119 152 288q-7 0 -52 -0.5t-92 -0.5q-21 0 -26.5 3.5t-2.5 12.5q9 18 24 26q18 -4 59 -4h136z" />
    <glyph glyph-name="eightsuperior" unicode="&#x2078;" 
d="M140 750h1q38 0 67 -21.5t29 -59.5q0 -39 -58 -76q34 -15 52.5 -33.5t18.5 -48.5q0 -40 -31 -64t-82 -24q-48 0 -79.5 21.5t-31.5 62.5q0 23 15 41.5t55 40.5q-57 29 -57 77q0 36 30 60t71 24zM194 669v1q0 21 -15.5 36t-42.5 15q-23 0 -39 -13.5t-16 -37.5
q0 -19 16.5 -34t53.5 -30q43 25 43 63zM140 452h1q27 0 46 13.5t19 40.5q0 19 -14.5 33.5t-26.5 20t-40 16.5q-55 -25 -55 -65q0 -23 19 -41t51 -18z" />
    <glyph glyph-name="ninesuperior" unicode="&#x2079;" 
d="M34 432v3q74 20 114 56q53 48 53 137q0 45 -20 68t-46 23t-44 -17.5t-18 -52.5q0 -30 18 -46.5t44 -16.5q23 0 42 7q0 -17 -10 -25q-19 -15 -53 -15q-39 0 -62.5 26.5t-23.5 62.5q0 47 31 77.5t79 30.5q53 0 82 -35t29 -89q0 -96 -69 -158q-28 -25 -62 -38.5t-53 -13.5
q-17 0 -31 16z" />
    <glyph glyph-name="parenleftsuperior" unicode="&#x207d;" horiz-adv-x="216" 
d="M35 601v1q0 90 34 164t89 119q11 0 18.5 -6.5t6.5 -15.5q-106 -96 -106 -251q0 -158 106 -252q-14 -25 -27 -19q-42 26 -81.5 96.5t-39.5 163.5z" />
    <glyph glyph-name="parenrightsuperior" unicode="&#x207e;" horiz-adv-x="219" 
d="M184 625v-1q0 -90 -33.5 -164t-88.5 -119q-11 0 -19 6.5t-7 15.5q106 96 106 252q0 157 -106 251q14 25 28 19q42 -26 81 -96.5t39 -163.5z" />
    <glyph glyph-name="nsuperior" unicode="&#x207f;" horiz-adv-x="354" 
d="M256 285v163q0 85 -68 85q-29 0 -52 -16t-35 -38v-184q0 -10 -3.5 -13t-11.5 -4q-11 0 -19.5 -0.5t-12.5 -0.5v20.5t0.5 44.5t0.5 59v109q0 31 -18 38v2q12 22 27 22q13 0 23.5 -13t11.5 -39q39 52 103 52q50 0 75 -31t25 -83v-100q0 -50 4 -76q-32 -5 -42 -5
q-5 1 -5.5 1.5t-2.5 6.5z" />
    <glyph glyph-name="zeroinferior" unicode="&#x2080;" 
d="M138 198h1q115 0 115 -171q0 -63 -27 -109.5t-90 -46.5q-42 0 -69.5 29.5t-36 62.5t-8.5 68q0 72 30 119.5t85 47.5zM138 166h-1q-35 0 -53 -36.5t-18 -91.5q0 -57 21.5 -96t54.5 -39q69 0 69 133q0 52 -18.5 91t-54.5 39z" />
    <glyph glyph-name="oneinferior" unicode="&#x2081;" 
d="M185 198l7 -3q0 -6 -1 -64.5t-1.5 -128.5t-0.5 -112q0 -16 -22 -17l-25 -2q3 21 3 269q-40 -14 -84 -17l-2 3l12 26q50 12 114 46z" />
    <glyph glyph-name="twoinferior" unicode="&#x2082;" 
d="M29 119l-2 1q0 10 8 37q39 41 95 41q46 0 74.5 -27t28.5 -74q0 -15 -5 -30t-16 -30.5t-20 -27.5t-27 -28t-26.5 -24t-28 -24t-23.5 -19q94 -4 170 4q0 -20 -26 -37q-24 -6 -82 -6q-91 0 -126 6l-2 4q12 22 14 26q51 45 74 66t47 55.5t24 62.5q0 30 -17 46t-45 16
q-51 0 -89 -38z" />
    <glyph glyph-name="threeinferior" unicode="&#x2083;" 
d="M77 11l-3 4q10 19 15 26q41 7 64 21.5t23 45.5q0 24 -16 37.5t-40 13.5q-16 0 -37 -10t-33 -22q-11 7 -11 18q0 9 8 16q38 35 84 35q39 0 64.5 -20.5t25.5 -58.5q0 -46 -50 -75q71 -18 71 -83q0 -49 -42.5 -79t-98.5 -30q-47 0 -61 16q-10 10 -10 26l1 2q26 -10 64 -10
q47 0 73 20t26 51q0 61 -74 61q-23 0 -43 -5z" />
    <glyph glyph-name="fourinferior" unicode="&#x2084;" 
d="M233 215l2 -2q-94 -92 -176 -217q22 -3 115 -5l2 81q19 13 35 17h7v-97q22 0 47 5l2 -4q-7 -16 -21 -29q-2 -1 -28 -6v-77q-32 -8 -43 -10l-3 2q2 44 2 84q-113 0 -147 7q-16 16 -16 25q25 42 76 106.5t77 89.5q8 8 31 18.5t38 11.5z" />
    <glyph glyph-name="fiveinferior" unicode="&#x2085;" 
d="M32 -105l2 2q45 -12 73 -12q38 0 65 17.5t27 58.5q0 39 -53 57q-43 13 -101 17l-2 4q12 91 32 150q25 2 59.5 4t56.5 3t34 2q1 -12 -3 -25q-7 -13 -26 -15q-23 -2 -55 -3t-41 -2q-3 -9 -6 -23t-6.5 -33t-5.5 -28q75 -10 102 -21q63 -23 63 -84q0 -55 -42 -84t-99 -29
q-44 0 -62 14q-10 8 -12 30z" />
    <glyph glyph-name="sixinferior" unicode="&#x2086;" 
d="M259 198v-2q-73 -14 -113 -44q-73 -54 -73 -151q0 -51 21.5 -75t49.5 -24q27 0 44 19.5t17 50.5q0 65 -59 65q-21 0 -53 -16q-1 3 3 14.5t10 16.5q27 20 63 20q39 0 61 -26.5t22 -66.5q0 -43 -29.5 -75.5t-83.5 -32.5q-47 0 -79.5 32.5t-32.5 96.5q0 98 74 161
q63 53 127 53q20 0 31 -16z" />
    <glyph glyph-name="seveninferior" unicode="&#x2087;" 
d="M250 191l3 -4q-21 -74 -53.5 -146t-54.5 -107.5t-31 -44.5q-13 -14 -28 -20q-14 -5 -33 -5l-1 2q101 119 152 288q-7 0 -52 -0.5t-92 -0.5q-21 0 -26.5 3.5t-2.5 12.5q9 18 24 26q18 -4 59 -4h136z" />
    <glyph glyph-name="eightinferior" unicode="&#x2088;" 
d="M140 198h1q38 0 67 -21.5t29 -59.5q0 -39 -58 -76q34 -15 52.5 -33.5t18.5 -48.5q0 -40 -31 -64t-82 -24q-48 0 -79.5 21.5t-31.5 62.5q0 23 15 41.5t55 40.5q-57 29 -57 77q0 36 30 60t71 24zM194 117v1q0 21 -15.5 36t-42.5 15q-23 0 -39 -13.5t-16 -37.5
q0 -19 16.5 -34t53.5 -30q43 25 43 63zM140 -100h1q27 0 46 13.5t19 40.5q0 19 -14.5 33.5t-26.5 20t-40 16.5q-55 -25 -55 -65q0 -23 19 -41t51 -18z" />
    <glyph glyph-name="nineinferior" unicode="&#x2089;" 
d="M34 -120v3q74 20 114 56q53 48 53 137q0 45 -20 68t-46 23t-44 -17.5t-18 -52.5q0 -30 18 -46.5t44 -16.5q23 0 42 7q0 -17 -10 -25q-19 -15 -53 -15q-39 0 -62.5 26.5t-23.5 62.5q0 47 31 77.5t79 30.5q53 0 82 -35t29 -89q0 -96 -69 -158q-28 -25 -62 -38.5t-53 -13.5
q-17 0 -31 16z" />
    <glyph glyph-name="parenleftinferior" unicode="&#x208d;" horiz-adv-x="216" 
d="M35 49v1q0 90 34 164t89 119q11 0 18.5 -6.5t6.5 -15.5q-106 -96 -106 -251q0 -158 106 -252q-14 -25 -27 -19q-42 26 -81.5 96.5t-39.5 163.5z" />
    <glyph glyph-name="parenrightinferior" unicode="&#x208e;" horiz-adv-x="219" 
d="M184 73v-1q0 -90 -33.5 -164t-88.5 -119q-11 0 -19 6.5t-7 15.5q106 96 106 252q0 157 -106 251q14 25 28 19q42 -26 81 -96.5t39 -163.5z" />
    <glyph glyph-name="colonmonetary" unicode="&#x20a1;" horiz-adv-x="441" 
d="M289 563l8 41q1 10 9 12q18 4 33 1l-10 -56q34 -5 59.5 -17.5t29.5 -21.5q-3 -13 -10 -22q-7 -8 -16 -2q-40 21 -72 25l-78 -480q30 -7 59 -7q57 0 99 21l3 -3q-5 -30 -21 -39q-30 -17 -90 -17q-36 0 -58 5l-10 -54q-1 -7 -17 -11q-9 -1 -26 -1l14 74q-70 19 -114.5 87.5
t-44.5 174.5q0 126 69 208.5t184 81.5zM201 54l80 471q-86 -1 -140 -69.5t-54 -175.5q0 -96 32.5 -151t81.5 -75z" />
    <glyph glyph-name="Euro" unicode="&#x20ac;" horiz-adv-x="441" 
d="M411 56l2 -3q0 -24 -18 -40q-27 -25 -99 -25q-98 0 -153.5 61.5t-66.5 176.5h-66q6 26 13 33t28 7h22q0 40 1 58h-46q6 26 13 33t28 7h10q17 98 78 168t154 70q73 0 106 -33q4 -9 -2 -17q-1 -6 -9 -10t-12 -2q-36 22 -80 22q-68 0 -118 -49.5t-64 -148.5h235
q-1 -27 -11 -33.5t-32 -6.5h-196q-2 -29 0 -58h212q-5 -26 -13 -33t-32 -7h-164q11 -95 56.5 -146.5t119.5 -51.5q58 0 104 28z" />
    <glyph glyph-name="afii61289" unicode="&#x2113;" horiz-adv-x="419" 
d="M162 254v-70q0 -89 25.5 -119.5t70.5 -30.5q33 0 60.5 20t55.5 75q14 -1 20.5 -11t0.5 -24q-26 -56 -61.5 -81t-90.5 -25q-135 0 -135 170v54q-5 -4 -28 -20t-29 -19q-11 -7 -15 -7t-12 9l-7 13l1 6q21 13 90 63v231q0 222 122 222q45 0 67 -38.5t22 -105.5
q0 -151 -157 -312zM162 522v-216q108 127 108 264q0 51 -14 77.5t-37 26.5q-57 0 -57 -152z" />
    <glyph glyph-name="afii61352" unicode="&#x2116;" horiz-adv-x="804" 
d="M63 612v6q30 10 41 10q7 0 23 -16q21 -21 40 -46.5t38.5 -63.5t30.5 -61.5t34 -75.5t32 -71l27 -60t29 -64t25.5 -52t26.5 -44q-4 95 -4 245v277q0 16 3.5 21t13.5 7q25 4 29 4q-3 -64 -3 -184v-444q-16 -13 -26 -13q-3 0 -9 3q-48 38 -154 280q-94 220 -129 263
q4 -131 4 -248v-255q0 -18 -4 -23.5t-15 -8.5q-19 -4 -27 -4q3 60 3 182v402zM632 311h-1q-68 0 -103 46.5t-35 97.5q0 67 40 110t100 43q67 0 101.5 -41t36.5 -105q1 -62 -39 -106.5t-100 -44.5zM632 572h-1q-40 0 -64.5 -33.5t-24.5 -77.5q0 -56 27 -85t63 -29
q37 0 63.5 29.5t26.5 86.5q0 51 -27 80t-63 29zM514 210l-3 4q10 36 31 38q173 21 213 31l3 -3q-7 -21 -18.5 -29.5t-38.5 -15.5q-25 -7 -88.5 -15t-98.5 -10z" />
    <glyph glyph-name="trademark" unicode="&#x2122;" horiz-adv-x="435" 
d="M92 461v142h-59q-7 0 -6 8q6 11 12 16q4 -1 43 -1h107q0 -14 -16 -23h-53v-111q0 -11 0.5 -22t0.5 -12l-21 -3q-8 0 -8 6zM384 618l15 -99q2 -16 6 -36.5t5 -24.5q-10 -5 -26 -5q-7 0 -7 7l-6 48l-9 74q-14 -26 -60 -122q-11 -2 -16 -2q-5 13 -52 119q-8 -60 -20 -117
q-1 -7 -6 -7q-11 0 -21 5q3 14 14 69t17 83l-3 11q12 6 25 6q2 0 18 -35l41 -86q12 26 59 113v3q12 5 22 5q2 0 4 -9z" />
    <glyph glyph-name="Omega" unicode="&#x2126;" horiz-adv-x="725" 
d="M56 48l4 1q16 -9 107 -9q47 0 56 3q2 1 1 3.5t-3 4.5q-61 37 -104 107t-43 172q0 130 83.5 220t221.5 90q122 0 201 -82.5t79 -201.5q0 -50 -11.5 -95t-24.5 -73.5t-38.5 -60t-38 -43.5t-37.5 -35q-4 -4 2 -5q14 -6 67 -5q116 0 126 3l3 -3q0 -14 -10.5 -26t-26.5 -15
q-13 -2 -43 -3t-73.5 -1h-59.5q-60 0 -76 7l-3 6q12 20 17 29q78 43 123.5 124.5t45.5 175.5q0 125 -64.5 195t-168.5 70q-42 0 -81.5 -15t-74.5 -45t-56 -83t-21 -122q0 -107 49 -182.5t119 -117.5l1 -7q-12 -18 -16 -21q-7 -7 -23 -9q-8 0 -54.5 -2t-83.5 -2q-80 0 -97 8
q-13 4 -6 15q4 6 11.5 13t14.5 12z" />
    <glyph glyph-name="estimated" unicode="&#x212e;" horiz-adv-x="744" 
d="M714 286h-551q-6 0 -6 -4v-166q0 -10 8 -20q86 -91 209 -91q132 0 219 102h50q-47 -55 -118 -87t-152 -32q-141 0 -240.5 90t-99.5 217t99.5 217t240.5 90q142 0 241.5 -90t99.5 -217v-9zM589 308v169q0 12 -8 20q-85 87 -207 87q-120 0 -208 -90q-9 -11 -9 -21v-165
q0 -5 6 -5h422q4 0 4 5z" />
    <glyph glyph-name="onethird" unicode="&#x2153;" horiz-adv-x="635" 
d="M177 602l7 -3q0 -5 -0.5 -64t-1 -129t-0.5 -112q0 -16 -21 -17l-26 -2q2 14 2 269q-43 -14 -85 -16l-2 4l13 24q50 12 114 46zM510 594q-185 -308 -379 -621q-8 -15 -18 -5q-13 10 -15 25q237 380 380 622q9 15 20 1q10 -11 12 -22zM477 319h1q38 0 62.5 -20.5
t24.5 -58.5q0 -40 -48 -73q72 -18 72 -84q0 -51 -43 -81t-99 -30q-45 0 -61 16q-9 12 -10 25l2 3q27 -9 63 -9q47 0 73 20.5t26 51.5q0 32 -21 47t-54 15q-23 0 -43 -5l-4 4l6 10q6 9 11 16q26 5 41 10t28.5 19t13.5 36q0 25 -15 38t-38 13q-35 0 -67 -30q-11 9 -11 18
q0 7 9 16q33 33 81 33z" />
    <glyph glyph-name="twothirds" unicode="&#x2154;" horiz-adv-x="635" 
d="M146 602h1q45 0 72.5 -27t27.5 -74q0 -15 -4.5 -30t-16 -31t-20 -27t-27 -28t-26 -24t-28 -24t-23.5 -19q94 -4 170 4q-2 -21 -27 -37q-24 -6 -81 -6q-93 0 -128 6l-1 4l15 26q50 43 74.5 66t48 57t23.5 62q0 30 -17.5 46t-45.5 16q-46 0 -89 -41l-4 2q-1 20 11 39
q40 40 95 40zM522 594q-185 -308 -379 -621q-10 -15 -18 -5q-15 11 -15 25q298 485 380 622q9 15 21 1q9 -12 11 -22zM480 319h1q38 0 62.5 -20.5t24.5 -58.5q0 -40 -49 -73q73 -18 73 -84q0 -51 -42 -81t-98 -30q-49 0 -64 17q-9 9 -11 27l2 2q26 -11 67 -11q47 0 72 20
t25 52q0 62 -76 62q-22 0 -42 -5l-4 5q5 10 16 25q26 5 41.5 10t29 19t13.5 36q0 25 -14.5 38t-38.5 13q-35 0 -67 -30q-11 7 -11 18q0 8 8 16q36 33 82 33z" />
    <glyph glyph-name="oneeighth" unicode="&#x215b;" horiz-adv-x="635" 
d="M176 602l5 -3q0 -5 -0.5 -64t-1 -129t-0.5 -112q0 -16 -21 -17l-26 -2q2 14 2 269q-47 -15 -85 -17l-2 4l13 25q53 13 116 46zM503 594q-175 -294 -378 -621q-10 -15 -18 -5q-15 11 -15 25q233 376 379 622q9 15 21 1q9 -12 11 -22zM479 319h1q38 0 67 -22t29 -60
q0 -41 -57 -75q35 -17 53.5 -34.5t18.5 -47.5q0 -40 -31.5 -64t-82.5 -24q-48 0 -80 21.5t-32 62.5q0 22 15.5 40t55.5 41q-58 30 -58 78q0 36 30 60t71 24zM534 237v1q0 22 -16 37t-43 15q-22 0 -38.5 -14t-16.5 -38q0 -36 71 -64q23 14 33 27.5t10 35.5zM480 21h1
q27 0 46.5 13.5t19.5 40.5q0 17 -12.5 30.5t-25.5 20t-36 15.5q-5 2 -8 3q-56 -26 -56 -65q0 -23 19 -40.5t52 -17.5z" />
    <glyph glyph-name="threeeighths" unicode="&#x215c;" horiz-adv-x="635" 
d="M143 600h1q38 0 62.5 -20.5t24.5 -57.5q0 -41 -48 -74q72 -18 72 -84q0 -50 -41 -80t-97 -30q-48 0 -65 17q-10 10 -10 29l1 2q39 -13 71 -13q46 0 69 20t23 52q0 61 -75 61q-23 0 -44 -5l-3 4q8 16 17 26q26 5 41 10t28.5 19.5t13.5 36.5q0 24 -15 37t-38 13
q-35 0 -67 -30q-11 9 -11 18q0 7 9 16q33 33 81 33zM518 594q-150 -255 -378 -621q-10 -15 -18 -5q-15 11 -15 25q208 333 379 622q9 15 21 1q9 -12 11 -22zM479 319h1q38 0 67 -22t29 -60q0 -40 -58 -75q17 -7 28 -13.5t22.5 -16.5t17 -23t5.5 -29q0 -40 -31.5 -64
t-82.5 -24q-48 0 -80 21.5t-32 62.5q0 23 15 41.5t55 40.5q-57 29 -57 77q0 36 30 60t71 24zM533 237v1q0 22 -15.5 37t-42.5 15q-22 0 -38.5 -14t-16.5 -38q0 -37 70 -64q23 14 33 27.5t10 35.5zM480 21h1q27 0 46.5 13.5t19.5 40.5q0 13 -5.5 23.5t-20.5 19.5t-21.5 12
t-28.5 12q-5 2 -7 3q-55 -25 -55 -65q0 -23 19 -41t52 -18z" />
    <glyph glyph-name="fiveeighths" unicode="&#x215d;" horiz-adv-x="635" 
d="M40 295l2 3q32 -9 69 -9q38 0 67 17.5t29 58.5q0 40 -53 58q-48 14 -101 20l-2 7q10 78 32 143q24 1 59 3.5t56.5 3.5t33.5 2q2 -14 -4 -25q-7 -14 -24 -15q-23 -2 -55 -3t-41 -2q-6 -22 -19 -80q69 -11 103 -23q64 -25 64 -85q0 -54 -44 -84t-100 -30q-45 0 -60 13
q-10 6 -12 27zM520 594q-153 -257 -379 -621q-10 -15 -18 -5q-15 11 -15 25q210 335 380 622q9 15 21 1q9 -12 11 -22zM481 319h1q38 0 67 -22t29 -60q0 -40 -58 -75q35 -17 54 -34.5t19 -47.5q0 -40 -31.5 -64t-82.5 -24q-48 0 -80 21.5t-32 62.5q0 23 15 41.5t55 40.5
q-57 29 -57 77q0 36 30 60t71 24zM535 237v1q0 22 -15.5 37t-42.5 15q-22 0 -38.5 -14t-16.5 -38q0 -37 70 -64q23 14 33 27.5t10 35.5zM482 21h1q27 0 46.5 13.5t19.5 40.5q0 13 -5.5 23.5t-20.5 19.5t-21.5 12t-28.5 12q-5 2 -7 3q-55 -25 -55 -66q0 -23 19 -40.5
t52 -17.5z" />
    <glyph glyph-name="seveneighths" unicode="&#x215e;" horiz-adv-x="635" 
d="M275 595l2 -4q-20 -74 -52.5 -146t-54.5 -108t-31 -44q-14 -16 -27 -21q-14 -5 -34 -5l-1 3q101 121 151 288q-7 0 -51.5 -0.5t-91.5 -0.5q-21 0 -26.5 3.5t-2.5 12.5q8 15 25 27q17 -5 58 -5h136zM498 594q-178 -298 -380 -621q-8 -15 -18 -5q-13 10 -15 25
q244 389 381 622q9 15 20 1q10 -11 12 -22zM467 319h1q38 0 67 -22t29 -60q0 -41 -59 -75q35 -17 54 -34.5t19 -47.5q0 -40 -31.5 -64t-81.5 -24q-48 0 -80 21.5t-32 62.5q0 23 15 41.5t55 40.5q-57 29 -57 77q0 36 30 60t71 24zM521 237v1q0 22 -15.5 37t-42.5 15
q-22 0 -38.5 -14t-16.5 -38q0 -37 70 -64q23 14 33 27.5t10 35.5zM467 21h1q27 0 46.5 13.5t19.5 40.5q0 17 -12.5 31t-26 20.5t-35.5 15.5q-5 2 -8 3q-55 -25 -55 -66q0 -23 19 -40.5t51 -17.5z" />
    <glyph glyph-name="partialdiff" unicode="&#x2202;" horiz-adv-x="462" 
d="M230 362h1q81 0 130 -61q2 14 2 44q0 137 -49.5 206.5t-130.5 69.5q-58 0 -109 -23q-1 2 -4 7t-4 7q-9 18 7 26q58 28 118 28q92 0 157.5 -78t65.5 -238q0 -187 -59 -272t-154 -85q-79 0 -120.5 48t-41.5 124q0 91 55 144t136 53zM209 29h1q63 0 102 60.5t43 159.5
q-18 35 -52 53.5t-69 18.5q-66 0 -103.5 -39.5t-37.5 -112.5q0 -68 35.5 -104t80.5 -36z" />
    <glyph glyph-name="Delta" unicode="&#x2206;" horiz-adv-x="621" 
d="M40 2l-8 16q38 80 144.5 329t108.5 253l-5 19q25 9 34 9q11 0 17 -15q99 -236 258 -595l-8 -18q-33 0 -175 -2.5t-214 -2.5q-128 0 -152 7zM100 46q24 -7 127 -7q260 0 286 6q-24 58 -74 177t-89 212t-45 109q-16 -36 -97.5 -238t-107.5 -259z" />
    <glyph glyph-name="product" unicode="&#x220f;" horiz-adv-x="650" 
d="M601 586h-63v-672q0 -26 -25 -26h-30v698h-311v-669q0 -18 -5.5 -23.5t-18.5 -5.5h-31v698h-97l4 21q2 12 8 16.5t23 4.5h577l-3 -19q-2 -16 -7 -19.5t-21 -3.5z" />
    <glyph glyph-name="summation" unicode="&#x2211;" horiz-adv-x="510" 
d="M122 584v-4l188 -300l-203 -315v-5q60 -10 209 -10q122 0 172 5l2 -5q-9 -25 -33 -40q-36 -10 -194 -10q-169 0 -228 10l-8 15l223 343l-214 342l9 18h427q-1 -21 -10 -33q-10 -11 -37 -11h-303z" />
    <glyph glyph-name="minus" unicode="&#x2212;" horiz-adv-x="561" 
d="M469 224h-408q1 15 8 27.5t20 12.5h412q-1 -15 -9 -27.5t-23 -12.5z" />
    <glyph glyph-name="uni2215" unicode="&#x2215;" horiz-adv-x="69" 
d="M218 573q-50 -84 -360 -619q-11 -19 -21 -5q-6 8 -12 27q343 592 361 624q8 14 17 1q13 -15 15 -28z" />
    <glyph glyph-name="uni2219" unicode="&#x2219;" horiz-adv-x="143" 
d="M73 283h1q17 0 28 -12.5t11 -29.5q0 -20 -11 -33t-30 -13q-16 0 -28.5 11t-12.5 31t11 33t31 13z" />
    <glyph glyph-name="radical" unicode="&#x221a;" horiz-adv-x="500" 
d="M477 791l-176 -899q-1 -10 -4 -12.5t-11 -2.5h-24l-141 448l-88 -32q-19 11 -15 33l138 52l91 -298q5 -17 17 -66.5t13 -53.5h1q1 5 8 56.5t11 71.5l134 698q3 18 20 13q4 -1 13 -3.5t13 -4.5z" />
    <glyph glyph-name="infinity" unicode="&#x221e;" horiz-adv-x="691" 
d="M505 117h-1q-10 0 -20 2t-18 4t-18.5 8t-16 8.5t-16 12t-14.5 12.5t-15 14.5t-13.5 14t-15 16t-13.5 15.5q-1 -1 -13 -14.5t-14 -15.5t-13.5 -14t-15.5 -15t-15 -12.5t-17 -12.5t-16.5 -9t-19.5 -8t-20 -4t-22 -2q-57 0 -92.5 37t-35.5 100q0 56 41 96.5t97 40.5
q18 0 35 -5.5t29 -11t28 -20t22.5 -21t23.5 -26t21 -23.5q24 27 35.5 39t35 31.5t47 28t50.5 8.5q54 0 90 -38t36 -98q0 -57 -40 -97.5t-96 -40.5zM186 160h1q12 0 23.5 2.5t22.5 9.5t18.5 11t19 16.5t15.5 16.5t17 19.5t15 17.5q-9 9 -30 31.5t-32.5 33.5t-31.5 21.5
t-40 10.5q-40 0 -63.5 -27t-23.5 -68q0 -42 25.5 -68.5t63.5 -26.5zM507 160h1q38 0 62 27t24 68q0 43 -22.5 69t-61.5 26q-11 0 -22 -3t-19.5 -5.5t-19.5 -11t-16.5 -12t-17 -15.5t-14 -15t-15 -17t-13.5 -15q7 -7 29 -31t33 -34t31.5 -20.5t40.5 -10.5z" />
    <glyph glyph-name="integral" unicode="&#x222b;" horiz-adv-x="322" 
d="M263 742h1q19 0 34 -9q8 -6 3 -19.5t-14 -16.5q-11 4 -27 4q-23 0 -39 -13.5t-23.5 -30t-11.5 -45t-4.5 -44t-0.5 -41.5v-7q0 -71 6 -239.5t6 -238.5q0 -27 -1 -46.5t-4.5 -48.5t-11.5 -49t-21 -39.5t-34 -29.5t-49 -10q-22 0 -42 9q-10 8 -8.5 22t12.5 20q15 -8 41 -8
q17 0 30 7t20.5 21t12 27t6 34.5t2 33.5t0 33.5t-0.5 25.5q0 70 -6 240t-6 239q0 38 5 71.5t17.5 69t40 57t67.5 21.5z" />
    <glyph glyph-name="approxequal" unicode="&#x2248;" horiz-adv-x="561" 
d="M177 392h1q14 0 27.5 -2.5t28.5 -9.5t23 -11t25.5 -14.5t21.5 -12.5q72 -42 93 -42q27 0 42 16t25 55q2 9 4.5 11.5t8.5 2.5q4 0 6.5 -0.5t5 -2.5t4 -3t4 -4.5t4.5 -5.5q-12 -61 -37.5 -85.5t-68.5 -24.5q-38 0 -134 57q-55 32 -87 32q-57 0 -74 -68q-2 -9 -4 -11t-9 -2
q-9 0 -25 14q6 54 38.5 82.5t76.5 28.5zM177 236h1q18 0 37 -5.5t28.5 -10t32.5 -18t28 -16.5q72 -42 93 -42q27 0 42 16t25 55q2 9 4.5 11.5t7.5 2.5q3 0 6 -0.5t4.5 -1.5t3.5 -2.5t3.5 -3t3.5 -4t4 -4.5q-12 -61 -37.5 -85.5t-68.5 -24.5q-38 0 -134 57q-55 32 -87 32
q-57 0 -74 -68q-2 -9 -4 -11t-9 -2q-5 0 -8.5 1.5t-5 2t-6 5l-5.5 5.5q6 54 38.5 82.5t76.5 28.5z" />
    <glyph glyph-name="notequal" unicode="&#x2260;" horiz-adv-x="561" 
d="M376 465l30 -19l-44 -83h138q-1 -23 -7.5 -31.5t-24.5 -8.5h-127l-82 -152h241q-1 -22 -7.5 -31t-24.5 -9h-230l-50 -93l-31 19l40 74h-137q2 40 32 40h126l82 152h-240q2 40 32 40h230z" />
    <glyph glyph-name="lessequal" unicode="&#x2264;" horiz-adv-x="561" 
d="M500 505l-377 -190v-3l377 -188q0 -12 -10 -30q-9 -12 -26 -4l-391 201q-13 7 -13 14q0 19 11 26l396 205q16 8 25 -6q2 -3 8 -25zM468 0h-408q2 40 32 40h408q-1 -22 -7.5 -31t-24.5 -9z" />
    <glyph glyph-name="greaterequal" unicode="&#x2265;" horiz-adv-x="561" 
d="M60 121l377 190v3l-377 188q0 12 10 30q9 12 26 4l391 -201q13 -7 13 -14q0 -19 -11 -26l-396 -205q-16 -8 -25 6q-2 3 -8 25zM468 0h-408q2 40 32 40h408q-1 -22 -7.5 -31t-24.5 -9z" />
    <glyph glyph-name="lozenge" unicode="&#x25ca;" horiz-adv-x="487" 
d="M448 324l-183 -352q-4 -2 -9.5 -5t-9.5 -4.5t-10 -1.5q-14 0 -19 12l-175 348l179 358q2 2 7 5.5t8 5t8 3t11 1.5q4 0 5.5 -1t2.5 -2t2.5 -4.5t3.5 -6.5zM397 318l-153 322h-2l-150 -313l153 -310h1z" />
    <glyph glyph-name="A.sc" unicode="&#xe000;" horiz-adv-x="479" 
d="M340 154h-203q-20 -40 -43 -89.5t-27 -57.5q-5 -11 -14 -11q-29 0 -39 6l-1 3q35 69 112.5 232t96.5 205l-10 25q20 9 38 9q10 0 21 -26q99 -237 129 -302q48 -107 66 -141v-3q-16 -8 -42 -8q-15 0 -24 22q-14 30 -60 136zM155 194h169q-74 177 -83 196q-18 -40 -45 -102
t-41 -94z" />
    <glyph glyph-name="AE.sc" unicode="&#xe001;" horiz-adv-x="625" 
d="M327 189h-161q-85 -151 -104 -184q-6 -11 -17 -11q-17 0 -33 9v5q34 54 121.5 208t126.5 226q5 9 7 21q2 1 10.5 2.5t19 3t13.5 2.5h266q-6 -23 -18 -32q-8 -8 -49 -8h-145l10 -203h198q-4 -24 -15 -32t-38 -8h-143l8 -145q24 -7 104 -7q76 0 124 3l1 -2q-4 -15 -14 -24
t-18 -11q-24 -6 -98 -6q-93 0 -137 7l-11 14zM188 228h136l-10 207h-13q-29 -55 -66 -121.5t-47 -85.5z" />
    <glyph glyph-name="AEacute.sc" unicode="&#xe002;" horiz-adv-x="625" 
d="M327 189h-161q-85 -151 -104 -184q-6 -11 -17 -11q-17 0 -33 9v5q34 54 121.5 208t126.5 226q5 9 7 21q2 1 10.5 2.5t19 3t13.5 2.5h266q-6 -23 -18 -32q-8 -8 -49 -8h-145l10 -203h198q-4 -24 -15 -32t-38 -8h-143l8 -145q24 -7 104 -7q76 0 124 3l1 -2q-4 -15 -14 -24
t-18 -11q-24 -6 -98 -6q-93 0 -137 7l-11 14zM188 228h136l-10 207h-13q-29 -55 -66 -121.5t-47 -85.5zM448 671q6 -1 17.5 -11.5t16.5 -18.5q4 -10 -9 -18q-59 -39 -139 -107q-4 4 -14 21q-3 7 12 25q102 112 116 109z" />
    <glyph glyph-name="Aacute.sc" unicode="&#xe003;" horiz-adv-x="479" 
d="M340 154h-203q-20 -40 -43 -89.5t-27 -57.5q-5 -11 -14 -11q-29 0 -39 6l-1 3q35 69 112.5 232t96.5 205l-10 25q20 9 38 9q10 0 21 -26q99 -237 129 -302q48 -107 66 -141v-3q-16 -8 -42 -8q-15 0 -24 22q-14 30 -60 136zM155 194h169q-74 177 -83 196q-18 -40 -45 -102
t-41 -94zM334 666q6 -1 17.5 -11.5t16.5 -18.5q4 -10 -9 -18q-59 -39 -139 -107q-4 4 -14 21q-3 7 12 25q102 112 116 109z" />
    <glyph glyph-name="Abreve.sc" unicode="&#xe004;" horiz-adv-x="479" 
d="M340 154h-203q-20 -40 -43 -89.5t-27 -57.5q-5 -11 -14 -11q-29 0 -39 6l-1 3q35 69 112.5 232t96.5 205l-10 25q20 9 38 9q10 0 21 -26q99 -237 129 -302q48 -107 66 -141v-3q-16 -8 -42 -8q-15 0 -24 22q-14 30 -60 136zM155 194h169q-74 177 -83 196q-18 -40 -45 -102
t-41 -94zM176 652h1q7 0 7 -9q10 -80 51 -80q21 0 35 13.5t18.5 28.5t8.5 39q2 8 9 8q11 0 21 -5.5t9 -13.5q-13 -117 -102 -117q-40 0 -65 30t-25 82q0 24 32 24z" />
    <glyph glyph-name="Acircumflex.sc" unicode="&#xe005;" horiz-adv-x="479" 
d="M340 154h-203q-20 -40 -43 -89.5t-27 -57.5q-5 -11 -14 -11q-29 0 -39 6l-1 3q35 69 112.5 232t96.5 205l-10 25q20 9 38 9q10 0 21 -26q99 -237 129 -302q48 -107 66 -141v-3q-16 -8 -42 -8q-15 0 -24 22q-14 30 -60 136zM155 194h169q-74 177 -83 196q-18 -40 -45 -102
t-41 -94zM172 514h-1q-24 0 -30 13q11 20 36.5 60.5t38.5 64.5q9 13 16 15q3 0 8 1t8.5 1.5t6.5 0.5q15 -27 45 -76.5t39 -64.5q-13 -15 -32 -15q-7 0 -12 8q-6 11 -23.5 41t-30.5 52q-16 -27 -59 -98q-9 -3 -10 -3z" />
    <glyph glyph-name="Adieresis.sc" unicode="&#xe006;" horiz-adv-x="479" 
d="M340 154h-203q-20 -40 -43 -89.5t-27 -57.5q-5 -11 -14 -11q-29 0 -39 6l-1 3q35 69 112.5 232t96.5 205l-10 25q20 9 38 9q10 0 21 -26q99 -237 129 -302q48 -107 66 -141v-3q-16 -8 -42 -8q-15 0 -24 22q-14 30 -60 136zM155 194h169q-74 177 -83 196q-18 -40 -45 -102
t-41 -94zM169 613h1q15 0 25.5 -12t10.5 -28q0 -19 -10.5 -30t-28.5 -11q-16 0 -27 10t-11 29q0 18 11 30t29 12zM323 613h1q15 0 25.5 -12t10.5 -28q0 -19 -11 -30t-30 -11q-14 0 -25.5 10t-11.5 29q0 18 11 30t30 12z" />
    <glyph glyph-name="Agrave.sc" unicode="&#xe007;" horiz-adv-x="479" 
d="M340 154h-203q-20 -40 -43 -89.5t-27 -57.5q-5 -11 -14 -11q-29 0 -39 6l-1 3q35 69 112.5 232t96.5 205l-10 25q20 9 38 9q10 0 21 -26q99 -237 129 -302q48 -107 66 -141v-3q-16 -8 -42 -8q-15 0 -24 22q-14 30 -60 136zM155 194h169q-74 177 -83 196q-18 -40 -45 -102
t-41 -94zM148 671q9 2 53 -40.5t67 -73.5q12 -15 4 -23q-10 -17 -13 -18q-91 78 -136 107q-10 7 -4 21q20 26 29 27z" />
    <glyph glyph-name="Amacron.sc" unicode="&#xe008;" horiz-adv-x="479" 
d="M340 154h-203q-20 -40 -43 -89.5t-27 -57.5q-5 -11 -14 -11q-29 0 -39 6l-1 3q35 69 112.5 232t96.5 205l-10 25q20 9 38 9q10 0 21 -26q99 -237 129 -302q48 -107 66 -141v-3q-16 -8 -42 -8q-15 0 -24 22q-14 30 -60 136zM155 194h169q-74 177 -83 196q-18 -40 -45 -102
t-41 -94zM324 544h-173q-12 0 -12 13q0 21 15 33h176q11 0 11 -7q0 -6 -6 -19.5t-11 -19.5z" />
    <glyph glyph-name="Aogonek.sc" unicode="&#xe009;" horiz-adv-x="480" 
d="M465 10v-6q-38 -22 -66 -61.5t-28 -80.5q0 -23 13.5 -38.5t39.5 -15.5q31 0 61 14l3 -3q0 -24 -11 -37q-29 -25 -79 -25q-37 0 -61.5 24t-24.5 64q0 86 102 156q-9 7 -13 17q-14 30 -60 136h-204q-20 -40 -43 -89.5t-27 -57.5q-5 -11 -14 -11q-32 0 -38 5l-2 5
q35 68 112.5 230.5t96.5 205.5l-10 25q20 9 39 9q10 0 21 -26q99 -237 129 -302q25 -56 64 -138zM155 194h170q-17 41 -35 83t-32 75t-16 38q-20 -43 -48.5 -108.5t-38.5 -87.5z" />
    <glyph glyph-name="Aring.sc" unicode="&#xe00a;" horiz-adv-x="479" 
d="M340 154h-203q-20 -40 -43 -89.5t-27 -57.5q-5 -11 -14 -11q-29 0 -39 6l-1 3q35 69 112.5 232t96.5 205l-10 25q20 9 38 9q10 0 21 -26q99 -237 129 -302q48 -107 66 -141v-3q-16 -8 -42 -8q-15 0 -24 22q-14 30 -60 136zM155 194h169q-74 177 -83 196q-18 -40 -45 -102
t-41 -94zM242 670h1q34 0 57 -23t23 -57q0 -38 -23.5 -60.5t-61.5 -22.5q-33 0 -57 22t-24 57q0 36 23 60t62 24zM238 635h-1q-17 0 -27.5 -14.5t-10.5 -31.5q0 -19 12 -32.5t30 -13.5q20 0 30 13t10 31q0 48 -43 48z" />
    <glyph glyph-name="Atilde.sc" unicode="&#xe00b;" horiz-adv-x="479" 
d="M340 154h-203q-20 -40 -43 -89.5t-27 -57.5q-5 -11 -14 -11q-29 0 -39 6l-1 3q35 69 112.5 232t96.5 205l-10 25q20 9 38 9q10 0 21 -26q99 -237 129 -302q48 -107 66 -141v-3q-16 -8 -42 -8q-15 0 -24 22q-14 30 -60 136zM155 194h169q-74 177 -83 196q-18 -40 -45 -102
t-41 -94zM202 636h1q28 0 56 -34q22 -27 30 -27q17 0 26 51q3 11 10 11q10 0 29 -15q-12 -95 -67 -95q-7 0 -12.5 1.5t-12 7t-9.5 8t-11.5 12t-11.5 12.5q-18 22 -30 22q-16 0 -30 -48q-2 -11 -9 -11q-8 0 -32 9q16 96 73 96z" />
    <glyph glyph-name="B.sc" unicode="&#xe00c;" horiz-adv-x="413" 
d="M75 6v359q0 60 -1 99q48 12 113 12q48 0 80.5 -12.5t47 -33.5t20 -39.5t5.5 -38.5q0 -61 -54 -99q45 -14 68 -43.5t23 -67.5q0 -72 -55.5 -110t-137.5 -38q-61 0 -109 12zM126 433v-170q67 8 121 1q39 23 39 82q0 40 -27 66t-83 26q-30 0 -50 -5zM126 225v-186
q24 -7 68 -7q50 0 88.5 26t38.5 77q0 94 -141 94q-30 0 -54 -4z" />
    <glyph glyph-name="C.sc" unicode="&#xe00d;" horiz-adv-x="464" 
d="M431 51l1 -3q-5 -26 -22 -40q-35 -20 -113 -20q-121 0 -190.5 66.5t-69.5 173.5q0 116 74 185t190 69q48 0 88.5 -14t53.5 -28q-8 -20 -12 -24q-11 -9 -26 0q-44 25 -118 25t-133.5 -53.5t-59.5 -146.5q0 -98 57 -154t167 -56q59 0 113 20z" />
    <glyph glyph-name="Cacute.sc" unicode="&#xe00e;" horiz-adv-x="464" 
d="M431 51l1 -3q-5 -26 -22 -40q-35 -20 -113 -20q-121 0 -190.5 66.5t-69.5 173.5q0 116 74 185t190 69q48 0 88.5 -14t53.5 -28q-8 -20 -12 -24q-11 -9 -26 0q-44 25 -118 25t-133.5 -53.5t-59.5 -146.5q0 -98 57 -154t167 -56q59 0 113 20zM362 671q6 -1 17.5 -11.5
t16.5 -18.5q4 -10 -9 -18q-59 -39 -139 -107q-3 4 -14 21q-3 7 12 25q102 112 116 109z" />
    <glyph glyph-name="Ccaron.sc" unicode="&#xe00f;" horiz-adv-x="464" 
d="M431 51l1 -3q-5 -26 -22 -40q-35 -20 -113 -20q-121 0 -190.5 66.5t-69.5 173.5q0 116 74 185t190 69q48 0 88.5 -14t53.5 -28q-8 -20 -12 -24q-11 -9 -26 0q-44 25 -118 25t-133.5 -53.5t-59.5 -146.5q0 -98 57 -154t167 -56q59 0 113 20zM210 669h1q6 0 12 -9
q2 -4 21 -35.5t33 -55.5q10 18 31 52t28 45q6 3 10 3q24 0 31 -12q-11 -19 -36.5 -60t-38.5 -65q-9 -13 -17 -15q-14 -4 -23 -4q-20 36 -84 142q17 14 32 14z" />
    <glyph glyph-name="Ccedilla.sc" unicode="&#xe010;" horiz-adv-x="463" 
d="M213 -87l53 77q-108 8 -169 73.5t-61 165.5q0 116 74.5 184.5t191.5 68.5q46 0 85.5 -14t55.5 -29q-7 -18 -13 -24q-10 -9 -24 -2q-48 27 -120 27q-77 0 -135 -52t-58 -146q0 -98 57 -154t168 -56q60 0 112 19l1 -2q-4 -24 -22 -40q-31 -19 -97 -20l-30 -44
q64 -16 64 -72q0 -36 -36.5 -61.5t-81.5 -33.5q-8 1 -13.5 10t-5.5 16q0 6 10 9q78 24 78 55q0 21 -25 31.5t-59 10.5v3z" />
    <glyph glyph-name="Ccircumflex.sc" unicode="&#xe011;" horiz-adv-x="464" 
d="M431 51l1 -3q-5 -26 -22 -40q-35 -20 -113 -20q-121 0 -190.5 66.5t-69.5 173.5q0 116 74 185t190 69q48 0 88.5 -14t53.5 -28q-8 -20 -12 -24q-11 -9 -26 0q-44 25 -118 25t-133.5 -53.5t-59.5 -146.5q0 -98 57 -154t167 -56q59 0 113 20zM209 514h-1q-24 0 -30 13
q11 20 36.5 60.5t38.5 64.5q9 13 16 15q3 0 8 1t8.5 1.5t6.5 0.5q15 -27 45 -76.5t39 -64.5q-12 -15 -32 -15q-7 0 -12 8q-6 11 -23.5 41t-30.5 52q-16 -27 -59 -98q-9 -3 -10 -3z" />
    <glyph glyph-name="Cdotaccent.sc" unicode="&#xe012;" horiz-adv-x="464" 
d="M431 51l1 -3q-5 -26 -22 -40q-35 -20 -113 -20q-121 0 -190.5 66.5t-69.5 173.5q0 116 74 185t190 69q48 0 88.5 -14t53.5 -28q-8 -20 -12 -24q-11 -9 -26 0q-44 25 -118 25t-133.5 -53.5t-59.5 -146.5q0 -98 57 -154t167 -56q59 0 113 20zM280 626h1q16 0 26 -11t10 -28
q0 -20 -10.5 -31t-27.5 -11q-16 0 -27.5 10t-11.5 29q0 18 11 30t29 12z" />
    <glyph glyph-name="D.sc" unicode="&#xe013;" horiz-adv-x="531" 
d="M75 12v361q0 20 -3 89q54 14 144 14q83 0 142 -23t87 -61t39 -74t11 -75q0 -120 -78.5 -184.5t-200.5 -64.5q-61 0 -141 18zM126 430v-387q40 -10 88 -10q99 0 161.5 49.5t62.5 155.5q0 91 -57.5 145t-176.5 54q-11 0 -78 -7z" />
    <glyph glyph-name="Dcaron.sc" unicode="&#xe014;" horiz-adv-x="531" 
d="M75 12v361q0 20 -3 89q54 14 144 14q83 0 142 -23t87 -61t39 -74t11 -75q0 -120 -78.5 -184.5t-200.5 -64.5q-61 0 -141 18zM126 430v-387q40 -10 88 -10q99 0 161.5 49.5t62.5 155.5q0 91 -57.5 145t-176.5 54q-11 0 -78 -7zM189 669h1q6 0 12 -9q2 -4 21 -35.5
t33 -55.5q10 18 31 52t28 45q6 3 10 3q24 0 31 -12q-11 -19 -36.5 -60t-38.5 -65q-9 -13 -17 -15q-14 -4 -23 -4q-20 36 -84 142q17 14 32 14z" />
    <glyph glyph-name="Dcroat.sc" unicode="&#xe015;" horiz-adv-x="539" 
d="M85 11v212h-70q8 38 42 38h28v111q0 18 -3 90q11 4 63 9t79 5q68 0 119.5 -16t81 -39.5t48 -56.5t24.5 -61.5t6 -59.5q0 -125 -89 -193q-72 -56 -189 -56q-59 0 -140 17zM136 431v-170h159q-5 -24 -17.5 -31t-35.5 -7h-106v-180q38 -10 86 -10q99 0 161.5 50t62.5 157
q0 90 -58.5 143.5t-179.5 53.5q-15 0 -72 -6z" />
    <glyph glyph-name="Dotlessismall.cap" unicode="&#xe016;" horiz-adv-x="202" 
d="M75 11v361q0 30 -0.5 62t-0.5 36q22 6 39 6q8 0 10.5 -8t2.5 -34v-339q0 -42 3 -93q-15 -6 -39 -6q-15 0 -15 15z" />
    <glyph glyph-name="E.sc" unicode="&#xe017;" horiz-adv-x="380" 
d="M75 17v348q0 61 -3 95q25 8 42 11h218q-4 -28 -23 -36q-12 -4 -75 -4h-108v-170h196q-6 -23 -18 -31t-33 -8h-145v-179q23 -7 103 -7q69 0 123 3v-2q-3 -20 -27 -35q-18 -6 -88 -6q-109 0 -151 7z" />
    <glyph glyph-name="Eacute.sc" unicode="&#xe018;" horiz-adv-x="380" 
d="M75 17v348q0 61 -3 95q25 8 42 11h218q-4 -28 -23 -36q-12 -4 -75 -4h-108v-170h196q-6 -23 -18 -31t-33 -8h-145v-179q23 -7 103 -7q69 0 123 3v-2q-3 -20 -27 -35q-18 -6 -88 -6q-109 0 -151 7zM294 671q6 -1 17.5 -11.5t16.5 -18.5q4 -10 -9 -18q-59 -39 -139 -107
q-4 4 -14 21q-3 7 12 25q102 112 116 109z" />
    <glyph glyph-name="Ebreve.sc" unicode="&#xe019;" horiz-adv-x="380" 
d="M75 17v348q0 61 -3 95q25 8 42 11h218q-4 -28 -23 -36q-12 -4 -75 -4h-108v-170h196q-6 -23 -18 -31t-33 -8h-145v-179q23 -7 103 -7q69 0 123 3v-2q-3 -20 -27 -35q-18 -6 -88 -6q-109 0 -151 7zM141 662h1q7 0 7 -9q10 -80 51 -80q21 0 35 13.5t18.5 28.5t8.5 39
q2 8 9 8q11 0 21 -5.5t9 -13.5q-13 -117 -102 -117q-40 0 -65 30t-25 82q0 24 32 24z" />
    <glyph glyph-name="Ecaron.sc" unicode="&#xe01a;" horiz-adv-x="380" 
d="M75 17v348q0 61 -3 95q25 8 42 11h218q-4 -28 -23 -36q-12 -4 -75 -4h-108v-170h196q-6 -23 -18 -31t-33 -8h-145v-179q23 -7 103 -7q69 0 123 3v-2q-3 -20 -27 -35q-18 -6 -88 -6q-109 0 -151 7zM134 669h1q6 0 12 -9q2 -4 21 -35.5t33 -55.5q10 18 31 52t28 45
q6 3 10 3q24 0 31 -12q-11 -19 -36.5 -60t-38.5 -65q-9 -13 -17 -15q-14 -4 -23 -4q-20 36 -84 142q17 14 32 14z" />
    <glyph glyph-name="Ecircumflex.sc" unicode="&#xe01b;" horiz-adv-x="380" 
d="M75 17v348q0 61 -3 95q25 8 42 11h218q-4 -28 -23 -36q-12 -4 -75 -4h-108v-170h196q-6 -23 -18 -31t-33 -8h-145v-179q23 -7 103 -7q69 0 123 3v-2q-3 -20 -27 -35q-18 -6 -88 -6q-109 0 -151 7zM132 524h-1q-24 0 -30 13q11 20 36.5 60.5t38.5 64.5q9 13 16 15q3 0 8 1
t8.5 1.5t6.5 0.5q15 -27 45 -76.5t39 -64.5q-13 -15 -32 -15q-7 0 -12 8q-6 11 -23.5 41t-30.5 52q-16 -27 -59 -98q-9 -3 -10 -3z" />
    <glyph glyph-name="Edieresis.sc" unicode="&#xe01c;" horiz-adv-x="380" 
d="M75 17v348q0 61 -3 95q25 8 42 11h218q-4 -28 -23 -36q-12 -4 -75 -4h-108v-170h196q-6 -23 -18 -31t-33 -8h-145v-179q23 -7 103 -7q69 0 123 3v-2q-3 -20 -27 -35q-18 -6 -88 -6q-109 0 -151 7zM123 631h1q15 0 25.5 -12t10.5 -28q0 -19 -10.5 -30t-28.5 -11
q-16 0 -27 10t-11 29q0 18 11 30t29 12zM277 631h1q15 0 25.5 -12t10.5 -28q0 -19 -11 -30t-30 -11q-14 0 -25.5 10t-11.5 29q0 18 11 30t30 12z" />
    <glyph glyph-name="Edotaccent.sc" unicode="&#xe01d;" horiz-adv-x="380" 
d="M75 17v348q0 61 -3 95q25 8 42 11h218q-4 -28 -23 -36q-12 -4 -75 -4h-108v-170h196q-6 -23 -18 -31t-33 -8h-145v-179q23 -7 103 -7q69 0 123 3v-2q-3 -20 -27 -35q-18 -6 -88 -6q-109 0 -151 7zM202 621h1q16 0 26 -11t10 -28q0 -20 -10.5 -31t-27.5 -11
q-16 0 -27.5 10t-11.5 29q0 18 11 30t29 12z" />
    <glyph glyph-name="Egrave.sc" unicode="&#xe01e;" horiz-adv-x="380" 
d="M75 17v348q0 61 -3 95q25 8 42 11h218q-4 -28 -23 -36q-12 -4 -75 -4h-108v-170h196q-6 -23 -18 -31t-33 -8h-145v-179q23 -7 103 -7q69 0 123 3v-2q-3 -20 -27 -35q-18 -6 -88 -6q-109 0 -151 7zM109 676q9 2 53 -40.5t67 -73.5q12 -15 4 -23q-10 -17 -13 -18
q-91 78 -136 107q-10 7 -4 21q20 26 29 27z" />
    <glyph glyph-name="Emacron.sc" unicode="&#xe01f;" horiz-adv-x="380" 
d="M75 17v348q0 61 -3 95q25 8 42 11h218q-4 -28 -23 -36q-12 -4 -75 -4h-108v-170h196q-6 -23 -18 -31t-33 -8h-145v-179q23 -7 103 -7q69 0 123 3v-2q-3 -20 -27 -35q-18 -6 -88 -6q-109 0 -151 7zM287 554h-173q-12 0 -12 13q0 21 15 33h176q11 0 11 -7q0 -6 -6 -19.5
t-11 -19.5z" />
    <glyph glyph-name="Eng.sc" unicode="&#xe020;" horiz-adv-x="558" 
d="M333 -174l1 4q100 26 101 150q1 18 -22 47q-26 32 -99 118.5t-110 131.5q-9 11 -38.5 48.5t-47.5 59.5q4 -86 4 -169v-196q0 -12 -4 -15.5t-16 -5.5q-14 -3 -29 -3q2 32 2 138v297l-26 35v4q24 6 44 6q6 0 20 -14q11 -11 44.5 -51.5t85 -101.5t93.5 -109q21 -24 56.5 -67
t45.5 -54q-2 41 -2 128v245q0 12 2.5 15.5t11.5 5.5q23 3 35 3q-2 -64 -2 -138v-282q0 -75 -7.5 -118.5t-30.5 -76.5q-18 -27 -42 -41.5t-41 -14.5q-18 0 -29 21z" />
    <glyph glyph-name="Eogonek.sc" unicode="&#xe021;" horiz-adv-x="380" 
d="M350 39l2 -4q-13 -23 -27 -33q-6 -3 -18 -4q-91 -69 -91 -140q0 -22 13 -36t39 -14q28 0 62 14q1 0 3 -2q0 -23 -11 -38q-29 -25 -79 -25q-37 0 -61.5 23t-24.5 63q0 84 100 153q-131 0 -171 7l-11 14v348q0 61 -3 95q26 9 41 11h219q-6 -29 -25 -35q-12 -5 -73 -5h-108
v-170h196q-6 -23 -18 -31t-33 -8h-145v-178q28 -8 105 -8q61 0 119 3z" />
    <glyph glyph-name="Eth.sc" unicode="&#xe022;" horiz-adv-x="539" 
d="M85 11v212h-70q8 38 42 38h28v111q0 18 -3 90q11 4 63 9t79 5q68 0 119.5 -16t81 -39.5t48 -56.5t24.5 -61.5t6 -59.5q0 -125 -89 -193q-72 -56 -189 -56q-59 0 -140 17zM136 431v-170h159q-5 -24 -17.5 -31t-35.5 -7h-106v-180q38 -10 86 -10q99 0 161.5 50t62.5 157
q0 90 -58.5 143.5t-179.5 53.5q-15 0 -72 -6z" />
    <glyph glyph-name="F.sc" unicode="&#xe023;" horiz-adv-x="366" 
d="M74 10v371q0 18 -2 78q21 9 44 12h228q-3 -25 -20 -33q-12 -7 -68 -7h-131v-185h193q-4 -25 -14 -32.5t-31 -7.5h-148q0 -96 3 -204q-18 -6 -37 -6q-17 0 -17 14z" />
    <glyph glyph-name="G.sc" unicode="&#xe024;" horiz-adv-x="517" 
d="M408 47v104q0 37 -4 64q16 7 41 7q14 0 14 -21v-166q-19 -15 -61 -32q-39 -15 -103 -15q-109 0 -184 60.5t-75 182.5q0 109 73.5 180t182.5 71q110 0 167 -50q0 -18 -13 -27q-11 -5 -23 2q-59 35 -128 35q-87 0 -144.5 -58t-57.5 -148q0 -104 66 -156.5t157 -52.5
q59 0 92 20z" />
    <glyph glyph-name="Gbreve.sc" unicode="&#xe025;" horiz-adv-x="517" 
d="M408 47v104q0 37 -4 64q16 7 41 7q14 0 14 -21v-166q-19 -15 -61 -32q-39 -15 -103 -15q-109 0 -184 60.5t-75 182.5q0 109 73.5 180t182.5 71q110 0 167 -50q0 -18 -13 -27q-11 -5 -23 2q-59 35 -128 35q-87 0 -144.5 -58t-57.5 -148q0 -104 66 -156.5t157 -52.5
q59 0 92 20zM210 662h1q7 0 7 -9q10 -80 51 -80q21 0 35 13.5t18.5 28.5t8.5 39q2 8 9 8q11 0 21 -5.5t9 -13.5q-13 -117 -102 -117q-40 0 -65 30t-25 82q0 24 32 24z" />
    <glyph glyph-name="Gcircumflex.sc" unicode="&#xe026;" horiz-adv-x="517" 
d="M408 47v104q0 37 -4 64q16 7 41 7q14 0 14 -21v-166q-19 -15 -61 -32q-39 -15 -103 -15q-109 0 -184 60.5t-75 182.5q0 109 73.5 180t182.5 71q110 0 167 -50q0 -18 -13 -27q-11 -5 -23 2q-59 35 -128 35q-87 0 -144.5 -58t-57.5 -148q0 -104 66 -156.5t157 -52.5
q59 0 92 20zM206 514h-1q-24 0 -30 13q11 20 36.5 60.5t38.5 64.5q9 13 16 15q3 0 8 1t8.5 1.5t6.5 0.5q15 -27 45 -76.5t39 -64.5q-13 -15 -32 -15q-7 0 -12 8q-6 11 -23.5 41t-30.5 52q-16 -27 -59 -98q-9 -3 -10 -3z" />
    <glyph glyph-name="Gcommaaccent.sc" unicode="&#xe027;" horiz-adv-x="517" 
d="M408 47v104q0 37 -4 64q16 7 41 7q14 0 14 -21v-166q-19 -15 -61 -32q-39 -15 -103 -15q-109 0 -184 60.5t-75 182.5q0 109 73.5 180t182.5 71q110 0 167 -50q0 -18 -13 -27q-11 -5 -23 2q-59 35 -128 35q-87 0 -144.5 -58t-57.5 -148q0 -104 66 -156.5t157 -52.5
q59 0 92 20zM296 -50h1q12 0 20.5 -18t8.5 -37q0 -38 -22.5 -75.5t-50.5 -56.5q-16 -9 -44 -8q57 69 57 133q0 19 -12 43q23 19 42 19z" />
    <glyph glyph-name="Gdotaccent.sc" unicode="&#xe028;" horiz-adv-x="517" 
d="M408 47v104q0 37 -4 64q16 7 41 7q14 0 14 -21v-166q-19 -15 -61 -32q-39 -15 -103 -15q-109 0 -184 60.5t-75 182.5q0 109 73.5 180t182.5 71q110 0 167 -50q0 -18 -13 -27q-11 -5 -23 2q-59 35 -128 35q-87 0 -144.5 -58t-57.5 -148q0 -104 66 -156.5t157 -52.5
q59 0 92 20zM271 626h1q16 0 26 -11t10 -28q0 -20 -10.5 -31t-27.5 -11q-16 0 -27.5 10t-11.5 29q0 18 11 30t29 12z" />
    <glyph glyph-name="H.sc" unicode="&#xe029;" horiz-adv-x="534" 
d="M126 263h281v189q0 12 4 16t14 6q12 2 36 2q-3 -48 -3 -138v-243q0 -42 3 -93q-18 -6 -41 -6q-13 0 -13 15v218q-22 -5 -119 -5h-162v-204q0 -12 -4.5 -16t-17.5 -6q-22 -2 -31 -2q2 30 2 138v238q0 81 -2 98q26 6 42 6q7 0 9 -7.5t2 -35.5v-170z" />
    <glyph glyph-name="Hbar.sc" unicode="&#xe02a;" horiz-adv-x="534" 
d="M75 325h-48q6 40 44 40h4q0 89 -2 105q26 6 40 6q8 0 10.5 -8.5t2.5 -34.5v-68h281v87q0 12 4 16t14 6q12 2 36 2q-3 -40 -3 -111h49q-5 -33 -34 -39h-7t-8 -1v-231q0 -41 3 -92q-18 -6 -41 -6q-13 0 -13 15v190q-18 -4 -119 -4h-162v-177q0 -12 -5 -16t-18 -6
q-22 -2 -30 -2q2 30 2 138v191zM407 325h-281v-88h281v88z" />
    <glyph glyph-name="Hcircumflex.sc" unicode="&#xe02b;" horiz-adv-x="534" 
d="M126 263h281v189q0 12 4 16t14 6q12 2 36 2q-3 -48 -3 -138v-243q0 -42 3 -93q-18 -6 -41 -6q-13 0 -13 15v218q-22 -5 -119 -5h-162v-204q0 -12 -4.5 -16t-17.5 -6q-22 -2 -31 -2q2 30 2 138v238q0 81 -2 98q26 6 42 6q7 0 9 -7.5t2 -35.5v-170zM199 514h-1
q-24 0 -30 13q11 20 36.5 60.5t38.5 64.5q9 13 16 15q3 0 8 1t8.5 1.5t6.5 0.5q15 -27 45 -76.5t39 -64.5q-12 -15 -32 -15q-7 0 -12 8q-6 11 -23.5 41t-30.5 52q-16 -27 -59 -98q-9 -3 -10 -3z" />
    <glyph glyph-name="I.sc" unicode="&#xe02c;" horiz-adv-x="202" 
d="M75 11v361q0 30 -0.5 62t-0.5 36q22 6 39 6q8 0 10.5 -8t2.5 -34v-339q0 -42 3 -93q-15 -6 -39 -6q-15 0 -15 15z" />
    <glyph glyph-name="IJ.sc" unicode="&#xe02d;" horiz-adv-x="403" 
d="M75 11v361q0 30 -0.5 62t-0.5 36q22 6 39 6q8 0 10.5 -8t2.5 -34v-339q0 -42 3 -93q-15 -6 -39 -6q-15 0 -15 15zM277 109v262q0 63 -2 99q27 6 38 6q9 0 12 -8.5t3 -35.5v-313q0 -80 -10.5 -123.5t-35.5 -70.5q-34 -36 -74 -36q-20 0 -29 23l2 3q53 11 74.5 53.5
t21.5 140.5z" />
    <glyph glyph-name="Iacute.sc" unicode="&#xe02e;" horiz-adv-x="202" 
d="M75 11v361q0 30 -0.5 62t-0.5 36q22 6 39 6q8 0 10.5 -8t2.5 -34v-339q0 -42 3 -93q-15 -6 -39 -6q-15 0 -15 15zM200 676q6 -1 17.5 -11.5t16.5 -18.5q4 -10 -9 -18q-59 -39 -139 -107q-4 4 -14 21q-3 7 12 25q102 112 116 109z" />
    <glyph glyph-name="Ibreve.sc" unicode="&#xe02f;" horiz-adv-x="202" 
d="M75 11v361q0 30 -0.5 62t-0.5 36q22 6 39 6q8 0 10.5 -8t2.5 -34v-339q0 -42 3 -93q-15 -6 -39 -6q-15 0 -15 15zM37 662h1q7 0 7 -9q10 -80 51 -80q21 0 35 13.5t18.5 28.5t8.5 39q2 8 9 8q11 0 21 -5.5t9 -13.5q-13 -117 -102 -117q-40 0 -65 30t-25 82q0 24 32 24z
" />
    <glyph glyph-name="Icircumflex.sc" unicode="&#xe030;" horiz-adv-x="202" 
d="M75 11v361q0 30 -0.5 62t-0.5 36q22 6 39 6q8 0 10.5 -8t2.5 -34v-339q0 -42 3 -93q-15 -6 -39 -6q-15 0 -15 15zM27 514h-1q-24 0 -30 13q11 20 36.5 60.5t38.5 64.5q9 13 16 15q3 0 8 1t8.5 1.5t6.5 0.5q15 -27 45 -76.5t39 -64.5q-13 -15 -32 -15q-7 0 -12 8
q-6 11 -23.5 41t-30.5 52q-16 -27 -59 -98q-9 -3 -10 -3z" />
    <glyph glyph-name="Idieresis.sc" unicode="&#xe031;" horiz-adv-x="202" 
d="M75 11v361q0 30 -0.5 62t-0.5 36q22 6 39 6q8 0 10.5 -8t2.5 -34v-339q0 -42 3 -93q-15 -6 -39 -6q-15 0 -15 15zM26 626h1q15 0 25.5 -12t10.5 -28q0 -19 -10.5 -30t-28.5 -11q-16 0 -27 10t-11 29q0 18 11 30t29 12zM180 626h1q15 0 25.5 -12t10.5 -28q0 -19 -11 -30
t-30 -11q-14 0 -25.5 10t-11.5 29q0 18 11 30t30 12z" />
    <glyph glyph-name="Idotaccent.sc" unicode="&#xe032;" horiz-adv-x="202" 
d="M75 11v361q0 30 -0.5 62t-0.5 36q22 6 39 6q8 0 10.5 -8t2.5 -34v-339q0 -42 3 -93q-15 -6 -39 -6q-15 0 -15 15zM104 626h1q16 0 26 -11t10 -28q0 -20 -10.5 -31t-27.5 -11q-16 0 -27.5 10t-11.5 29q0 18 11 30t29 12z" />
    <glyph glyph-name="Igrave.sc" unicode="&#xe033;" horiz-adv-x="202" 
d="M75 11v361q0 30 -0.5 62t-0.5 36q22 6 39 6q8 0 10.5 -8t2.5 -34v-339q0 -42 3 -93q-15 -6 -39 -6q-15 0 -15 15zM7 676q9 2 53 -40.5t67 -73.5q12 -15 4 -23q-10 -17 -13 -18q-91 78 -136 107q-10 7 -4 21q20 26 29 27z" />
    <glyph glyph-name="Imacron.sc" unicode="&#xe034;" horiz-adv-x="202" 
d="M75 11v361q0 30 -0.5 62t-0.5 36q22 6 39 6q8 0 10.5 -8t2.5 -34v-339q0 -42 3 -93q-15 -6 -39 -6q-15 0 -15 15zM185 554h-173q-12 0 -12 13q0 21 15 33h176q11 0 11 -7q0 -6 -6 -19.5t-11 -19.5z" />
    <glyph glyph-name="Iogonek.sc" unicode="&#xe035;" horiz-adv-x="201" 
d="M126 433v-339q0 -59 4 -93q-60 -60 -60 -137q0 -25 14 -40.5t40 -15.5t60 14l3 -2q0 -23 -11 -38q-29 -25 -78 -25q-37 0 -62 24t-25 65q0 77 75 150q-6 3 -7 4q-4 4 -4 10v361q0 30 -0.5 62t-0.5 36q22 6 39 6q8 0 10.5 -8t2.5 -34z" />
    <glyph glyph-name="Itilde.sc" unicode="&#xe036;" horiz-adv-x="202" 
d="M75 11v361q0 30 -0.5 62t-0.5 36q22 6 39 6q8 0 10.5 -8t2.5 -34v-339q0 -42 3 -93q-15 -6 -39 -6q-15 0 -15 15zM61 641h1q28 0 56 -34q22 -27 30 -27q17 0 26 51q3 11 10 11q10 0 29 -15q-12 -95 -67 -95q-7 0 -12.5 1.5t-12 7t-9.5 8t-11.5 12t-11.5 12.5
q-18 22 -30 22q-16 0 -30 -48q-2 -11 -9 -11q-8 0 -32 9q16 96 73 96z" />
    <glyph glyph-name="J.sc" unicode="&#xe037;" horiz-adv-x="201" 
d="M75 109v262q0 63 -2 99q27 6 38 6q9 0 12 -8.5t3 -35.5v-313q0 -80 -10.5 -123.5t-35.5 -70.5q-34 -36 -74 -36q-20 0 -29 23l2 3q53 11 74.5 53.5t21.5 140.5z" />
    <glyph glyph-name="Jcircumflex.sc" unicode="&#xe038;" horiz-adv-x="201" 
d="M75 109v262q0 63 -2 99q27 6 38 6q9 0 12 -8.5t3 -35.5v-313q0 -80 -10.5 -123.5t-35.5 -70.5q-34 -36 -74 -36q-20 0 -29 23l2 3q53 11 74.5 53.5t21.5 140.5zM33 514h-1q-24 0 -30 13q11 20 36.5 60.5t38.5 64.5q9 13 16 15q3 0 8 1t8.5 1.5t6.5 0.5q15 -27 45 -76.5
t39 -64.5q-12 -15 -32 -15q-7 0 -12 8q-6 11 -23.5 41t-30.5 52q-16 -27 -59 -98q-9 -3 -10 -3z" />
    <glyph glyph-name="K.sc" unicode="&#xe039;" horiz-adv-x="437" 
d="M75 10v360q0 29 -0.5 63t-0.5 37q18 6 38 6q8 0 11 -8t3 -35v-192q49 44 139 130t113 106q18 -2 31 -5q20 -6 0 -23q-28 -24 -107 -96t-119 -108q62 -64 246 -238v-3q-22 -9 -45 -9q-14 0 -28 13q-98 94 -230 226v-140q0 -47 3 -92q-18 -6 -41 -6q-13 0 -13 14z" />
    <glyph glyph-name="Kcommaaccent.sc" unicode="&#xe03a;" horiz-adv-x="437" 
d="M75 10v360q0 29 -0.5 63t-0.5 37q18 6 38 6q8 0 11 -8t3 -35v-192q49 44 139 130t113 106q18 -2 31 -5q20 -6 0 -23q-28 -24 -107 -96t-119 -108q62 -64 246 -238v-3q-22 -9 -45 -9q-14 0 -28 13q-98 94 -230 226v-140q0 -47 3 -92q-18 -6 -41 -6q-13 0 -13 14zM249 -40
h1q12 0 20.5 -18t8.5 -37q0 -38 -22.5 -75.5t-50.5 -56.5q-16 -9 -44 -8q57 69 57 133q0 19 -12 43q23 19 42 19z" />
    <glyph glyph-name="L.sc" unicode="&#xe03b;" horiz-adv-x="361" 
d="M75 17v355q0 62 -4 98q33 6 43 6q12 0 12 -43v-391q34 -6 113 -6q78 0 103 2l1 -3q-2 -7 -11 -18t-21 -16q-13 -5 -91 -5q-100 0 -134 6z" />
    <glyph glyph-name="Lacute.sc" unicode="&#xe03c;" horiz-adv-x="361" 
d="M75 17v355q0 62 -4 98q33 6 43 6q12 0 12 -43v-391q34 -6 113 -6q78 0 103 2l1 -3q-2 -7 -11 -18t-21 -16q-13 -5 -91 -5q-100 0 -134 6zM197 671q6 -1 17.5 -11.5t16.5 -18.5q4 -10 -9 -18q-59 -39 -139 -107q-4 4 -14 21q-3 7 12 25q102 112 116 109z" />
    <glyph glyph-name="Lcaron.sc" unicode="&#xe03d;" horiz-adv-x="361" 
d="M75 17v355q0 62 -4 98q33 6 43 6q12 0 12 -43v-391q34 -6 113 -6q78 0 103 2l1 -3q-2 -7 -11 -18t-21 -16q-13 -5 -91 -5q-100 0 -134 6zM303 490h1q12 0 20.5 -18t8.5 -37q0 -38 -22.5 -75.5t-50.5 -56.5q-16 -9 -44 -8q57 69 57 133q0 19 -12 43q23 19 42 19z" />
    <glyph glyph-name="Lcommaaccent.sc" unicode="&#xe03e;" horiz-adv-x="361" 
d="M75 17v355q0 62 -4 98q33 6 43 6q12 0 12 -43v-391q34 -6 113 -6q78 0 103 2l1 -3q-2 -7 -11 -18t-21 -16q-13 -5 -91 -5q-100 0 -134 6zM215 -45h1q12 0 20.5 -18t8.5 -37q0 -38 -22.5 -75.5t-50.5 -56.5q-16 -9 -44 -8q57 69 57 133q0 19 -12 43q23 19 42 19z" />
    <glyph glyph-name="Ldot.sc" unicode="&#xe03f;" horiz-adv-x="361" 
d="M75 17v355q0 62 -4 98q33 6 43 6q12 0 12 -43v-391q34 -6 113 -6q78 0 103 2l1 -3q-2 -7 -11 -18t-21 -16q-13 -5 -91 -5q-100 0 -134 6zM253 306h1q16 0 26 -11t10 -28q0 -20 -10.5 -31t-27.5 -11q-16 0 -27.5 10t-11.5 29q0 18 11 30t29 12z" />
    </font>
</defs>
</svg>
